<svg id="svg" version="1.1" xmlns="http://www.w3.org/2000/svg" xmlns:xlink="http://www.w3.org/1999/xlink" width="400" height="226.9861286254729" viewBox="0, 0, 400,226.9861286254729"><g id="svgg"><path id="path0" d="M193.417 0.598 C 189.251 0.973,187.175 1.187,185.925 1.371 C 182.803 1.831,179.868 2.310,178.888 2.519 C 178.326 2.639,177.355 2.841,176.731 2.969 C 175.367 3.247,173.839 3.590,172.758 3.859 C 172.321 3.968,171.300 4.223,170.488 4.425 C 169.677 4.627,168.757 4.877,168.445 4.980 C 168.133 5.084,167.418 5.295,166.856 5.448 C 165.673 5.772,164.664 6.097,164.018 6.361 C 163.556 6.550,160.716 7.568,159.478 7.987 C 158.598 8.286,158.132 8.473,156.782 9.072 C 156.173 9.343,155.152 9.769,154.512 10.019 C 153.044 10.595,146.545 13.850,145.315 14.626 C 144.806 14.947,144.346 15.210,144.291 15.210 C 144.059 15.210,140.400 17.460,137.457 19.413 C 132.990 22.377,129.994 24.637,125.432 28.483 C 122.236 31.177,113.868 39.818,111.392 42.982 C 110.887 43.627,110.409 44.205,110.330 44.268 C 107.390 46.595,97.359 64.034,94.204 72.304 C 93.927 73.031,93.054 75.195,92.740 75.936 C 92.426 76.676,90.483 82.864,90.102 84.336 C 89.973 84.835,89.780 85.551,89.673 85.925 C 89.311 87.198,88.513 90.553,88.285 91.760 C 88.160 92.421,87.956 93.473,87.831 94.098 C 87.595 95.282,87.403 96.587,86.967 99.975 C 86.824 101.084,86.648 102.089,86.575 102.207 C 86.334 102.597,85.939 110.811,85.939 115.437 C 85.938 122.648,86.483 128.686,87.833 136.436 C 88.200 138.543,89.277 143.264,89.675 144.511 C 89.798 144.894,89.898 145.425,89.898 145.689 C 89.898 145.954,90.000 146.234,90.125 146.311 C 90.250 146.388,90.352 146.655,90.352 146.904 C 90.352 147.304,91.695 151.687,92.187 152.894 C 92.289 153.144,92.524 153.808,92.709 154.370 C 93.026 155.329,93.879 157.486,94.550 159.024 C 94.713 159.398,95.087 160.265,95.380 160.948 C 97.882 166.779,102.481 174.818,107.378 181.922 C 111.032 187.222,118.751 195.908,123.352 199.897 C 124.210 200.640,125.946 202.153,127.212 203.259 C 128.477 204.365,130.278 205.821,131.215 206.496 C 136.738 210.473,138.493 211.682,139.935 212.501 C 140.820 213.004,141.850 213.602,142.225 213.831 C 145.707 215.953,155.548 220.811,159.137 222.179 C 161.508 223.083,167.574 225.044,169.977 225.683 C 170.383 225.791,171.047 225.976,171.453 226.093 C 171.859 226.210,172.575 226.375,173.045 226.459 C 173.514 226.543,173.954 226.703,174.023 226.813 C 174.091 226.924,176.031 227.015,178.334 227.015 L 182.521 227.015 182.464 179.512 L 182.406 132.009 173.515 131.896 C 168.624 131.833,164.538 131.697,164.434 131.592 C 164.135 131.292,164.347 100.062,164.651 99.695 C 164.831 99.478,165.427 99.405,166.731 99.441 C 167.736 99.469,171.700 99.478,175.539 99.462 L 182.520 99.432 182.518 94.835 C 182.516 90.335,182.663 88.239,183.338 83.201 C 183.814 79.637,184.681 75.263,185.249 73.553 C 185.352 73.241,185.664 72.219,185.942 71.283 C 188.491 62.682,194.309 52.755,199.467 48.205 C 203.106 44.995,203.955 44.323,206.583 42.569 C 220.260 33.444,239.668 31.036,260.353 35.899 C 262.109 36.311,262.171 36.484,261.963 40.409 C 261.867 42.219,261.672 45.948,261.530 48.695 C 261.387 51.442,261.174 55.477,261.055 57.662 C 260.936 59.847,260.773 63.390,260.692 65.535 C 260.611 67.680,260.469 69.559,260.376 69.710 C 260.211 69.977,257.964 69.606,255.959 68.981 C 254.737 68.600,249.665 68.104,246.993 68.104 C 235.860 68.105,228.916 74.195,226.933 85.698 C 226.435 88.586,225.967 98.930,226.318 99.281 C 226.514 99.477,230.115 99.552,240.072 99.568 C 250.636 99.586,253.635 99.653,253.908 99.880 C 254.308 100.211,254.442 131.024,254.047 131.648 C 253.876 131.919,251.734 131.960,240.203 131.915 L 226.561 131.862 226.561 179.439 L 226.561 227.015 227.115 227.015 C 227.420 227.015,227.727 226.920,227.799 226.805 C 227.870 226.690,228.259 226.528,228.663 226.446 C 229.068 226.364,229.705 226.210,230.079 226.103 C 230.454 225.997,231.169 225.803,231.669 225.671 C 233.621 225.157,237.907 223.755,240.068 222.925 C 241.317 222.445,242.849 221.888,243.473 221.686 C 244.098 221.484,245.221 221.028,245.970 220.672 C 251.046 218.260,255.338 216.087,257.066 215.053 C 258.175 214.390,259.121 213.848,259.170 213.848 C 259.295 213.848,265.440 209.871,267.196 208.652 C 272.808 204.760,282.438 196.151,286.017 191.827 C 286.689 191.016,287.879 189.637,288.661 188.763 C 291.598 185.482,295.551 180.034,298.370 175.381 C 298.517 175.138,299.071 174.246,299.599 173.398 C 300.962 171.212,305.294 162.610,306.323 160.045 C 307.449 157.240,307.482 157.159,308.002 155.959 C 308.486 154.843,309.420 152.124,309.875 150.511 C 310.034 149.949,310.402 148.774,310.695 147.900 C 311.341 145.971,311.888 143.974,312.188 142.452 C 312.451 141.119,312.599 140.420,313.384 136.776 C 313.707 135.278,314.082 133.184,314.217 132.123 C 314.353 131.061,314.557 129.529,314.670 128.717 C 314.951 126.713,315.389 118.179,315.406 114.415 C 315.451 103.809,313.530 90.949,310.539 81.839 C 310.293 81.090,310.001 80.170,309.889 79.796 C 309.622 78.902,308.087 74.476,307.842 73.893 C 307.737 73.644,307.497 73.082,307.309 72.645 C 307.121 72.208,306.692 71.186,306.356 70.375 C 304.358 65.548,301.835 60.639,298.748 55.572 C 297.737 53.912,296.788 52.351,296.639 52.104 C 291.067 42.851,278.641 30.005,267.368 21.844 C 265.777 20.693,264.428 19.750,264.370 19.750 C 264.312 19.750,263.111 19.001,261.701 18.086 C 259.293 16.523,258.594 16.104,255.902 14.612 C 255.309 14.283,254.722 13.934,254.597 13.837 C 254.330 13.628,250.283 11.611,248.808 10.951 C 248.246 10.700,247.327 10.290,246.765 10.039 C 245.317 9.394,241.391 7.899,238.593 6.928 C 237.281 6.473,236.056 6.047,235.868 5.982 C 234.344 5.453,230.336 4.240,229.512 4.058 C 228.950 3.934,228.056 3.737,227.526 3.619 C 226.524 3.397,226.207 3.331,222.247 2.525 C 217.109 1.479,216.819 1.433,213.621 1.142 C 212.310 1.023,210.216 0.823,208.967 0.698 C 206.930 0.494,195.403 0.420,193.417 0.598 " stroke="none" fill="#040404" fill-rule="evenodd"></path><path id="path1" d="M0.000 113.507 L 0.000 227.015 86.209 226.994 L 172.418 226.972 170.375 226.316 C 169.251 225.955,168.199 225.658,168.038 225.656 C 167.543 225.650,158.882 222.691,157.435 222.034 C 153.312 220.160,151.807 219.437,147.673 217.347 C 145.176 216.085,142.400 214.577,141.504 213.996 C 140.608 213.415,139.815 212.940,139.743 212.940 C 139.586 212.940,135.693 210.450,135.528 210.244 C 135.465 210.166,134.904 209.749,134.279 209.317 C 131.846 207.633,128.664 205.212,127.216 203.941 C 126.381 203.210,124.820 201.846,123.746 200.912 C 120.345 197.954,113.507 190.820,111.351 187.979 C 110.851 187.321,110.341 186.666,110.216 186.524 C 108.307 184.351,102.484 175.759,100.795 172.622 C 100.130 171.386,99.385 170.017,99.140 169.580 C 98.375 168.217,95.119 161.723,95.119 161.562 C 95.119 161.478,94.764 160.641,94.331 159.702 C 91.944 154.536,89.175 145.606,87.853 138.820 C 87.708 138.070,87.452 136.793,87.286 135.982 C 85.336 126.461,84.998 111.004,86.489 99.546 C 86.900 96.385,87.123 94.989,87.357 94.098 C 87.488 93.598,87.710 92.577,87.849 91.827 C 88.171 90.095,89.411 84.847,89.779 83.655 C 89.933 83.156,90.192 82.287,90.354 81.725 C 92.350 74.803,96.054 66.016,99.780 59.364 C 100.129 58.740,100.617 57.872,100.864 57.435 C 101.111 56.998,101.569 56.180,101.882 55.619 C 102.194 55.057,103.517 53.022,104.820 51.097 C 110.536 42.653,114.050 38.575,123.130 29.846 C 134.657 18.764,155.418 7.425,170.715 3.856 C 171.152 3.754,172.378 3.460,173.439 3.204 C 174.501 2.947,175.931 2.623,176.617 2.485 C 177.304 2.347,178.275 2.147,178.774 2.042 C 179.274 1.937,180.448 1.735,181.385 1.594 C 182.321 1.453,183.598 1.242,184.222 1.125 C 184.847 1.008,186.328 0.805,187.514 0.675 C 188.700 0.544,190.182 0.351,190.806 0.245 C 191.434 0.139,149.090 0.041,95.970 0.027 L 0.000 0.000 0.000 113.507 M210.443 0.241 C 211.005 0.342,212.637 0.536,214.071 0.672 C 215.505 0.808,217.038 1.007,217.477 1.113 C 217.916 1.220,219.041 1.429,219.977 1.578 C 220.914 1.726,222.037 1.935,222.474 2.042 C 222.911 2.150,223.882 2.354,224.631 2.497 C 231.405 3.792,241.498 7.067,248.572 10.267 C 256.218 13.724,267.862 21.014,273.569 25.916 C 274.247 26.498,275.925 27.943,277.299 29.126 C 282.271 33.412,286.813 38.287,292.251 45.176 C 295.053 48.725,300.795 57.373,300.795 58.043 C 300.795 58.107,300.985 58.430,301.218 58.762 C 302.036 59.925,305.735 67.466,306.963 70.474 C 307.221 71.106,307.575 71.949,307.750 72.348 C 308.046 73.024,309.451 76.819,309.876 78.093 C 310.677 80.494,311.555 83.427,311.915 84.904 C 312.022 85.341,312.378 86.720,312.706 87.968 C 313.494 90.962,313.828 92.637,314.403 96.481 C 314.525 97.293,314.788 98.978,314.988 100.227 C 316.102 107.192,316.102 122.883,314.987 129.852 C 314.797 131.039,314.540 132.724,314.416 133.598 C 314.194 135.165,313.959 136.477,313.543 138.479 C 313.426 139.041,313.217 140.050,313.079 140.722 C 312.940 141.394,312.725 142.338,312.600 142.822 C 312.475 143.305,312.264 144.135,312.131 144.665 C 311.513 147.141,308.991 154.968,308.345 156.413 C 308.094 156.975,307.415 158.621,306.836 160.070 C 303.389 168.694,295.766 181.323,289.911 188.110 C 289.467 188.625,288.194 190.107,287.082 191.402 C 284.040 194.945,278.390 200.431,274.685 203.437 C 274.125 203.892,273.046 204.774,272.288 205.398 C 270.258 207.069,267.620 208.994,264.926 210.771 C 261.397 213.100,258.407 214.983,258.239 214.983 C 258.176 214.983,257.569 215.338,256.890 215.773 C 255.764 216.493,249.946 219.396,246.311 221.052 C 244.546 221.855,237.310 224.507,235.074 225.169 C 234.200 225.428,232.514 225.940,231.328 226.306 L 229.171 226.972 314.586 226.993 L 400.000 227.015 400.000 113.507 L 400.000 0.000 304.711 0.028 C 252.301 0.044,209.881 0.140,210.443 0.241 M234.733 34.078 C 233.922 34.185,232.338 34.390,231.215 34.533 C 224.642 35.370,220.804 36.265,217.140 37.815 C 216.765 37.973,215.925 38.313,215.274 38.569 C 208.375 41.280,200.280 47.165,196.472 52.238 C 196.227 52.564,195.609 53.381,195.097 54.054 C 192.109 57.988,189.700 62.514,187.560 68.218 C 186.838 70.144,186.615 70.853,185.688 74.177 C 184.080 79.942,183.453 84.906,183.238 93.569 C 183.155 96.898,183.020 99.690,182.937 99.772 C 182.855 99.854,178.769 99.946,173.857 99.976 L 164.926 100.030 164.868 115.439 C 164.831 125.292,164.890 130.928,165.032 131.071 C 165.171 131.210,168.492 131.280,173.877 131.257 L 182.499 131.221 182.850 131.722 C 183.164 132.171,183.201 137.227,183.201 179.619 L 183.201 227.015 204.540 227.015 L 225.880 227.015 225.880 179.471 C 225.880 137.342,225.919 131.889,226.223 131.585 C 226.606 131.202,252.367 131.151,253.178 131.531 C 253.555 131.707,253.575 130.884,253.575 115.915 L 253.575 100.114 240.196 100.114 C 232.053 100.114,226.589 100.027,226.235 99.892 L 225.653 99.671 225.669 96.771 C 225.757 81.669,228.710 74.261,236.367 69.940 C 241.015 67.317,249.278 66.822,257.094 68.698 C 260.468 69.508,260.125 69.901,260.231 65.096 C 260.326 60.764,260.669 53.577,261.057 47.787 C 261.182 45.914,261.291 43.207,261.299 41.771 C 261.307 40.335,261.404 38.700,261.514 38.138 C 261.782 36.766,261.334 36.490,257.775 35.836 C 257.151 35.721,256.129 35.528,255.505 35.407 C 249.165 34.182,238.910 33.526,234.733 34.078 " stroke="none" fill="#c3c3c3" fill-rule="evenodd"></path><path id="path2" d="M120.079 33.087 L 119.296 33.939 120.148 33.156 C 120.940 32.428,121.103 32.236,120.930 32.236 C 120.892 32.236,120.509 32.619,120.079 33.087 M250.227 68.034 C 250.446 68.091,250.803 68.091,251.022 68.034 C 251.240 67.977,251.061 67.930,250.624 67.930 C 250.187 67.930,250.009 67.977,250.227 68.034 M182.812 90.919 C 182.814 91.544,182.858 91.772,182.910 91.427 C 182.962 91.082,182.961 90.571,182.907 90.292 C 182.853 90.013,182.810 90.295,182.812 90.919 M225.942 93.984 C 225.942 94.546,225.986 94.776,226.040 94.495 C 226.094 94.214,226.094 93.754,226.040 93.473 C 225.986 93.192,225.942 93.422,225.942 93.984 M181.952 99.659 L 181.271 99.833 181.882 99.860 C 182.218 99.874,182.556 99.784,182.633 99.659 C 182.711 99.535,182.742 99.445,182.704 99.459 C 182.665 99.474,182.327 99.564,181.952 99.659 M253.910 115.778 C 253.910 124.205,253.938 127.653,253.973 123.439 C 254.007 119.225,254.007 112.330,253.973 108.116 C 253.938 103.902,253.910 107.350,253.910 115.778 M85.653 112.372 C 85.653 113.059,85.695 113.340,85.747 112.997 C 85.799 112.653,85.799 112.091,85.747 111.748 C 85.695 111.405,85.653 111.686,85.653 112.372 M85.655 118.388 C 85.656 119.137,85.699 119.416,85.749 119.008 C 85.800 118.600,85.799 117.987,85.747 117.646 C 85.695 117.305,85.654 117.639,85.655 118.388 M164.444 128.604 C 164.444 129.977,164.482 130.510,164.527 129.787 C 164.572 129.065,164.571 127.941,164.526 127.290 C 164.480 126.639,164.443 127.230,164.444 128.604 M167.483 131.602 C 167.765 131.656,168.174 131.654,168.391 131.598 C 168.608 131.541,168.377 131.496,167.877 131.499 C 167.378 131.501,167.200 131.548,167.483 131.602 M175.653 131.606 C 176.058 131.656,176.722 131.656,177.128 131.606 C 177.534 131.555,177.202 131.514,176.390 131.514 C 175.579 131.514,175.247 131.555,175.653 131.606 M229.342 131.598 C 229.560 131.655,229.918 131.655,230.136 131.598 C 230.355 131.541,230.176 131.494,229.739 131.494 C 229.302 131.494,229.123 131.541,229.342 131.598 M237.060 131.604 C 237.404 131.656,237.965 131.656,238.309 131.604 C 238.652 131.552,238.371 131.510,237.684 131.510 C 236.998 131.510,236.717 131.552,237.060 131.604 M247.620 131.606 C 248.028 131.657,248.641 131.656,248.982 131.604 C 249.324 131.552,248.990 131.511,248.241 131.512 C 247.491 131.513,247.212 131.556,247.620 131.606 M226.218 179.682 C 226.218 205.778,226.245 216.487,226.277 203.480 C 226.309 190.474,226.309 169.123,226.277 156.034 C 226.245 142.945,226.218 153.587,226.218 179.682 M114.642 191.487 C 115.066 191.924,115.464 192.281,115.526 192.281 C 115.588 192.281,115.293 191.924,114.869 191.487 C 114.446 191.050,114.048 190.692,113.986 190.692 C 113.923 190.692,114.219 191.050,114.642 191.487 " stroke="none" fill="#646464" fill-rule="evenodd"></path><path id="path3" d="M190.692 0.263 C 190.006 0.378,188.729 0.565,187.855 0.679 L 186.266 0.885 188.195 0.768 C 192.402 0.511,194.544 0.311,194.695 0.159 C 194.916 -0.062,192.207 0.008,190.692 0.263 M207.132 0.170 C 207.225 0.264,208.187 0.411,209.270 0.498 C 211.522 0.677,215.522 1.060,217.026 1.239 C 217.919 1.346,217.962 1.333,217.367 1.137 C 216.992 1.014,215.868 0.850,214.869 0.774 C 213.871 0.698,212.134 0.493,211.010 0.319 C 208.785 -0.026,206.862 -0.100,207.132 0.170 M184.336 1.135 C 183.784 1.312,183.787 1.317,184.449 1.317 C 184.824 1.317,185.386 1.235,185.698 1.135 C 186.250 0.958,186.247 0.953,185.585 0.953 C 185.210 0.953,184.648 1.035,184.336 1.135 M180.931 1.627 C 180.369 1.743,179.347 1.945,178.661 2.076 C 175.410 2.695,172.000 3.530,173.780 3.271 C 174.279 3.198,175.148 3.041,175.709 2.921 C 176.856 2.677,177.809 2.496,180.931 1.931 C 182.117 1.716,183.130 1.500,183.182 1.451 C 183.342 1.301,182.009 1.405,180.931 1.627 M218.417 1.466 C 218.474 1.523,219.436 1.738,220.554 1.944 C 222.901 2.375,224.435 2.674,225.880 2.981 C 226.442 3.101,227.208 3.244,227.582 3.300 L 228.263 3.401 227.582 3.172 C 227.208 3.046,226.084 2.787,225.085 2.596 C 224.086 2.405,222.911 2.160,222.474 2.053 C 220.536 1.577,218.188 1.237,218.417 1.466 M171.623 3.632 C 171.341 3.814,171.361 3.852,171.737 3.852 C 171.986 3.852,172.344 3.753,172.531 3.632 C 172.813 3.450,172.794 3.412,172.418 3.412 C 172.168 3.412,171.810 3.511,171.623 3.632 M228.377 3.503 C 228.377 3.556,228.964 3.721,229.682 3.870 C 231.894 4.327,243.439 8.247,245.970 9.402 C 246.345 9.572,247.418 10.042,248.354 10.446 C 261.137 15.959,276.900 27.629,286.837 38.937 C 290.933 43.598,296.914 51.705,299.161 55.641 C 299.404 56.066,300.188 57.435,300.904 58.683 C 302.888 62.145,305.729 68.073,307.378 72.191 C 307.903 73.502,308.421 74.779,308.528 75.028 C 308.805 75.671,310.633 81.283,311.227 83.314 C 311.884 85.559,311.880 85.549,311.900 84.971 C 311.910 84.696,311.826 84.236,311.712 83.949 C 311.599 83.663,311.278 82.662,311.000 81.725 C 310.069 78.588,308.493 74.042,307.750 72.348 C 307.575 71.949,307.221 71.106,306.963 70.474 C 305.735 67.466,302.036 59.925,301.218 58.762 C 300.985 58.430,300.795 58.107,300.795 58.043 C 300.795 57.373,295.053 48.725,292.251 45.176 C 286.813 38.287,282.271 33.412,277.299 29.126 C 275.925 27.943,274.247 26.498,273.569 25.916 C 267.862 21.014,256.218 13.724,248.572 10.267 C 242.200 7.385,228.377 2.755,228.377 3.503 M169.580 4.097 C 169.268 4.201,167.531 4.754,165.721 5.325 C 160.334 7.025,153.512 9.660,153.787 9.935 C 153.849 9.997,154.235 9.891,154.646 9.699 C 155.809 9.156,158.283 8.132,158.910 7.935 C 159.222 7.837,160.499 7.380,161.748 6.920 C 164.019 6.082,166.724 5.183,168.218 4.767 C 170.686 4.081,171.232 3.892,170.715 3.899 C 170.403 3.904,169.892 3.993,169.580 4.097 M150.397 11.378 C 140.360 16.398,129.388 23.830,123.130 29.846 C 114.050 38.575,110.536 42.653,104.820 51.097 C 103.517 53.022,102.180 55.082,101.850 55.675 C 101.185 56.867,100.278 58.486,99.591 59.705 C 97.167 64.005,91.872 75.830,92.217 76.174 C 92.275 76.233,92.968 74.671,93.757 72.703 C 99.789 57.663,108.146 44.981,119.321 33.907 C 122.244 31.011,126.748 26.919,128.289 25.759 C 128.616 25.513,129.892 24.538,131.127 23.591 C 136.760 19.271,142.229 15.846,149.149 12.305 C 151.459 11.124,153.391 10.119,153.443 10.073 C 153.808 9.749,152.737 10.208,150.397 11.378 M237.968 33.766 C 238.686 33.811,239.861 33.811,240.579 33.766 C 241.297 33.721,240.709 33.684,239.274 33.684 C 237.838 33.684,237.250 33.721,237.968 33.766 M233.144 34.052 L 232.123 34.211 233.144 34.228 C 233.706 34.238,234.625 34.164,235.187 34.064 L 236.209 33.882 235.187 33.888 C 234.625 33.891,233.706 33.965,233.144 34.052 M243.814 34.062 C 244.501 34.157,245.726 34.228,246.538 34.221 L 248.014 34.208 246.425 34.045 C 245.551 33.955,244.325 33.883,243.700 33.885 L 242.565 33.889 243.814 34.062 M229.171 34.526 C 228.547 34.634,227.321 34.838,226.447 34.980 C 224.260 35.334,222.404 35.834,223.202 35.853 C 223.539 35.862,224.050 35.775,224.337 35.662 C 224.623 35.548,225.573 35.343,226.447 35.207 C 230.543 34.566,231.833 34.322,231.101 34.326 C 230.664 34.328,229.796 34.418,229.171 34.526 M249.830 34.511 C 250.454 34.630,251.731 34.831,252.667 34.958 C 253.604 35.085,254.932 35.296,255.619 35.427 C 256.305 35.557,257.276 35.705,257.775 35.755 L 258.683 35.845 257.889 35.651 C 255.756 35.129,252.460 34.610,249.943 34.400 L 248.695 34.295 249.830 34.511 M221.453 36.095 L 220.999 36.290 221.453 36.303 C 221.703 36.310,222.060 36.216,222.247 36.095 C 222.699 35.804,222.132 35.804,221.453 36.095 M259.024 36.095 C 259.211 36.216,259.569 36.310,259.818 36.303 L 260.272 36.290 259.818 36.095 C 259.140 35.804,258.573 35.804,259.024 36.095 M219.183 36.807 C 196.045 44.492,183.676 64.103,182.785 94.513 L 182.633 99.696 173.887 99.747 C 169.077 99.775,165.016 99.875,164.863 99.969 C 164.454 100.222,164.460 131.106,164.869 131.371 C 165.026 131.472,168.983 131.537,173.664 131.516 C 179.309 131.490,182.271 131.556,182.461 131.714 C 182.689 131.903,182.747 141.534,182.747 179.483 C 182.747 211.019,182.823 227.015,182.974 227.015 C 183.399 227.015,183.276 132.330,182.850 131.722 L 182.499 131.221 173.877 131.257 C 168.492 131.280,165.171 131.210,165.032 131.071 C 164.890 130.928,164.831 125.292,164.868 115.439 L 164.926 100.030 173.857 99.976 C 178.769 99.946,182.855 99.854,182.937 99.772 C 183.020 99.690,183.155 96.898,183.238 93.569 C 183.437 85.546,183.803 82.209,185.112 76.504 C 185.509 74.774,185.773 73.792,186.612 70.942 C 188.230 65.440,191.713 58.509,195.097 54.054 C 195.609 53.381,196.227 52.564,196.472 52.238 C 200.280 47.165,208.375 41.280,215.274 38.569 C 215.925 38.313,216.765 37.973,217.140 37.815 C 217.514 37.656,218.383 37.343,219.069 37.119 C 220.358 36.698,221.170 36.329,220.772 36.345 C 220.647 36.351,219.932 36.558,219.183 36.807 M260.828 36.573 C 261.133 36.695,261.542 36.917,261.736 37.065 C 261.933 37.217,261.898 37.113,261.656 36.829 C 261.418 36.550,261.010 36.329,260.748 36.337 C 260.314 36.350,260.321 36.371,260.828 36.573 M261.464 38.454 C 261.371 39.064,261.309 40.801,261.326 42.313 L 261.359 45.062 261.558 42.338 C 261.668 40.840,261.730 39.103,261.696 38.479 L 261.635 37.344 261.464 38.454 M260.965 48.865 C 260.466 58.266,260.348 60.874,260.241 64.869 C 260.106 69.930,260.456 69.505,257.094 68.698 C 249.278 66.822,241.015 67.317,236.367 69.940 C 228.710 74.261,225.757 81.669,225.669 96.771 L 225.653 99.671 226.235 99.892 C 226.589 100.027,232.053 100.114,240.196 100.114 L 253.575 100.114 253.575 115.915 C 253.575 130.884,253.555 131.707,253.178 131.531 C 252.367 131.151,226.606 131.202,226.223 131.585 C 225.918 131.889,225.886 137.299,225.935 179.528 L 225.991 227.128 226.105 179.504 C 226.197 141.572,226.278 131.843,226.506 131.702 C 226.775 131.536,251.900 131.539,253.121 131.705 L 253.689 131.782 253.689 115.891 L 253.689 100.000 240.068 99.886 C 232.577 99.824,226.304 99.681,226.129 99.568 C 225.714 99.301,225.953 90.254,226.469 86.720 C 228.759 71.030,239.808 64.792,257.666 69.105 C 258.964 69.419,260.081 69.620,260.149 69.553 C 260.217 69.485,260.342 67.574,260.427 65.305 C 260.512 63.037,260.688 59.137,260.819 56.640 C 261.251 48.418,261.359 45.630,261.247 45.630 C 261.187 45.630,261.060 47.086,260.965 48.865 M91.264 78.818 C 90.864 80.105,90.444 81.392,90.331 81.679 C 90.217 81.966,90.129 82.375,90.134 82.587 C 90.140 82.800,90.497 81.901,90.928 80.590 C 91.359 79.279,91.824 77.867,91.961 77.452 C 92.098 77.037,92.160 76.648,92.100 76.588 C 92.040 76.527,91.664 77.531,91.264 78.818 M89.694 83.916 C 88.624 87.928,88.086 90.249,88.108 90.764 C 88.131 91.297,88.156 91.274,88.310 90.579 C 88.885 87.990,89.294 86.309,89.768 84.587 C 89.970 83.852,90.089 83.203,90.032 83.146 C 89.975 83.088,89.823 83.435,89.694 83.916 M311.938 85.812 C 311.945 85.999,312.038 86.356,312.145 86.606 L 312.340 87.060 312.353 86.606 C 312.360 86.356,312.266 85.999,312.145 85.812 C 311.950 85.509,311.927 85.509,311.938 85.812 M312.481 87.911 C 312.572 88.317,312.743 89.058,312.862 89.557 C 313.184 90.911,313.477 92.346,313.742 93.871 C 314.163 96.290,314.424 97.284,314.279 95.914 C 314.008 93.350,312.708 87.174,312.439 87.174 C 312.371 87.174,312.390 87.506,312.481 87.911 M87.741 92.168 C 87.655 92.560,87.632 92.929,87.690 92.987 C 87.747 93.044,87.860 92.765,87.940 92.367 C 88.129 91.420,87.946 91.237,87.741 92.168 M87.288 94.381 C 87.126 95.003,86.889 96.525,86.482 99.546 C 86.364 100.420,86.224 101.952,86.170 102.951 L 86.073 104.767 86.272 103.178 C 86.784 99.087,87.341 95.207,87.534 94.381 C 87.615 94.038,87.629 93.757,87.565 93.757 C 87.502 93.757,87.377 94.038,87.288 94.381 M314.465 98.070 C 314.467 98.383,314.547 98.944,314.642 99.319 L 314.816 100.000 314.820 99.319 C 314.822 98.944,314.742 98.383,314.642 98.070 L 314.461 97.503 314.465 98.070 M314.885 101.154 C 314.894 101.768,314.993 102.474,315.106 102.724 C 315.237 103.017,315.261 102.654,315.173 101.703 C 315.007 99.909,314.864 99.636,314.885 101.154 M315.489 106.924 C 315.726 114.004,315.559 121.464,315.001 128.717 L 314.904 129.966 315.116 128.831 C 315.759 125.374,316.036 112.893,315.607 106.697 L 315.363 103.178 315.489 106.924 M85.697 107.662 C 85.608 109.207,85.578 110.669,85.631 110.911 C 85.684 111.153,85.809 109.940,85.907 108.215 C 86.006 106.491,86.035 105.029,85.973 104.966 C 85.910 104.904,85.786 106.117,85.697 107.662 M85.647 120.885 C 85.644 121.635,85.714 122.963,85.804 123.837 L 85.967 125.426 85.976 123.950 C 85.981 123.138,85.911 121.810,85.820 120.999 L 85.654 119.523 85.647 120.885 M86.074 126.875 C 86.054 127.672,86.146 129.000,86.278 129.826 C 86.409 130.652,86.622 132.043,86.750 132.917 C 86.879 133.791,87.127 135.068,87.303 135.755 C 87.626 137.022,87.601 136.714,87.153 133.939 C 86.800 131.758,86.456 129.116,86.280 127.242 L 86.109 125.426 86.074 126.875 M314.559 131.189 C 314.472 131.736,314.448 132.231,314.507 132.290 C 314.659 132.442,314.935 130.843,314.817 130.489 C 314.763 130.327,314.647 130.642,314.559 131.189 M313.991 135.074 C 313.823 136.010,313.605 137.083,313.509 137.457 C 313.412 137.832,313.210 138.751,313.061 139.501 C 312.912 140.250,312.681 141.300,312.550 141.834 C 312.418 142.368,312.363 142.859,312.429 142.925 C 312.542 143.038,312.799 142.043,313.313 139.501 C 313.439 138.876,313.637 138.052,313.752 137.668 C 313.867 137.285,313.961 136.713,313.961 136.397 C 313.961 136.081,314.071 135.507,314.206 135.121 C 314.340 134.735,314.416 134.184,314.374 133.895 C 314.332 133.607,314.160 134.137,313.991 135.074 M87.660 137.911 C 87.660 138.161,87.747 138.570,87.855 138.820 L 88.050 139.274 88.050 138.820 C 88.050 138.570,87.962 138.161,87.855 137.911 L 87.660 137.457 87.660 137.911 M88.105 139.815 C 88.092 140.112,88.192 140.776,88.327 141.290 C 88.461 141.804,88.657 142.582,88.761 143.019 C 89.056 144.262,89.679 146.162,89.542 145.403 C 89.349 144.332,88.759 141.729,88.332 140.068 C 88.175 139.457,88.123 139.399,88.105 139.815 M312.062 144.043 C 311.819 145.076,311.231 147.074,310.756 148.483 C 310.521 149.178,310.339 149.893,310.352 150.072 C 310.377 150.428,310.961 148.737,311.836 145.779 C 312.144 144.737,312.357 143.767,312.309 143.624 C 312.261 143.481,312.150 143.669,312.062 144.043 M89.686 146.334 C 89.678 146.471,89.765 146.880,89.881 147.242 C 89.996 147.604,90.514 149.263,91.032 150.929 C 91.550 152.595,92.027 153.906,92.092 153.841 C 92.157 153.776,92.009 153.128,91.764 152.401 C 91.518 151.673,91.041 150.159,90.702 149.035 C 90.027 146.793,89.710 145.950,89.686 146.334 M309.989 150.965 C 309.903 151.233,309.885 151.504,309.947 151.567 C 310.010 151.629,310.130 151.460,310.216 151.192 C 310.301 150.923,310.320 150.653,310.257 150.590 C 310.195 150.528,310.074 150.696,309.989 150.965 M309.412 152.837 C 309.242 153.368,308.816 154.508,308.465 155.371 C 307.800 157.008,307.752 157.794,308.410 156.267 C 308.969 154.971,309.915 152.064,309.811 151.961 C 309.762 151.911,309.582 152.305,309.412 152.837 M92.168 154.265 C 92.168 154.404,93.522 157.895,94.089 159.219 C 94.296 159.700,94.511 160.048,94.568 159.991 C 94.673 159.886,94.340 159.009,93.426 156.981 C 93.145 156.356,92.790 155.463,92.637 154.994 C 92.394 154.249,92.168 153.897,92.168 154.265 M306.921 159.302 C 302.045 172.272,290.598 188.679,278.996 199.326 C 268.859 208.628,254.010 218.140,243.927 221.791 C 243.178 222.062,241.850 222.547,240.976 222.870 C 240.102 223.192,237.957 223.943,236.209 224.540 C 233.030 225.625,232.268 226.077,235.140 225.174 C 237.651 224.384,244.730 221.772,246.311 221.052 C 249.946 219.396,255.764 216.493,256.890 215.773 C 257.569 215.338,258.176 214.983,258.239 214.983 C 258.301 214.983,258.785 214.712,259.312 214.380 C 265.622 210.421,269.168 207.966,272.288 205.398 C 273.046 204.774,274.125 203.892,274.685 203.437 C 278.390 200.431,284.040 194.945,287.082 191.402 C 288.194 190.107,289.467 188.625,289.911 188.110 C 292.740 184.831,297.716 177.664,300.504 172.855 C 303.181 168.237,308.122 157.763,307.784 157.424 C 307.721 157.361,307.333 158.206,306.921 159.302 M94.665 160.329 C 94.665 160.929,96.733 165.080,100.858 172.758 C 102.353 175.542,108.459 184.525,110.216 186.524 C 110.341 186.666,110.851 187.321,111.351 187.979 C 113.507 190.820,120.345 197.954,123.746 200.912 C 124.820 201.846,126.381 203.210,127.216 203.941 C 128.664 205.212,131.846 207.633,134.279 209.317 C 134.904 209.749,135.465 210.166,135.528 210.244 C 135.693 210.450,139.586 212.940,139.743 212.940 C 139.815 212.940,140.608 213.415,141.504 213.996 C 145.588 216.643,161.279 224.041,161.769 223.550 C 161.826 223.494,161.231 223.223,160.448 222.949 C 156.577 221.596,144.765 215.755,140.003 212.840 C 134.464 209.450,129.347 205.536,122.393 199.371 C 113.016 191.058,104.260 179.219,97.347 165.509 C 95.872 162.583,94.665 160.252,94.665 160.329 M162.089 223.713 C 162.089 223.879,167.968 225.698,168.226 225.612 C 168.354 225.569,167.664 225.298,166.693 225.008 C 165.721 224.719,164.722 224.402,164.472 224.304 C 163.109 223.771,162.089 223.518,162.089 223.713 M170.602 226.351 C 172.749 227.041,173.320 227.146,173.114 226.813 C 173.046 226.702,172.656 226.561,172.250 226.500 C 171.843 226.439,170.917 226.224,170.193 226.021 C 168.123 225.442,168.355 225.630,170.602 226.351 M231.215 226.046 C 230.590 226.232,229.746 226.435,229.340 226.497 C 228.933 226.560,228.543 226.702,228.475 226.813 C 228.269 227.146,228.840 227.041,230.988 226.351 C 233.080 225.679,233.259 225.439,231.215 226.046 " stroke="none" fill="#6c6c6c" fill-rule="evenodd"></path><path id="path4" d="M194.892 0.227 C 194.625 0.342,197.099 0.422,200.908 0.422 C 204.717 0.422,207.191 0.342,206.924 0.227 C 206.332 -0.027,195.484 -0.027,194.892 0.227 M190.653 0.569 C 190.589 0.633,189.627 0.781,188.515 0.898 L 186.493 1.111 188.536 0.987 C 189.659 0.919,191.396 0.787,192.395 0.694 L 194.211 0.524 192.490 0.489 C 191.543 0.470,190.716 0.506,190.653 0.569 M209.194 0.689 C 210.068 0.790,211.754 0.920,212.940 0.978 C 214.983 1.077,215.007 1.074,213.394 0.904 C 212.457 0.806,210.772 0.676,209.648 0.615 C 207.736 0.513,207.707 0.517,209.194 0.689 M184.563 1.362 L 183.768 1.529 184.563 1.537 C 185.000 1.541,185.613 1.462,185.925 1.362 L 186.493 1.180 185.925 1.188 C 185.613 1.192,185.000 1.270,184.563 1.362 M215.891 1.354 C 216.453 1.542,218.097 1.665,217.915 1.506 C 217.863 1.461,217.259 1.365,216.572 1.294 C 215.766 1.211,215.525 1.232,215.891 1.354 M181.612 1.816 L 181.044 1.998 181.612 1.994 C 181.924 1.991,182.486 1.911,182.860 1.816 L 183.541 1.643 182.860 1.639 C 182.486 1.636,181.924 1.716,181.612 1.816 M218.729 1.816 C 218.978 1.923,219.438 2.008,219.750 2.005 L 220.318 1.998 219.750 1.816 C 219.438 1.716,218.978 1.631,218.729 1.628 L 218.275 1.621 218.729 1.816 M179.228 2.281 C 178.912 2.424,179.049 2.445,179.682 2.348 C 180.182 2.272,180.633 2.172,180.685 2.127 C 180.880 1.955,179.664 2.083,179.228 2.281 M220.677 2.127 C 220.729 2.172,221.180 2.272,221.680 2.348 C 222.313 2.445,222.450 2.424,222.134 2.281 C 221.698 2.083,220.482 1.955,220.677 2.127 M176.617 2.717 C 176.305 2.817,175.437 3.027,174.688 3.183 C 173.058 3.521,170.987 4.133,171.964 3.988 C 172.338 3.933,173.053 3.789,173.553 3.669 C 174.957 3.332,176.864 2.915,177.866 2.725 L 178.774 2.554 177.980 2.543 C 177.543 2.538,176.930 2.616,176.617 2.717 M223.496 2.748 C 225.921 3.280,226.737 3.441,227.469 3.532 C 227.906 3.587,227.650 3.478,226.901 3.291 C 224.265 2.632,223.598 2.497,223.095 2.523 C 222.804 2.538,222.975 2.634,223.496 2.748 M228.604 3.859 C 228.791 3.980,229.200 4.071,229.512 4.060 L 230.079 4.041 229.512 3.859 C 228.637 3.579,228.170 3.579,228.604 3.859 M170.148 4.313 C 169.861 4.436,169.819 4.508,170.034 4.508 C 170.221 4.508,170.579 4.421,170.829 4.313 C 171.115 4.190,171.157 4.118,170.942 4.118 C 170.755 4.118,170.397 4.206,170.148 4.313 M230.533 4.313 C 230.783 4.421,231.141 4.508,231.328 4.508 C 231.543 4.508,231.501 4.436,231.215 4.313 C 230.965 4.206,230.607 4.118,230.420 4.118 C 230.205 4.118,230.247 4.190,230.533 4.313 M168.331 4.759 C 168.082 4.862,167.418 5.071,166.856 5.225 C 165.515 5.590,164.173 6.103,164.518 6.118 C 164.668 6.124,165.026 6.038,165.313 5.926 C 165.600 5.814,166.294 5.595,166.856 5.439 C 168.710 4.924,169.700 4.562,169.240 4.566 C 168.990 4.569,168.581 4.655,168.331 4.759 M234.620 5.573 C 235.494 5.871,236.295 6.090,236.399 6.059 C 236.651 5.984,233.742 4.989,233.341 5.012 C 233.170 5.022,233.746 5.274,234.620 5.573 M236.803 6.232 C 236.860 6.289,237.822 6.653,238.941 7.043 C 243.438 8.606,245.815 9.572,249.915 11.499 C 252.646 12.783,253.375 13.043,251.873 12.195 C 251.051 11.732,250.036 11.257,246.685 9.765 C 243.810 8.486,236.412 5.841,236.803 6.232 M161.862 6.853 C 161.217 7.124,160.768 7.302,159.478 7.799 C 158.978 7.992,158.672 8.154,158.797 8.160 C 159.058 8.172,162.804 6.851,162.965 6.690 C 163.154 6.502,162.448 6.606,161.862 6.853 M156.186 9.041 C 155.749 9.259,154.801 9.677,154.078 9.970 C 153.356 10.263,152.804 10.542,152.853 10.590 C 152.959 10.697,156.890 9.095,157.196 8.820 C 157.553 8.500,157.049 8.611,156.186 9.041 M149.262 12.283 C 128.362 22.888,110.616 39.885,100.106 59.364 C 98.862 61.671,99.766 60.422,101.257 57.775 C 103.373 54.018,109.460 44.957,110.330 44.268 C 110.409 44.205,110.887 43.627,111.392 42.982 C 113.868 39.818,122.236 31.177,125.432 28.483 C 129.994 24.637,132.990 22.377,137.457 19.413 C 140.400 17.460,144.059 15.210,144.291 15.210 C 144.346 15.210,144.817 14.941,145.339 14.611 C 145.860 14.282,147.697 13.308,149.421 12.448 C 152.055 11.132,152.856 10.669,152.497 10.670 C 152.466 10.670,151.010 11.396,149.262 12.283 M252.894 12.807 C 252.894 12.897,255.717 14.547,256.186 14.732 C 256.311 14.781,256.700 15.022,257.051 15.267 C 257.401 15.513,257.739 15.663,257.801 15.601 C 257.897 15.505,253.242 12.713,252.985 12.713 C 252.935 12.713,252.894 12.755,252.894 12.807 M258.124 15.736 C 258.293 15.921,264.260 19.750,264.379 19.750 C 264.509 19.750,269.967 23.706,271.419 24.852 C 277.179 29.400,284.314 36.253,288.324 41.090 C 290.267 43.434,295.954 50.967,296.639 52.104 C 296.788 52.351,297.752 53.933,298.781 55.619 C 299.811 57.304,301.108 59.552,301.663 60.613 C 302.939 63.050,303.396 63.567,302.265 61.294 C 298.825 54.380,292.389 45.188,286.145 38.274 C 281.842 33.508,279.960 31.722,273.211 26.002 C 271.881 24.874,266.748 21.071,265.040 19.948 C 261.594 17.681,257.780 15.359,258.124 15.736 M233.485 33.711 C 222.230 34.888,214.068 37.576,206.583 42.569 C 203.955 44.323,203.106 44.995,199.467 48.205 C 194.309 52.755,188.491 62.682,185.942 71.283 C 185.664 72.219,185.352 73.241,185.249 73.553 C 184.681 75.263,183.814 79.637,183.338 83.201 C 182.663 88.239,182.516 90.335,182.518 94.835 L 182.520 99.432 175.539 99.462 C 171.700 99.478,167.736 99.469,166.731 99.441 C 165.427 99.405,164.831 99.478,164.651 99.695 C 164.347 100.062,164.135 131.292,164.434 131.592 C 164.538 131.697,168.624 131.833,173.515 131.896 L 182.406 132.009 182.521 179.569 L 182.635 227.128 182.691 179.525 C 182.735 141.641,182.689 131.886,182.463 131.742 C 182.307 131.643,178.280 131.560,173.515 131.559 C 168.750 131.557,164.766 131.470,164.662 131.366 C 164.474 131.178,164.542 100.094,164.731 99.897 C 164.785 99.841,168.733 99.761,173.504 99.721 C 178.276 99.681,182.307 99.603,182.463 99.547 C 182.676 99.472,182.747 98.389,182.747 95.183 C 182.747 91.165,183.281 84.570,183.877 81.215 C 184.005 80.497,184.202 79.373,184.316 78.717 C 185.552 71.613,189.830 60.712,193.133 56.250 C 193.714 55.466,194.876 53.904,195.716 52.780 C 205.641 39.492,224.728 32.303,245.743 33.937 C 251.704 34.400,254.605 34.830,259.614 35.993 C 262.157 36.583,262.012 35.977,261.529 44.041 C 261.413 45.976,261.210 49.858,261.078 52.667 C 260.947 55.477,260.735 59.154,260.608 60.840 C 260.482 62.526,260.380 65.150,260.382 66.672 C 260.387 69.985,260.517 69.868,257.628 69.139 C 256.361 68.820,255.110 68.565,254.847 68.573 C 254.343 68.589,255.479 68.909,258.423 69.579 C 260.654 70.087,260.511 70.340,260.692 65.535 C 260.773 63.390,260.936 59.847,261.055 57.662 C 261.174 55.477,261.387 51.442,261.530 48.695 C 261.672 45.948,261.867 42.219,261.963 40.409 C 262.171 36.484,262.109 36.311,260.353 35.899 C 251.171 33.740,241.071 32.918,233.485 33.711 M98.085 63.125 C 97.430 64.384,96.940 65.461,96.997 65.518 C 97.053 65.574,97.622 64.576,98.261 63.301 C 98.899 62.025,99.389 60.948,99.349 60.908 C 99.309 60.868,98.740 61.865,98.085 63.125 M303.105 63.280 C 303.148 63.374,303.424 63.961,303.719 64.586 C 304.927 67.139,305.957 69.396,306.235 70.098 C 306.398 70.508,306.586 70.789,306.652 70.722 C 306.719 70.655,306.658 70.371,306.517 70.090 C 306.377 69.810,305.911 68.805,305.483 67.858 C 304.224 65.076,303.252 63.110,303.136 63.110 C 303.076 63.110,303.062 63.187,303.105 63.280 M95.825 67.903 C 95.299 69.041,94.909 70.013,94.958 70.062 C 95.006 70.111,95.473 69.215,95.994 68.071 C 96.515 66.927,96.905 65.955,96.861 65.912 C 96.818 65.868,96.351 66.764,95.825 67.903 M245.460 68.046 C 246.302 68.089,247.682 68.089,248.524 68.046 C 249.367 68.002,248.678 67.966,246.992 67.966 C 245.306 67.966,244.617 68.002,245.460 68.046 M241.998 68.331 L 241.430 68.513 241.998 68.509 C 242.310 68.507,242.872 68.427,243.246 68.331 L 243.927 68.158 243.246 68.154 C 242.872 68.152,242.310 68.231,241.998 68.331 M250.416 68.189 C 250.468 68.235,251.379 68.330,252.440 68.400 C 253.818 68.491,254.110 68.470,253.462 68.329 C 252.564 68.133,250.233 68.026,250.416 68.189 M238.844 69.144 C 232.303 71.595,228.278 77.068,226.673 85.698 C 226.301 87.696,225.744 98.180,225.963 99.054 C 226.170 99.875,226.367 99.886,240.638 99.886 L 253.750 99.886 253.886 100.397 C 254.132 101.312,254.048 130.682,253.798 131.339 C 253.572 131.933,253.538 131.943,252.266 131.766 C 250.620 131.537,227.532 131.493,226.844 131.718 L 226.334 131.884 226.390 179.506 L 226.446 227.128 226.504 179.495 L 226.562 131.862 240.203 131.915 C 251.734 131.960,253.876 131.919,254.047 131.648 C 254.442 131.024,254.308 100.211,253.908 99.880 C 253.635 99.653,250.636 99.586,240.072 99.568 C 230.115 99.552,226.514 99.477,226.318 99.281 C 225.967 98.930,226.435 88.586,226.933 85.698 C 228.443 76.941,233.047 71.068,240.018 69.010 C 240.795 68.781,241.175 68.595,240.863 68.597 C 240.551 68.599,239.642 68.846,238.844 69.144 M94.446 71.105 C 94.062 72.125,93.861 72.624,93.461 73.553 C 92.616 75.517,92.397 76.127,92.499 76.230 C 92.560 76.290,92.714 76.064,92.842 75.727 C 92.970 75.390,93.290 74.584,93.553 73.936 C 93.816 73.288,94.123 72.528,94.235 72.247 C 94.347 71.967,94.557 71.481,94.703 71.169 C 94.849 70.858,94.914 70.548,94.847 70.481 C 94.781 70.415,94.600 70.695,94.446 71.105 M306.697 71.141 C 306.697 71.406,307.421 72.904,307.508 72.818 C 307.627 72.699,306.974 71.056,306.807 71.056 C 306.747 71.056,306.697 71.094,306.697 71.141 M307.612 73.337 C 307.608 73.531,307.689 73.786,307.793 73.905 C 307.896 74.023,308.117 74.555,308.283 75.086 C 308.450 75.618,308.628 76.010,308.680 75.959 C 308.786 75.853,308.145 73.885,307.828 73.344 C 307.642 73.024,307.618 73.024,307.612 73.337 M308.884 76.731 C 308.961 77.043,309.163 77.605,309.333 77.980 C 309.582 78.527,309.616 78.549,309.504 78.093 C 309.428 77.781,309.225 77.219,309.055 76.844 C 308.806 76.298,308.772 76.275,308.884 76.731 M91.291 79.600 C 90.748 81.283,90.345 82.702,90.396 82.754 C 90.448 82.805,90.933 81.468,91.474 79.783 C 92.016 78.098,92.418 76.679,92.369 76.630 C 92.320 76.581,91.835 77.917,91.291 79.600 M309.660 78.872 C 309.653 78.988,309.750 79.396,309.875 79.780 C 310.985 83.187,311.219 83.842,311.227 83.571 C 311.243 83.066,309.686 78.397,309.660 78.872 M90.028 83.671 C 89.944 84.004,89.927 84.327,89.989 84.390 C 90.052 84.452,90.171 84.231,90.255 83.898 C 90.338 83.565,90.355 83.242,90.293 83.180 C 90.230 83.117,90.111 83.338,90.028 83.671 M311.257 84.222 C 311.264 84.410,311.357 84.767,311.464 85.017 L 311.659 85.471 311.672 85.017 C 311.679 84.767,311.585 84.410,311.464 84.222 C 311.269 83.920,311.246 83.920,311.257 84.222 M89.619 85.244 C 89.551 85.619,89.330 86.517,89.129 87.241 C 88.927 87.966,88.770 88.681,88.779 88.831 C 88.787 88.981,88.942 88.593,89.122 87.968 C 89.303 87.344,89.563 86.462,89.702 86.008 C 89.840 85.554,89.906 85.044,89.848 84.873 C 89.790 84.703,89.687 84.869,89.619 85.244 M311.711 85.925 C 311.704 86.175,311.797 86.532,311.918 86.720 C 312.210 87.171,312.210 86.604,311.918 85.925 L 311.723 85.471 311.711 85.925 M312.254 87.741 C 312.428 88.967,312.824 90.413,312.720 89.444 C 312.674 89.007,312.528 88.292,312.397 87.855 C 312.186 87.153,312.169 87.140,312.254 87.741 M88.450 89.793 C 88.372 89.996,88.318 90.383,88.329 90.654 C 88.344 91.003,88.414 90.924,88.569 90.384 C 88.795 89.598,88.702 89.136,88.450 89.793 M312.978 91.146 C 313.150 92.269,313.281 92.460,313.277 91.582 C 313.275 91.217,313.176 90.766,313.056 90.579 C 312.908 90.347,312.884 90.528,312.978 91.146 M88.110 91.714 C 88.091 91.901,88.019 92.310,87.949 92.622 C 87.841 93.113,87.858 93.135,88.081 92.786 C 88.223 92.564,88.295 92.155,88.241 91.878 C 88.187 91.600,88.128 91.527,88.110 91.714 M313.435 93.303 C 313.510 93.865,313.607 94.367,313.652 94.419 C 313.823 94.616,313.693 93.169,313.501 92.736 C 313.367 92.432,313.345 92.621,313.435 93.303 M87.662 94.022 C 87.643 94.355,87.569 94.815,87.497 95.044 C 87.374 95.437,87.381 95.438,87.625 95.057 C 87.767 94.835,87.841 94.375,87.790 94.035 L 87.696 93.417 87.662 94.022 M313.780 95.346 C 313.780 95.658,313.861 96.169,313.961 96.481 L 314.143 97.049 314.143 96.481 C 314.143 96.169,314.061 95.658,313.961 95.346 L 313.780 94.779 313.780 95.346 M87.092 96.879 C 87.016 97.596,86.910 98.848,86.855 99.659 L 86.755 101.135 86.955 99.773 C 87.292 97.478,87.469 95.573,87.346 95.573 C 87.281 95.573,87.167 96.161,87.092 96.879 M314.211 98.203 C 314.223 98.567,314.320 99.120,314.427 99.432 C 314.557 99.815,314.577 99.630,314.488 98.865 C 314.341 97.588,314.177 97.196,314.211 98.203 M314.790 101.703 C 314.852 102.514,314.983 104.557,315.083 106.243 L 315.263 109.308 315.188 106.129 C 315.146 104.381,315.014 102.338,314.895 101.589 L 314.678 100.227 314.790 101.703 M86.422 101.708 C 86.339 102.017,86.282 102.577,86.294 102.951 C 86.311 103.494,86.356 103.426,86.516 102.611 C 86.736 101.495,86.664 100.804,86.422 101.708 M85.959 108.136 C 85.858 109.614,85.825 110.873,85.885 110.932 C 86.036 111.084,86.328 106.964,86.225 106.129 C 86.179 105.755,86.059 106.658,85.959 108.136 M315.437 114.162 C 315.437 116.832,315.508 118.619,315.594 118.135 C 315.792 117.026,315.787 111.952,315.587 110.443 C 315.505 109.818,315.437 111.492,315.437 114.162 M85.664 115.323 C 85.664 116.385,85.703 116.819,85.751 116.288 C 85.799 115.758,85.799 114.889,85.751 114.359 C 85.703 113.828,85.664 114.262,85.664 115.323 M315.038 123.156 C 314.953 125.403,314.839 127.855,314.785 128.604 L 314.685 129.966 314.899 128.604 C 315.149 127.015,315.399 121.298,315.276 119.977 C 315.230 119.478,315.123 120.908,315.038 123.156 M85.978 122.361 C 86.044 123.797,86.137 125.014,86.182 125.066 C 86.336 125.241,86.228 122.033,86.041 120.885 C 85.920 120.139,85.898 120.645,85.978 122.361 M86.292 127.374 C 86.307 127.926,86.403 128.683,86.505 129.058 C 86.622 129.487,86.643 129.152,86.563 128.150 C 86.420 126.346,86.252 125.866,86.292 127.374 M86.849 131.101 C 86.902 131.850,87.042 133.025,87.159 133.712 L 87.373 134.960 87.264 133.598 C 87.204 132.849,87.065 131.674,86.954 130.988 L 86.752 129.739 86.849 131.101 M314.341 130.736 C 314.257 131.155,314.200 131.818,314.215 132.208 C 314.233 132.697,314.305 132.534,314.446 131.682 C 314.673 130.318,314.584 129.522,314.341 130.736 M313.861 134.292 C 313.775 134.747,313.756 135.171,313.819 135.234 C 313.881 135.296,314.002 134.974,314.088 134.519 C 314.173 134.063,314.192 133.639,314.129 133.577 C 314.067 133.515,313.946 133.836,313.861 134.292 M87.543 135.982 C 87.727 137.253,87.856 137.435,87.851 136.417 C 87.849 135.990,87.746 135.488,87.621 135.301 C 87.463 135.063,87.439 135.268,87.543 135.982 M313.535 136.095 C 313.516 136.345,313.449 136.805,313.384 137.117 L 313.268 137.684 313.511 137.128 C 313.644 136.821,313.712 136.362,313.662 136.106 C 313.572 135.653,313.568 135.653,313.535 136.095 M87.874 137.798 C 87.881 137.985,87.974 138.343,88.082 138.593 L 88.277 139.047 88.289 138.593 C 88.296 138.343,88.203 137.985,88.082 137.798 C 87.886 137.495,87.863 137.495,87.874 137.798 M312.995 138.479 C 312.916 138.916,312.743 139.784,312.611 140.409 C 312.479 141.033,312.321 141.952,312.261 142.452 C 312.201 142.951,312.310 142.645,312.503 141.771 C 312.696 140.897,312.961 139.815,313.091 139.368 C 313.222 138.920,313.285 138.359,313.233 138.119 C 313.169 137.825,313.092 137.941,312.995 138.479 M88.328 139.955 C 88.321 140.204,88.415 140.562,88.536 140.749 C 88.827 141.200,88.827 140.633,88.536 139.955 L 88.341 139.501 88.328 139.955 M88.863 141.998 C 88.959 142.661,89.197 143.676,89.636 145.289 C 89.754 145.726,89.862 145.887,89.875 145.646 C 89.887 145.405,89.801 144.894,89.682 144.511 C 89.563 144.128,89.308 143.252,89.115 142.565 C 88.922 141.879,88.809 141.623,88.863 141.998 M311.846 143.787 C 311.761 144.010,311.698 144.362,311.706 144.570 C 311.715 144.821,311.794 144.764,311.939 144.401 C 312.060 144.099,312.123 143.747,312.080 143.618 C 312.037 143.489,311.932 143.565,311.846 143.787 M311.367 145.646 C 311.283 145.979,311.259 146.295,311.312 146.348 C 311.366 146.402,311.478 146.173,311.562 145.841 C 311.645 145.508,311.670 145.192,311.616 145.139 C 311.563 145.085,311.450 145.313,311.367 145.646 M89.914 146.354 C 89.965 146.944,90.320 147.444,90.336 146.949 C 90.345 146.675,90.250 146.388,90.125 146.311 C 90.000 146.234,89.905 146.253,89.914 146.354 M310.570 148.298 C 310.285 149.203,309.962 150.178,309.850 150.465 C 309.739 150.752,309.656 151.160,309.666 151.373 C 309.684 151.769,309.925 151.122,310.776 148.385 C 311.042 147.527,311.221 146.787,311.173 146.739 C 311.126 146.691,310.854 147.393,310.570 148.298 M90.812 149.319 C 90.824 149.661,91.922 152.659,91.931 152.374 C 91.943 152.010,91.028 149.149,90.900 149.149 C 90.848 149.149,90.809 149.225,90.812 149.319 M92.152 153.374 C 92.437 154.324,92.818 155.201,92.831 154.938 C 92.846 154.634,92.291 153.055,92.104 152.868 C 92.022 152.786,92.044 153.014,92.152 153.374 M308.513 154.562 C 308.513 154.709,308.296 155.292,308.030 155.857 C 307.764 156.422,307.598 156.935,307.660 156.998 C 307.722 157.060,308.004 156.541,308.286 155.846 C 308.568 155.150,308.735 154.516,308.656 154.438 C 308.577 154.359,308.513 154.415,308.513 154.562 M92.913 155.562 C 94.234 158.901,94.766 160.084,94.842 159.856 C 94.893 159.702,94.840 159.452,94.723 159.300 C 94.607 159.148,94.177 158.181,93.768 157.151 C 93.359 156.121,92.974 155.278,92.913 155.278 C 92.851 155.278,92.851 155.406,92.913 155.562 M306.238 160.284 C 305.829 161.299,304.846 163.414,304.052 164.984 C 303.259 166.555,302.648 167.877,302.694 167.923 C 302.740 167.968,303.501 166.547,304.386 164.763 C 306.016 161.481,307.220 158.677,307.066 158.523 C 307.020 158.477,306.647 159.269,306.238 160.284 M95.355 161.242 C 95.340 161.541,97.166 165.339,97.274 165.231 C 97.330 165.175,96.923 164.215,96.370 163.098 C 95.817 161.981,95.360 161.146,95.355 161.242 M97.420 165.607 C 99.689 171.516,108.777 184.984,115.184 191.934 C 120.285 197.465,120.957 198.113,127.371 203.676 C 130.244 206.168,137.126 211.164,139.501 212.481 C 140.000 212.758,140.759 213.198,141.187 213.460 C 141.615 213.721,141.893 213.819,141.805 213.677 C 141.718 213.536,140.900 213.007,139.987 212.504 C 138.499 211.682,136.828 210.538,131.215 206.496 C 130.278 205.821,128.477 204.365,127.212 203.259 C 125.946 202.153,124.210 200.640,123.352 199.897 C 118.751 195.908,111.073 187.268,107.378 181.923 C 103.674 176.564,101.671 173.307,99.414 168.970 C 98.042 166.334,97.068 164.691,97.420 165.607 M301.484 170.018 C 300.973 171.034,300.124 172.557,299.596 173.402 C 299.069 174.248,298.517 175.138,298.370 175.381 C 295.551 180.034,291.598 185.482,288.661 188.763 C 287.879 189.637,286.689 191.016,286.017 191.827 C 282.438 196.151,272.808 204.760,267.196 208.652 C 265.440 209.871,259.295 213.848,259.170 213.848 C 259.121 213.848,258.175 214.390,257.066 215.053 C 255.338 216.087,251.046 218.260,245.970 220.672 C 245.221 221.028,244.098 221.484,243.473 221.686 C 242.849 221.888,241.317 222.444,240.068 222.923 C 238.820 223.401,237.338 223.948,236.776 224.137 C 236.215 224.327,235.909 224.490,236.096 224.500 C 236.429 224.517,237.741 224.067,240.976 222.824 C 241.850 222.489,243.025 222.062,243.587 221.876 C 252.462 218.942,269.735 207.996,278.307 199.874 C 279.375 198.861,280.863 197.486,281.612 196.817 C 282.361 196.148,283.331 195.197,283.768 194.703 C 284.205 194.209,285.660 192.568,287.000 191.057 C 290.022 187.649,295.146 180.942,297.060 177.889 C 300.541 172.336,302.727 168.486,302.518 168.277 C 302.460 168.219,301.994 169.002,301.484 170.018 M142.565 214.304 C 144.301 215.668,160.279 223.225,160.647 222.856 C 160.697 222.807,160.114 222.539,159.353 222.262 C 156.793 221.328,146.172 216.192,143.616 214.651 C 142.147 213.766,141.687 213.614,142.565 214.304 M160.985 223.035 C 161.175 223.226,166.681 224.995,166.779 224.897 C 166.866 224.810,161.368 222.928,161.027 222.928 C 160.945 222.928,160.926 222.977,160.985 223.035 M167.423 225.199 C 168.102 225.490,168.669 225.490,168.218 225.199 C 168.031 225.078,167.673 224.984,167.423 224.991 L 166.969 225.004 167.423 225.199 M169.694 225.775 C 171.950 226.488,172.230 226.560,172.661 226.537 C 172.902 226.525,172.741 226.417,172.304 226.298 C 169.625 225.571,168.050 225.255,169.694 225.775 M231.942 225.568 C 231.864 225.646,231.413 225.793,230.940 225.894 C 229.082 226.289,228.027 226.596,227.821 226.801 C 227.541 227.079,228.022 227.085,228.550 226.810 C 228.767 226.697,229.353 226.500,229.852 226.373 C 231.761 225.885,233.012 225.453,232.558 225.440 C 232.298 225.432,232.021 225.490,231.942 225.568 M173.326 226.788 C 173.403 226.913,173.619 227.015,173.807 227.015 C 173.994 227.015,174.084 226.913,174.007 226.788 C 173.930 226.663,173.713 226.561,173.526 226.561 C 173.339 226.561,173.249 226.663,173.326 226.788 " stroke="none" fill="#5c5c5c" fill-rule="evenodd"></path></g></svg>