<svg id="svg" version="1.1" xmlns="http://www.w3.org/2000/svg" xmlns:xlink="http://www.w3.org/1999/xlink" width="400" height="351.5151515151515" viewBox="0, 0, 400,351.5151515151515"><g id="svgg"><path id="path0" d="M203.255 48.046 C 202.599 48.402,200.330 48.688,196.218 48.934 C 191.859 49.194,189.704 49.476,188.566 49.934 C 187.696 50.286,185.781 50.676,184.312 50.802 C 182.843 50.928,181.070 51.322,180.373 51.677 C 179.675 52.033,178.000 52.433,176.651 52.566 C 175.202 52.709,174.025 53.016,173.776 53.316 C 173.544 53.595,172.622 54.057,171.726 54.342 C 170.281 54.802,168.969 55.274,162.947 57.500 C 162.110 57.809,159.124 59.167,156.312 60.517 C 153.500 61.868,151.137 62.973,151.062 62.973 C 150.321 62.973,140.635 68.847,136.993 71.504 C 135.734 72.423,134.616 73.175,134.509 73.175 C 132.612 73.175,114.135 90.499,110.179 95.985 C 109.853 96.437,109.262 97.150,108.864 97.568 C 108.071 98.404,104.869 102.547,104.310 103.461 C 104.116 103.777,103.206 105.040,102.287 106.266 C 101.368 107.493,100.616 108.677,100.616 108.899 C 100.616 109.120,100.299 109.588,99.912 109.938 C 99.525 110.289,99.208 110.724,99.208 110.906 C 99.208 111.088,98.853 111.736,98.418 112.347 C 97.493 113.645,96.713 114.993,95.698 117.048 C 95.296 117.862,94.825 118.616,94.651 118.724 C 94.477 118.831,94.142 119.511,93.906 120.234 C 93.670 120.956,93.184 121.925,92.825 122.387 C 92.466 122.848,92.172 123.500,92.172 123.835 C 92.172 124.169,91.866 124.833,91.491 125.310 C 91.116 125.787,90.707 126.639,90.582 127.205 C 90.231 128.801,89.654 130.167,89.331 130.167 C 89.170 130.167,88.937 130.761,88.813 131.486 C 88.690 132.212,88.299 133.218,87.945 133.722 C 87.591 134.226,87.132 135.559,86.924 136.683 C 86.716 137.808,86.308 138.991,86.019 139.311 C 85.729 139.631,85.391 140.673,85.269 141.626 C 85.146 142.580,84.753 143.847,84.396 144.442 C 84.024 145.064,83.609 146.758,83.423 148.419 C 83.237 150.081,82.873 151.568,82.569 151.910 C 82.216 152.307,81.955 153.686,81.789 156.025 C 81.623 158.370,81.289 160.129,80.788 161.302 C 79.692 163.864,79.601 199.016,80.686 200.672 C 81.145 201.372,81.439 202.821,81.683 205.582 C 81.892 207.954,82.241 209.830,82.567 210.339 C 82.864 210.801,83.250 212.343,83.427 213.765 C 83.603 215.187,84.042 216.867,84.401 217.498 C 84.760 218.129,85.147 219.498,85.260 220.541 C 85.374 221.583,85.709 222.704,86.006 223.032 C 86.303 223.360,86.717 224.558,86.928 225.695 C 87.138 226.831,87.612 228.145,87.982 228.616 C 88.352 229.086,88.654 229.893,88.654 230.410 C 88.654 230.927,89.050 231.886,89.534 232.542 C 90.018 233.197,90.413 234.078,90.413 234.498 C 90.413 234.918,90.707 235.639,91.066 236.100 C 91.425 236.562,91.908 237.520,92.139 238.230 C 92.371 238.941,92.779 239.703,93.047 239.926 C 93.315 240.148,93.635 240.787,93.757 241.345 C 93.880 241.903,94.264 242.723,94.611 243.167 C 94.958 243.612,95.361 244.371,95.507 244.855 C 95.652 245.339,96.049 246.051,96.388 246.438 C 96.728 246.825,97.101 247.547,97.217 248.043 C 97.334 248.538,97.830 249.409,98.319 249.978 C 98.808 250.546,99.208 251.211,99.208 251.455 C 99.208 251.698,99.525 252.169,99.912 252.500 C 100.299 252.832,100.616 253.283,100.616 253.504 C 100.616 253.724,101.091 254.503,101.671 255.233 C 102.252 255.964,102.726 256.782,102.726 257.052 C 102.726 257.321,102.943 257.625,103.207 257.726 C 103.733 257.928,107.142 262.066,107.780 263.279 C 108.000 263.696,108.459 264.352,108.801 264.736 C 109.143 265.121,109.855 265.919,110.384 266.511 C 110.913 267.103,112.375 268.765,113.632 270.204 C 116.808 273.839,126.268 283.138,127.742 284.074 C 130.550 285.856,131.730 286.713,133.326 288.127 C 133.872 288.610,134.976 289.402,135.779 289.886 C 136.582 290.369,137.763 291.161,138.405 291.645 C 139.046 292.128,140.231 292.920,141.039 293.404 C 141.846 293.887,143.649 295.006,145.044 295.888 C 148.920 298.341,160.561 303.954,163.588 304.831 C 164.072 304.971,165.101 305.373,165.875 305.724 C 167.536 306.478,170.050 307.329,172.735 308.046 C 173.799 308.331,175.620 308.869,176.781 309.241 C 177.942 309.614,179.604 310.017,180.475 310.137 C 181.346 310.257,182.936 310.645,184.008 311.000 C 185.080 311.355,186.980 311.748,188.230 311.874 C 189.479 311.999,192.164 312.442,194.195 312.859 C 199.363 313.920,226.700 314.021,231.275 312.996 C 232.803 312.653,235.732 312.218,237.783 312.028 C 239.834 311.839,242.114 311.448,242.848 311.159 C 243.582 310.871,245.280 310.479,246.621 310.289 C 247.962 310.099,249.973 309.639,251.091 309.268 C 252.208 308.896,253.737 308.488,254.489 308.361 C 255.241 308.234,256.426 307.824,257.123 307.451 C 257.819 307.078,258.764 306.772,259.223 306.772 C 259.681 306.772,260.844 306.376,261.807 305.893 C 262.770 305.409,263.717 305.013,263.910 305.013 C 264.392 305.013,270.658 302.315,273.175 301.023 C 273.562 300.825,274.354 300.444,274.934 300.177 C 275.515 299.909,276.306 299.513,276.693 299.295 C 277.080 299.077,278.072 298.537,278.898 298.093 C 279.723 297.650,281.230 296.673,282.245 295.923 C 283.261 295.173,284.445 294.447,284.878 294.309 C 285.310 294.172,285.664 293.925,285.664 293.760 C 285.664 293.596,286.258 293.098,286.983 292.654 C 287.709 292.210,288.512 291.643,288.767 291.394 C 289.023 291.145,289.430 290.941,289.671 290.941 C 289.913 290.941,290.433 290.585,290.828 290.150 C 291.610 289.285,292.315 288.676,295.002 286.544 C 299.104 283.290,305.301 277.072,308.707 272.792 C 309.288 272.063,310.000 271.207,310.290 270.891 C 311.251 269.843,313.105 267.415,313.105 267.205 C 313.105 267.091,313.896 265.978,314.864 264.732 C 315.831 263.485,316.626 262.342,316.629 262.191 C 316.637 261.858,318.522 258.956,319.206 258.223 C 319.478 257.933,319.821 257.300,319.968 256.816 C 320.116 256.332,320.611 255.489,321.068 254.942 C 321.526 254.395,321.900 253.753,321.900 253.515 C 321.900 253.278,322.296 252.547,322.779 251.891 C 323.263 251.235,323.659 250.477,323.659 250.206 C 323.659 249.935,323.977 249.266,324.365 248.721 C 324.754 248.175,325.169 247.244,325.287 246.651 C 325.406 246.059,325.723 245.392,325.991 245.169 C 326.260 244.945,326.724 243.926,327.021 242.903 C 327.318 241.881,327.791 240.853,328.073 240.620 C 328.354 240.386,328.584 239.842,328.584 239.411 C 328.584 238.980,328.961 237.917,329.423 237.050 C 329.884 236.182,330.374 234.810,330.510 234.000 C 330.647 233.190,330.986 232.301,331.264 232.023 C 331.541 231.746,331.937 230.606,332.143 229.491 C 332.349 228.376,332.798 226.904,333.140 226.220 C 333.482 225.537,333.869 224.035,333.999 222.882 C 334.130 221.729,334.471 220.526,334.758 220.209 C 335.056 219.880,335.444 218.284,335.661 216.500 C 335.870 214.778,336.321 212.735,336.664 211.961 C 337.055 211.077,337.363 209.235,337.491 207.006 C 337.603 205.055,337.957 202.759,338.278 201.905 C 339.560 198.493,339.599 167.583,338.326 163.764 C 338.004 162.797,337.656 161.451,337.554 160.774 C 337.452 160.097,337.250 159.355,337.104 159.127 C 336.902 158.810,322.126 158.684,275.104 158.599 L 213.369 158.487 213.369 182.938 L 213.369 207.388 248.935 207.564 C 278.370 207.709,284.601 207.823,285.082 208.222 C 285.807 208.824,285.836 210.309,285.137 211.081 C 284.847 211.401,284.471 212.409,284.301 213.320 C 284.130 214.231,283.752 215.248,283.460 215.580 C 283.167 215.912,282.811 216.737,282.669 217.414 C 282.527 218.091,282.135 219.041,281.799 219.525 C 281.463 220.009,281.000 220.986,280.770 221.696 C 280.539 222.406,280.122 223.177,279.841 223.410 C 279.561 223.642,279.328 224.091,279.324 224.405 C 279.315 225.095,276.625 229.376,276.201 229.376 C 276.036 229.376,275.812 229.811,275.703 230.343 C 275.460 231.527,274.775 232.461,272.383 234.872 C 271.368 235.895,270.536 236.853,270.536 237.000 C 270.536 237.146,270.236 237.589,269.868 237.982 C 268.382 239.573,263.101 244.731,262.189 245.482 C 261.653 245.923,260.422 247.008,259.455 247.892 C 258.487 248.776,257.197 249.760,256.587 250.079 C 255.977 250.398,254.632 251.233,253.597 251.935 C 251.599 253.288,250.365 253.985,248.373 254.884 C 247.696 255.189,246.348 255.828,245.378 256.304 C 244.407 256.779,243.347 257.168,243.021 257.168 C 242.696 257.168,241.685 257.564,240.775 258.047 C 239.866 258.531,238.649 258.927,238.072 258.927 C 237.495 258.927,236.492 259.255,235.844 259.655 C 235.173 260.070,233.791 260.462,232.636 260.566 C 231.520 260.666,229.578 261.090,228.320 261.508 C 225.101 262.579,200.887 262.687,197.794 261.644 C 196.774 261.300,194.756 260.869,193.309 260.685 C 191.863 260.502,190.016 260.031,189.205 259.639 C 188.394 259.248,187.404 258.925,187.005 258.924 C 186.606 258.922,185.433 258.526,184.398 258.044 C 183.363 257.562,182.336 257.168,182.116 257.168 C 181.395 257.168,171.865 252.540,170.051 251.310 C 169.376 250.852,168.240 250.172,167.526 249.800 C 166.811 249.428,165.564 248.519,164.754 247.781 C 163.944 247.042,162.915 246.171,162.468 245.845 C 158.303 242.813,150.608 235.323,148.285 232.040 C 147.511 230.946,146.126 229.097,145.207 227.931 C 144.288 226.765,143.536 225.605,143.536 225.354 C 143.536 225.103,143.185 224.451,142.756 223.906 C 142.327 223.361,141.711 222.429,141.387 221.835 C 140.780 220.722,138.182 215.535,137.763 214.600 C 137.634 214.310,137.298 213.676,137.019 213.193 C 136.739 212.709,136.508 211.899,136.505 211.393 C 136.502 210.887,136.181 210.068,135.792 209.574 C 135.403 209.079,134.932 207.871,134.746 206.890 C 134.560 205.908,134.166 204.736,133.870 204.284 C 133.574 203.832,133.182 202.288,132.999 200.852 C 132.816 199.416,132.415 197.739,132.108 197.125 C 130.653 194.215,130.645 167.346,132.099 165.127 C 132.393 164.677,132.803 163.096,133.009 161.613 C 133.216 160.130,133.690 158.348,134.062 157.652 C 134.435 156.956,134.742 155.989,134.744 155.502 C 134.746 155.016,135.136 153.826,135.612 152.858 C 136.088 151.891,136.483 150.765,136.489 150.355 C 136.495 149.946,136.793 149.234,137.152 148.772 C 137.511 148.311,138.006 147.300,138.252 146.526 C 138.498 145.752,138.904 144.881,139.155 144.591 C 139.406 144.301,139.718 143.634,139.849 143.110 C 139.980 142.586,140.310 141.972,140.584 141.745 C 140.857 141.518,141.401 140.680,141.793 139.883 C 143.284 136.847,145.857 132.921,147.433 131.275 C 147.738 130.956,148.914 129.507,150.046 128.056 C 152.516 124.890,156.453 120.969,159.458 118.682 C 160.665 117.764,161.995 116.687,162.412 116.290 C 166.005 112.868,175.375 107.561,182.656 104.823 C 188.195 102.740,189.101 102.435,191.029 102.000 C 192.093 101.761,193.291 101.352,193.691 101.092 C 194.092 100.831,196.227 100.471,198.441 100.291 C 200.653 100.110,202.938 99.774,203.518 99.545 C 204.105 99.312,207.147 99.053,210.378 98.961 C 215.810 98.805,217.612 98.931,223.395 99.875 C 224.653 100.081,226.711 100.398,227.968 100.581 C 229.226 100.764,231.284 101.252,232.542 101.666 C 233.799 102.080,236.332 102.899,238.171 103.488 C 240.009 104.076,241.671 104.680,241.865 104.830 C 242.058 104.980,242.612 105.218,243.096 105.358 C 244.059 105.638,251.783 109.369,253.474 110.372 C 255.550 111.603,260.542 115.031,262.309 116.440 C 264.853 118.469,263.918 119.212,283.411 99.675 L 300.869 82.180 299.503 80.931 C 298.751 80.245,296.964 78.654,295.530 77.397 C 294.097 76.139,292.597 74.776,292.196 74.367 C 291.796 73.959,291.073 73.504,290.589 73.356 C 290.106 73.208,288.918 72.417,287.951 71.598 C 286.983 70.779,285.845 70.000,285.420 69.866 C 284.996 69.732,283.741 68.918,282.632 68.057 C 281.523 67.195,280.357 66.491,280.040 66.491 C 279.723 66.491,279.146 66.194,278.756 65.831 C 278.366 65.468,277.347 64.839,276.491 64.432 C 275.635 64.026,274.697 63.553,274.406 63.381 C 273.329 62.742,269.926 61.214,269.581 61.214 C 269.385 61.214,268.841 60.912,268.373 60.544 C 267.905 60.176,266.873 59.700,266.080 59.486 C 265.287 59.273,264.442 58.862,264.202 58.573 C 263.962 58.284,263.468 58.047,263.104 58.047 C 262.740 58.047,261.621 57.652,260.618 57.168 C 259.616 56.684,258.548 56.287,258.246 56.285 C 257.943 56.283,256.904 55.893,255.937 55.417 C 254.969 54.941,253.814 54.547,253.369 54.540 C 252.406 54.527,250.484 53.591,250.484 53.135 C 250.484 52.958,249.367 52.703,248.003 52.569 C 246.638 52.434,244.951 52.033,244.253 51.677 C 243.556 51.322,241.783 50.928,240.314 50.802 C 238.845 50.676,236.931 50.288,236.060 49.940 C 234.948 49.495,232.747 49.200,228.672 48.951 C 225.173 48.736,222.256 48.376,221.328 48.044 C 219.139 47.261,204.699 47.263,203.255 48.046 " stroke="none" fill="#160e0e" fill-rule="evenodd"></path><path id="path1" d="M0.000 175.901 L 0.000 351.803 200.000 351.803 L 400.000 351.803 400.000 175.901 L 400.000 0.000 200.000 0.000 L 0.000 0.000 0.000 175.901 M228.672 47.111 C 229.349 47.341,231.934 47.761,234.417 48.044 C 236.899 48.328,239.353 48.773,239.870 49.035 C 240.386 49.296,242.044 49.690,243.554 49.909 C 245.064 50.129,246.726 50.526,247.248 50.790 C 247.770 51.055,248.989 51.384,249.956 51.521 C 250.923 51.657,252.199 52.050,252.791 52.394 C 253.382 52.737,254.483 53.134,255.237 53.276 C 255.991 53.417,257.169 53.817,257.855 54.164 C 258.541 54.511,259.637 54.911,260.290 55.052 C 260.942 55.193,261.971 55.590,262.576 55.936 C 263.181 56.281,264.243 56.742,264.936 56.961 C 265.629 57.180,266.811 57.673,267.561 58.055 C 268.312 58.438,269.111 58.751,269.336 58.751 C 269.562 58.751,269.937 58.980,270.169 59.260 C 270.401 59.539,271.370 60.027,272.323 60.343 C 273.275 60.660,274.055 61.052,274.055 61.215 C 274.055 61.378,274.648 61.701,275.374 61.933 C 276.099 62.166,277.010 62.627,277.397 62.959 C 277.784 63.291,278.615 63.766,279.244 64.014 C 279.872 64.262,280.387 64.592,280.387 64.747 C 280.387 64.902,280.907 65.201,281.542 65.410 C 282.177 65.620,282.949 66.067,283.258 66.405 C 283.566 66.742,284.641 67.493,285.645 68.074 C 286.650 68.654,288.497 69.881,289.750 70.800 C 291.003 71.719,292.122 72.471,292.236 72.471 C 292.350 72.471,292.803 72.828,293.243 73.263 C 293.683 73.698,294.696 74.529,295.495 75.110 C 301.000 79.112,302.865 81.478,301.913 83.252 C 301.720 83.611,293.477 92.018,283.595 101.935 C 264.160 121.437,264.717 120.974,262.739 119.249 C 261.493 118.163,257.145 115.028,254.829 113.547 C 253.697 112.822,252.533 112.069,252.243 111.872 C 251.953 111.675,251.161 111.276,250.484 110.985 C 249.807 110.694,249.015 110.314,248.725 110.140 C 246.128 108.588,238.701 105.678,234.653 104.628 C 233.588 104.352,231.689 103.816,230.431 103.437 C 220.916 100.571,202.377 100.476,194.723 103.253 C 193.949 103.534,192.287 103.997,191.029 104.281 C 187.495 105.080,185.294 105.885,178.467 108.876 C 175.243 110.288,170.318 112.971,168.656 114.221 C 168.058 114.671,167.464 115.040,167.337 115.040 C 167.210 115.040,166.829 115.280,166.491 115.574 C 165.799 116.176,161.042 119.961,159.771 120.922 C 158.351 121.996,154.728 125.668,152.734 128.056 C 151.683 129.314,150.637 130.501,150.408 130.695 C 149.902 131.123,146.541 135.728,145.144 137.907 C 144.586 138.777,143.868 139.886,143.548 140.369 C 142.902 141.349,139.348 148.557,138.432 150.748 C 135.549 157.641,133.976 164.367,132.589 175.726 C 132.166 179.188,132.365 186.812,132.966 190.150 C 133.175 191.310,133.575 193.764,133.855 195.602 C 134.478 199.695,135.665 204.439,136.546 206.356 C 136.907 207.142,137.203 207.977,137.203 208.211 C 137.203 209.240,140.519 216.626,142.599 220.229 C 143.102 221.099,143.767 222.348,144.077 223.003 C 144.699 224.318,145.364 225.299,147.845 228.564 C 148.764 229.773,149.516 230.869,149.516 231.000 C 149.516 231.130,149.849 231.570,150.256 231.977 C 150.663 232.384,152.715 234.459,154.817 236.588 C 158.772 240.593,161.529 243.129,162.997 244.111 C 163.464 244.423,164.500 245.116,165.300 245.651 C 166.100 246.185,166.755 246.779,166.755 246.970 C 166.755 247.161,166.973 247.318,167.239 247.318 C 167.506 247.318,167.941 247.581,168.207 247.902 C 168.472 248.224,169.356 248.783,170.170 249.144 C 170.984 249.505,171.743 249.949,171.856 250.132 C 171.969 250.314,172.727 250.781,173.541 251.169 C 174.356 251.556,175.259 252.014,175.550 252.186 C 176.503 252.752,179.929 254.277,180.827 254.535 C 181.310 254.675,181.946 254.998,182.240 255.255 C 182.533 255.511,183.562 255.897,184.526 256.112 C 185.491 256.327,186.603 256.714,186.997 256.971 C 187.392 257.229,188.659 257.634,189.812 257.871 C 190.965 258.109,192.314 258.512,192.810 258.766 C 193.306 259.021,195.320 259.406,197.285 259.622 C 199.250 259.838,201.741 260.245,202.821 260.527 C 205.581 261.246,219.640 261.245,222.757 260.525 C 223.979 260.244,226.482 259.831,228.320 259.609 C 230.158 259.387,232.058 259.003,232.542 258.755 C 233.026 258.507,234.371 258.113,235.532 257.880 C 236.693 257.646,237.989 257.235,238.412 256.966 C 238.835 256.697,239.941 256.307,240.869 256.099 C 241.797 255.891,242.797 255.512,243.090 255.258 C 243.384 255.003,244.257 254.592,245.031 254.345 C 245.805 254.097,246.755 253.699,247.142 253.460 C 247.529 253.221,248.439 252.837,249.164 252.606 C 249.890 252.376,250.484 252.066,250.484 251.917 C 250.484 251.768,251.112 251.363,251.881 251.016 C 252.649 250.670,253.544 250.092,253.870 249.731 C 254.196 249.371,254.652 249.077,254.884 249.077 C 255.116 249.077,255.697 248.720,256.174 248.285 C 256.651 247.850,257.571 247.098,258.218 246.614 C 260.547 244.872,262.586 243.109,262.882 242.580 C 263.048 242.283,263.330 242.040,263.509 242.040 C 263.688 242.040,264.353 241.474,264.987 240.783 C 265.620 240.091,266.344 239.339,266.596 239.111 C 267.779 238.041,273.080 231.939,273.483 231.184 C 273.652 230.866,273.968 230.446,274.186 230.249 C 274.575 229.898,275.026 229.163,276.541 226.407 C 276.960 225.645,277.508 224.816,277.760 224.564 C 278.012 224.312,278.321 223.640,278.446 223.071 C 278.571 222.502,278.899 221.849,279.176 221.619 C 279.452 221.390,279.842 220.594,280.042 219.852 C 280.242 219.109,280.641 218.266,280.929 217.978 C 281.216 217.690,281.553 216.931,281.676 216.291 C 281.799 215.651,282.284 214.385,282.752 213.478 C 283.233 212.548,283.555 211.398,283.491 210.840 L 283.377 209.850 248.373 209.675 C 211.509 209.489,212.296 209.526,211.442 207.931 C 211.206 207.491,211.082 198.801,211.082 182.810 L 211.082 158.362 212.009 157.633 L 212.936 156.904 275.184 156.904 L 337.433 156.904 338.436 157.907 C 339.520 158.991,339.495 158.889,340.514 166.403 C 342.141 178.398,341.437 198.431,339.000 209.499 C 338.702 210.853,338.288 212.990,338.081 214.248 C 337.873 215.506,337.478 217.326,337.202 218.294 C 336.927 219.261,336.400 221.240,336.031 222.691 C 335.032 226.629,334.034 229.964,333.033 232.718 C 332.540 234.072,331.813 236.113,331.418 237.253 C 331.022 238.393,330.559 239.502,330.390 239.716 C 330.221 239.930,329.885 240.739,329.642 241.513 C 329.400 242.287,328.928 243.474,328.593 244.151 C 328.259 244.828,327.475 246.491,326.851 247.845 C 326.227 249.200,325.502 250.704,325.239 251.187 C 324.977 251.671,324.435 252.700,324.037 253.474 C 323.638 254.248,323.033 255.293,322.694 255.796 C 322.111 256.659,321.706 257.270,320.229 259.509 C 319.372 260.808,318.210 262.733,317.343 264.292 C 316.939 265.018,316.464 265.611,316.287 265.611 C 316.111 265.611,315.864 265.935,315.738 266.331 C 315.612 266.727,314.731 267.987,313.779 269.130 C 312.828 270.274,312.049 271.318,312.049 271.451 C 312.049 272.197,302.639 282.531,299.738 284.971 C 295.289 288.712,289.908 293.015,289.211 293.388 C 288.779 293.619,288.140 294.074,287.792 294.398 C 286.415 295.680,279.031 300.440,278.419 300.440 C 278.194 300.440,277.820 300.669,277.587 300.949 C 277.355 301.230,276.583 301.646,275.873 301.873 C 275.163 302.101,274.334 302.503,274.032 302.767 C 273.729 303.030,272.937 303.428,272.273 303.651 C 271.608 303.875,270.827 304.252,270.536 304.491 C 270.246 304.729,269.442 305.106,268.749 305.328 C 268.056 305.550,266.874 306.045,266.124 306.428 C 265.373 306.811,264.515 307.129,264.218 307.135 C 263.920 307.141,262.885 307.535,261.917 308.011 C 260.950 308.487,259.842 308.882,259.455 308.888 C 259.068 308.894,258.093 309.197,257.288 309.563 C 256.484 309.928,254.900 310.417,253.770 310.649 C 252.640 310.880,251.557 311.196,251.363 311.349 C 251.170 311.502,249.587 311.888,247.845 312.205 C 246.104 312.523,243.967 313.003,243.096 313.272 C 242.225 313.541,240.484 313.861,239.226 313.983 C 237.968 314.105,235.119 314.547,232.894 314.965 C 227.188 316.037,199.517 316.123,194.371 315.085 C 192.630 314.734,189.657 314.227,187.765 313.959 C 185.874 313.691,184.049 313.323,183.710 313.142 C 183.372 312.961,182.070 312.636,180.818 312.421 C 179.565 312.206,177.907 311.804,177.133 311.529 C 176.359 311.253,174.697 310.794,173.439 310.508 C 172.181 310.222,170.677 309.741,170.097 309.438 C 169.516 309.135,168.725 308.885,168.338 308.882 C 167.951 308.879,166.843 308.487,165.875 308.011 C 164.908 307.535,163.894 307.141,163.622 307.135 C 163.351 307.129,162.317 306.740,161.324 306.270 C 160.332 305.801,159.096 305.310,158.578 305.181 C 158.060 305.051,157.452 304.722,157.227 304.451 C 157.002 304.180,156.653 303.958,156.452 303.958 C 156.250 303.958,153.949 302.889,151.337 301.583 C 144.343 298.086,144.186 297.999,142.656 296.777 C 141.882 296.159,140.141 294.965,138.786 294.123 C 137.432 293.282,136.245 292.497,136.148 292.380 C 136.051 292.262,135.339 291.754,134.565 291.251 C 133.791 290.748,132.445 289.763,131.574 289.062 C 128.827 286.849,128.564 286.652,127.804 286.241 C 124.088 284.234,111.259 270.771,104.290 261.566 C 103.997 261.179,103.294 260.254,102.728 259.512 C 102.162 258.769,101.603 257.859,101.485 257.489 C 101.368 257.119,101.127 256.816,100.951 256.816 C 100.774 256.816,100.271 256.169,99.831 255.379 C 99.392 254.588,98.763 253.454,98.433 252.859 C 98.104 252.264,97.687 251.684,97.507 251.570 C 97.172 251.358,96.383 249.915,94.870 246.747 C 94.397 245.756,93.846 244.844,93.646 244.720 C 93.446 244.596,93.180 244.033,93.056 243.468 C 92.932 242.903,92.612 242.259,92.344 242.037 C 92.076 241.814,91.667 241.051,91.436 240.341 C 91.204 239.631,90.734 238.689,90.391 238.248 C 90.049 237.807,89.664 236.830,89.537 236.077 C 89.410 235.324,89.102 234.630,88.853 234.534 C 88.605 234.439,88.221 233.644,88.000 232.768 C 87.779 231.892,87.300 230.651,86.934 230.011 C 86.569 229.371,86.160 228.215,86.025 227.441 C 85.890 226.667,85.569 225.796,85.312 225.506 C 85.054 225.215,84.660 223.966,84.437 222.729 C 84.214 221.493,83.815 220.147,83.551 219.739 C 83.286 219.331,82.879 217.889,82.645 216.535 C 82.412 215.180,82.021 213.755,81.777 213.369 C 81.533 212.982,81.155 211.285,80.936 209.598 C 80.718 207.911,80.310 205.879,80.029 205.082 C 79.747 204.286,79.423 202.104,79.308 200.234 C 79.193 198.364,78.845 195.251,78.534 193.316 C 77.606 187.540,77.540 175.361,78.406 169.745 C 78.794 167.230,79.198 163.721,79.303 161.947 C 79.409 160.174,79.739 158.006,80.037 157.129 C 80.334 156.252,80.742 154.220,80.942 152.614 C 81.143 151.007,81.537 149.230,81.817 148.665 C 82.098 148.100,82.493 146.596,82.696 145.323 C 82.898 144.050,83.272 142.690,83.525 142.301 C 83.779 141.912,84.172 140.727,84.400 139.667 C 84.627 138.607,85.032 137.405,85.301 136.995 C 85.569 136.586,85.897 135.634,86.029 134.880 C 86.161 134.126,86.562 132.997,86.919 132.371 C 87.277 131.745,87.745 130.558,87.961 129.733 C 88.177 128.907,88.555 128.074,88.801 127.880 C 89.047 127.687,89.366 126.901,89.509 126.133 C 89.653 125.366,90.052 124.337,90.397 123.847 C 90.742 123.356,91.145 122.559,91.293 122.076 C 91.440 121.592,91.836 120.800,92.172 120.317 C 92.509 119.833,92.899 119.065,93.041 118.609 C 93.182 118.154,93.678 117.222,94.143 116.537 C 94.607 115.853,94.987 115.102,94.987 114.869 C 94.987 114.636,95.289 114.171,95.659 113.837 C 96.028 113.502,96.436 112.805,96.566 112.287 C 96.695 111.769,97.043 111.077,97.338 110.749 C 97.634 110.421,98.532 109.134,99.334 107.890 C 102.946 102.286,103.758 101.097,104.451 100.403 C 104.857 99.995,105.189 99.526,105.189 99.360 C 105.189 99.193,105.506 98.735,105.894 98.341 C 106.600 97.623,108.154 95.718,109.722 93.647 C 111.448 91.365,117.720 84.828,121.591 81.274 C 124.139 78.934,128.087 75.639,128.352 75.630 C 128.480 75.626,129.360 74.913,130.309 74.047 C 131.257 73.180,132.156 72.471,132.306 72.471 C 132.457 72.471,132.792 72.259,133.052 71.999 C 133.312 71.739,134.219 71.066,135.068 70.504 C 135.917 69.941,136.959 69.244,137.383 68.953 C 141.114 66.399,146.257 63.290,148.461 62.255 C 148.945 62.028,149.578 61.698,149.868 61.521 C 150.158 61.344,150.950 60.951,151.627 60.647 C 152.304 60.343,154.447 59.317,156.388 58.367 C 158.330 57.417,160.131 56.640,160.392 56.640 C 160.653 56.640,161.360 56.341,161.964 55.975 C 162.567 55.609,163.595 55.196,164.247 55.058 C 164.900 54.919,165.929 54.524,166.534 54.179 C 167.139 53.834,168.232 53.447,168.964 53.319 C 169.695 53.191,170.803 52.793,171.426 52.434 C 172.049 52.075,173.410 51.670,174.450 51.533 C 175.489 51.397,176.993 51.003,177.792 50.659 C 178.590 50.314,180.193 49.927,181.354 49.798 C 182.515 49.669,183.961 49.336,184.568 49.059 C 185.174 48.782,187.311 48.392,189.317 48.192 C 191.323 47.993,193.597 47.650,194.371 47.429 C 197.905 46.422,225.875 46.163,228.672 47.111 " stroke="none" fill="#d6d6d6" fill-rule="evenodd"></path><path id="path2" d="M208.004 47.053 C 210.277 47.114,213.997 47.114,216.271 47.053 C 218.544 46.991,216.684 46.941,212.137 46.941 C 207.590 46.941,205.730 46.991,208.004 47.053 M199.208 47.736 C 199.547 47.824,200.101 47.824,200.440 47.736 C 200.778 47.647,200.501 47.575,199.824 47.575 C 199.147 47.575,198.870 47.647,199.208 47.736 M224.186 47.736 C 224.525 47.824,225.079 47.824,225.418 47.736 C 225.756 47.647,225.479 47.575,224.802 47.575 C 224.125 47.575,223.848 47.647,224.186 47.736 M196.746 48.088 C 197.084 48.176,197.639 48.176,197.977 48.088 C 198.316 47.999,198.039 47.927,197.361 47.927 C 196.684 47.927,196.407 47.999,196.746 48.088 M193.760 48.446 C 194.197 48.530,194.830 48.527,195.167 48.439 C 195.503 48.351,195.145 48.282,194.371 48.286 C 193.597 48.290,193.322 48.362,193.760 48.446 M229.288 48.445 C 229.723 48.529,230.435 48.529,230.871 48.445 C 231.306 48.361,230.950 48.293,230.079 48.293 C 229.208 48.293,228.852 48.361,229.288 48.445 M186.456 49.428 C 185.778 49.689,185.462 49.902,185.752 49.902 C 186.042 49.902,186.834 49.689,187.511 49.428 C 188.188 49.168,188.505 48.954,188.215 48.954 C 187.924 48.954,187.133 49.168,186.456 49.428 M237.467 49.588 C 237.757 49.785,238.298 49.948,238.669 49.951 C 239.569 49.958,239.288 49.756,237.995 49.467 C 237.224 49.295,237.082 49.327,237.467 49.588 M251.715 53.122 C 252.296 53.507,253.002 53.822,253.285 53.824 C 253.567 53.825,253.178 53.509,252.419 53.122 C 250.661 52.226,250.362 52.226,251.715 53.122 M166.931 54.901 C 166.157 55.267,165.761 55.564,166.051 55.561 C 166.341 55.558,167.133 55.252,167.810 54.881 C 169.390 54.016,168.770 54.030,166.931 54.901 M162.357 56.660 C 161.583 57.026,161.187 57.323,161.478 57.320 C 161.768 57.317,162.559 57.011,163.237 56.640 C 164.816 55.775,164.197 55.789,162.357 56.660 M264.828 58.049 C 266.322 58.959,266.811 58.958,265.435 58.047 C 264.855 57.663,264.222 57.348,264.028 57.348 C 263.835 57.347,264.195 57.663,264.828 58.049 M268.953 59.973 C 269.727 60.450,270.519 60.844,270.712 60.849 C 270.906 60.854,270.431 60.468,269.657 59.992 C 268.883 59.515,268.091 59.121,267.898 59.116 C 267.704 59.111,268.179 59.497,268.953 59.973 M150.923 61.917 C 150.246 62.288,149.819 62.598,149.973 62.606 C 150.346 62.626,152.331 61.594,152.331 61.381 C 152.331 61.150,152.310 61.158,150.923 61.917 M273.175 61.917 C 273.755 62.302,274.389 62.617,274.582 62.617 C 274.776 62.618,274.416 62.302,273.782 61.916 C 272.289 61.005,271.800 61.006,273.175 61.917 M144.415 65.459 C 143.835 65.831,143.540 66.136,143.760 66.137 C 143.981 66.138,144.535 65.828,144.992 65.447 C 146.038 64.576,145.786 64.581,144.415 65.459 M279.634 65.414 C 280.091 65.813,280.632 66.139,280.836 66.139 C 281.269 66.139,281.248 66.121,279.859 65.308 L 278.804 64.690 279.634 65.414 M141.089 67.414 C 139.434 68.589,139.288 68.793,140.571 68.142 C 141.165 67.840,141.858 67.345,142.109 67.042 C 142.709 66.319,142.548 66.378,141.089 67.414 M282.850 67.299 C 282.850 67.492,286.249 69.657,286.554 69.657 C 286.699 69.657,286.247 69.270,285.550 68.796 C 284.068 67.791,282.850 67.115,282.850 67.299 M136.302 70.624 C 135.332 71.350,134.149 72.233,133.673 72.586 C 132.815 73.222,132.817 73.222,133.861 72.626 C 134.970 71.992,138.259 69.587,138.259 69.409 C 138.259 69.191,138.012 69.344,136.302 70.624 M288.478 71.057 C 289.156 71.668,290.026 72.335,290.413 72.539 C 291.347 73.031,290.769 72.503,288.830 71.095 L 287.247 69.945 288.478 71.057 M291.324 72.911 C 291.406 72.960,292.026 73.474,292.702 74.055 L 293.931 75.110 292.898 73.967 C 292.330 73.338,291.710 72.823,291.520 72.823 C 291.331 72.823,291.242 72.863,291.324 72.911 M130.695 74.801 L 128.936 76.413 130.783 74.937 C 132.382 73.659,132.889 73.154,132.542 73.182 C 132.493 73.186,131.662 73.915,130.695 74.801 M296.717 77.432 C 297.669 78.283,298.925 79.335,299.510 79.770 C 300.094 80.204,300.698 80.758,300.852 81.001 C 301.006 81.244,301.135 81.278,301.138 81.078 C 301.141 80.878,300.001 79.769,298.605 78.615 C 295.476 76.028,294.382 75.343,296.717 77.432 M126.815 77.951 L 125.066 79.561 126.913 78.072 C 128.570 76.736,128.969 76.341,128.662 76.341 C 128.609 76.341,127.778 77.066,126.815 77.951 M123.637 80.651 L 122.603 81.794 123.747 80.761 C 124.812 79.798,125.052 79.507,124.780 79.507 C 124.719 79.507,124.205 80.022,123.637 80.651 M117.488 86.456 C 113.560 90.452,108.889 95.490,111.372 93.052 C 113.809 90.658,122.527 81.618,122.398 81.618 C 122.312 81.618,120.103 83.795,117.488 86.456 M298.804 85.143 C 297.614 86.300,296.748 87.247,296.880 87.247 C 297.012 87.247,298.060 86.297,299.208 85.136 C 301.912 82.405,301.615 82.409,298.804 85.143 M106.727 98.593 C 105.683 99.779,104.074 102.023,104.267 102.023 C 104.359 102.023,105.158 101.073,106.040 99.912 C 107.672 97.767,107.989 97.157,106.727 98.593 M284.070 100.000 L 281.970 102.199 284.169 100.099 C 285.378 98.944,286.368 97.955,286.368 97.900 C 286.368 97.640,286.020 97.958,284.070 100.000 M209.077 100.175 C 210.974 100.238,213.982 100.238,215.761 100.174 C 217.541 100.110,215.989 100.058,212.313 100.059 C 208.637 100.059,207.181 100.111,209.077 100.175 M220.145 100.513 C 220.582 100.597,221.216 100.594,221.552 100.506 C 221.888 100.418,221.530 100.349,220.756 100.353 C 219.982 100.356,219.707 100.429,220.145 100.513 M197.981 101.216 C 198.419 101.300,199.052 101.297,199.388 101.209 C 199.725 101.121,199.367 101.052,198.593 101.056 C 197.819 101.060,197.544 101.132,197.981 101.216 M227.265 101.471 C 228.522 101.744,230.249 102.220,231.101 102.527 C 231.954 102.834,232.716 103.021,232.795 102.942 C 233.063 102.675,228.506 101.326,226.737 101.150 C 225.133 100.989,225.179 101.018,227.265 101.471 M194.596 101.723 C 193.946 101.910,193.477 102.125,193.553 102.202 C 193.630 102.278,194.478 102.125,195.439 101.861 C 196.400 101.598,196.869 101.382,196.482 101.382 C 196.095 101.383,195.246 101.536,194.596 101.723 M278.270 106.157 L 274.582 109.938 278.364 106.251 C 281.877 102.826,282.306 102.375,282.052 102.375 C 282.000 102.375,280.298 104.077,278.270 106.157 M189.798 103.267 C 188.410 103.747,188.408 103.751,189.622 103.547 C 191.057 103.304,192.524 102.769,191.733 102.776 C 191.442 102.778,190.572 103.000,189.798 103.267 M236.735 104.158 C 237.784 104.531,238.703 104.774,238.777 104.700 C 238.941 104.536,235.737 103.420,235.206 103.456 C 234.998 103.470,235.687 103.786,236.735 104.158 M184.587 104.902 C 183.462 105.294,182.603 105.676,182.679 105.751 C 182.839 105.911,187.159 104.490,187.159 104.277 C 187.159 104.048,186.758 104.145,184.587 104.902 M242.040 106.069 C 242.524 106.345,243.078 106.571,243.272 106.571 C 243.465 106.571,243.228 106.345,242.744 106.069 C 242.260 105.792,241.706 105.566,241.513 105.566 C 241.319 105.566,241.557 105.792,242.040 106.069 M178.540 107.463 C 176.799 108.307,175.472 109.011,175.592 109.028 C 175.712 109.045,177.295 108.357,179.110 107.500 C 180.925 106.643,182.252 105.939,182.058 105.935 C 181.865 105.932,180.281 106.619,178.540 107.463 M244.503 107.124 C 244.987 107.401,245.541 107.627,245.734 107.627 C 245.928 107.627,245.690 107.401,245.207 107.124 C 244.723 106.847,244.169 106.621,243.975 106.621 C 243.782 106.621,244.019 106.847,244.503 107.124 M246.995 108.138 C 247.353 108.467,252.243 110.808,252.243 110.651 C 252.243 110.454,247.474 108.004,247.092 108.004 C 246.958 108.004,246.914 108.064,246.995 108.138 M99.298 109.147 C 98.800 109.775,98.100 111.170,98.282 111.170 C 98.366 111.170,98.762 110.616,99.162 109.938 C 99.888 108.708,99.955 108.317,99.298 109.147 M172.559 110.336 C 169.957 111.877,169.080 112.696,171.504 111.320 C 174.573 109.579,175.383 109.061,175.022 109.073 C 174.828 109.080,173.720 109.648,172.559 110.336 M97.234 112.412 C 96.913 112.902,96.715 113.367,96.793 113.445 C 96.871 113.523,97.202 113.122,97.528 112.554 C 98.254 111.289,98.038 111.185,97.234 112.412 M269.473 114.550 C 267.833 116.216,266.016 117.877,265.435 118.243 C 264.855 118.608,264.603 118.907,264.875 118.908 C 265.322 118.909,273.077 111.536,272.640 111.526 C 272.539 111.523,271.114 112.884,269.473 114.550 M166.579 114.160 C 165.031 115.220,162.973 116.815,162.005 117.706 C 160.595 119.003,160.769 118.910,162.885 117.235 C 164.336 116.086,166.434 114.553,167.546 113.827 C 169.274 112.701,169.867 112.211,169.481 112.229 C 169.433 112.231,168.127 113.100,166.579 114.160 M259.419 115.464 C 263.322 118.554,264.378 119.314,262.973 118.022 C 262.199 117.310,260.853 116.262,259.982 115.692 C 259.112 115.123,258.858 115.020,259.419 115.464 M156.017 122.835 C 153.976 124.801,151.514 127.453,150.544 128.728 C 149.168 130.539,149.108 130.662,150.272 129.288 C 151.091 128.320,153.630 125.668,155.915 123.395 C 158.199 121.121,159.992 119.261,159.898 119.261 C 159.805 119.261,158.058 120.870,156.017 122.835 M146.282 133.949 C 145.662 134.671,145.198 135.444,145.384 135.444 C 145.455 135.444,145.865 134.969,146.294 134.389 C 147.142 133.242,147.134 132.957,146.282 133.949 M85.545 138.098 C 84.956 139.391,85.068 139.667,85.706 138.491 C 86.003 137.942,86.181 137.427,86.101 137.346 C 86.020 137.266,85.770 137.604,85.545 138.098 M142.617 139.501 C 142.296 139.991,142.097 140.455,142.175 140.534 C 142.254 140.612,142.584 140.211,142.910 139.643 C 143.636 138.378,143.421 138.274,142.617 139.501 M139.646 145.205 C 138.852 146.791,138.863 146.947,139.683 145.720 C 140.109 145.083,140.384 144.488,140.295 144.399 C 140.205 144.309,139.913 144.672,139.646 145.205 M137.800 149.142 C 137.472 149.698,137.204 150.286,137.204 150.450 C 137.205 150.614,137.530 150.215,137.927 149.565 C 138.324 148.914,138.592 148.325,138.523 148.256 C 138.454 148.187,138.129 148.586,137.800 149.142 M136.035 153.578 C 135.710 154.260,135.448 155.010,135.452 155.245 C 135.456 155.480,135.776 154.976,136.162 154.125 C 136.998 152.281,136.885 151.795,136.035 153.578 M134.428 158.702 C 134.211 159.324,134.095 159.894,134.171 159.969 C 134.246 160.045,134.485 159.598,134.701 158.976 C 134.918 158.354,135.034 157.784,134.959 157.709 C 134.883 157.633,134.645 158.081,134.428 158.702 M288.045 157.872 L 337.039 157.962 337.735 159.104 C 338.118 159.732,338.432 160.070,338.433 159.854 C 338.434 159.638,338.106 159.045,337.705 158.535 L 336.976 157.608 288.013 157.694 L 239.050 157.781 288.045 157.872 M212.220 183.201 C 212.139 206.800,212.149 207.224,212.841 207.916 C 213.536 208.611,213.956 208.618,248.637 208.535 L 283.729 208.450 248.490 208.271 C 229.109 208.172,213.119 207.960,212.958 207.798 C 212.797 207.637,212.584 196.635,212.484 183.348 L 212.303 159.191 212.220 183.201 M79.603 164.292 C 79.603 165.163,79.672 165.519,79.756 165.084 C 79.840 164.648,79.840 163.936,79.756 163.500 C 79.672 163.065,79.603 163.421,79.603 164.292 M132.630 166.051 C 132.393 167.039,132.269 167.918,132.354 168.003 C 132.440 168.089,132.698 167.344,132.927 166.349 C 133.157 165.353,133.281 164.474,133.203 164.396 C 133.125 164.318,132.867 165.063,132.630 166.051 M339.591 167.634 C 339.593 168.602,339.661 168.956,339.742 168.421 C 339.823 167.886,339.821 167.095,339.738 166.662 C 339.654 166.229,339.588 166.667,339.591 167.634 M132.022 169.921 C 132.022 170.792,132.091 171.148,132.174 170.712 C 132.258 170.277,132.258 169.565,132.174 169.129 C 132.091 168.694,132.022 169.050,132.022 169.921 M79.261 170.624 C 79.261 171.689,79.327 172.124,79.408 171.592 C 79.488 171.060,79.488 170.189,79.408 169.657 C 79.327 169.125,79.261 169.560,79.261 170.624 M339.972 174.846 C 339.972 176.878,340.030 177.709,340.101 176.693 C 340.172 175.677,340.172 174.015,340.101 172.999 C 340.030 171.983,339.972 172.814,339.972 174.846 M78.922 175.550 C 78.922 177.001,78.984 177.595,79.060 176.869 C 79.136 176.143,79.136 174.956,79.060 174.230 C 78.984 173.505,78.922 174.099,78.922 175.550 M131.683 175.374 C 131.685 176.535,131.751 176.967,131.829 176.335 C 131.908 175.703,131.906 174.753,131.826 174.224 C 131.745 173.695,131.681 174.213,131.683 175.374 M78.565 180.827 C 78.565 182.084,78.629 182.599,78.707 181.970 C 78.785 181.341,78.785 180.312,78.707 179.683 C 78.629 179.055,78.565 179.569,78.565 180.827 M340.324 182.234 C 340.324 184.266,340.382 185.097,340.453 184.081 C 340.524 183.065,340.524 181.403,340.453 180.387 C 340.382 179.371,340.324 180.202,340.324 182.234 M78.922 186.104 C 78.922 187.555,78.984 188.149,79.060 187.423 C 79.136 186.697,79.136 185.510,79.060 184.785 C 78.984 184.059,78.922 184.653,78.922 186.104 M131.687 186.807 C 131.687 188.065,131.751 188.580,131.829 187.951 C 131.907 187.322,131.907 186.293,131.829 185.664 C 131.751 185.035,131.687 185.550,131.687 186.807 M339.972 189.974 C 339.972 192.005,340.030 192.836,340.101 191.821 C 340.172 190.805,340.172 189.142,340.101 188.127 C 340.030 187.111,339.972 187.942,339.972 189.974 M79.265 191.557 C 79.267 192.718,79.332 193.150,79.411 192.518 C 79.489 191.886,79.487 190.936,79.407 190.407 C 79.327 189.878,79.263 190.396,79.265 191.557 M132.022 192.084 C 132.022 192.955,132.091 193.311,132.174 192.876 C 132.258 192.441,132.258 191.728,132.174 191.293 C 132.091 190.858,132.022 191.214,132.022 192.084 M132.338 194.547 C 132.356 195.461,132.910 196.963,132.922 196.130 C 132.927 195.743,132.796 195.110,132.630 194.723 C 132.444 194.292,132.331 194.224,132.338 194.547 M339.602 197.361 C 339.602 198.619,339.666 199.134,339.744 198.505 C 339.822 197.876,339.822 196.847,339.744 196.218 C 339.666 195.589,339.602 196.104,339.602 197.361 M79.608 197.889 C 79.611 198.857,79.679 199.211,79.760 198.676 C 79.841 198.141,79.839 197.350,79.755 196.917 C 79.672 196.484,79.605 196.922,79.608 197.889 M338.839 202.682 C 338.810 203.190,338.708 204.140,338.612 204.793 L 338.437 205.981 338.807 204.800 C 339.011 204.150,339.113 203.201,339.035 202.689 L 338.892 201.759 338.839 202.682 M135.472 207.141 C 135.441 207.650,136.417 209.675,136.694 209.675 C 136.790 209.675,136.650 209.239,136.381 208.707 C 136.112 208.175,135.804 207.502,135.696 207.212 C 135.564 206.857,135.491 206.834,135.472 207.141 M284.137 209.745 C 284.433 211.300,284.609 211.435,284.609 210.106 C 284.609 209.504,284.453 208.916,284.262 208.798 C 284.046 208.665,283.999 209.020,284.137 209.745 M337.812 210.026 C 337.812 210.704,337.885 210.981,337.973 210.642 C 338.062 210.303,338.062 209.749,337.973 209.411 C 337.885 209.072,337.812 209.349,337.812 210.026 M336.703 214.627 C 336.453 215.602,336.315 216.467,336.397 216.549 C 336.479 216.631,336.750 215.900,337.000 214.925 C 337.250 213.949,337.388 213.084,337.306 213.002 C 337.224 212.920,336.953 213.651,336.703 214.627 M138.964 215.735 C 138.963 215.875,139.278 216.508,139.664 217.142 C 140.051 217.775,140.366 218.135,140.366 217.942 C 140.365 217.748,140.050 217.115,139.666 216.535 C 139.281 215.954,138.966 215.594,138.964 215.735 M334.957 221.670 C 334.741 222.290,334.575 223.050,334.588 223.359 C 334.601 223.669,334.832 223.217,335.101 222.354 C 335.663 220.547,335.545 219.984,334.957 221.670 M85.161 223.219 C 85.161 223.412,85.388 223.967,85.664 224.450 C 85.941 224.934,86.167 225.172,86.167 224.978 C 86.167 224.785,85.941 224.230,85.664 223.747 C 85.388 223.263,85.161 223.026,85.161 223.219 M333.411 227.502 C 332.581 229.817,332.672 230.329,333.525 228.144 C 333.903 227.177,334.169 226.255,334.116 226.095 C 334.063 225.935,333.745 226.568,333.411 227.502 M145.571 227.445 C 145.770 227.834,146.304 228.466,146.757 228.849 C 147.552 229.522,147.551 229.509,146.707 228.494 C 145.306 226.806,145.188 226.697,145.571 227.445 M153.914 237.467 C 155.647 239.208,157.145 240.633,157.241 240.633 C 157.338 240.633,155.999 239.208,154.266 237.467 C 152.532 235.726,151.035 234.301,150.938 234.301 C 150.841 234.301,152.180 235.726,153.914 237.467 M265.953 240.897 L 263.676 243.272 266.051 240.995 C 267.357 239.743,268.426 238.675,268.426 238.621 C 268.426 238.362,268.067 238.691,265.953 240.897 M328.471 241.177 C 327.645 242.910,327.761 243.205,328.625 241.568 C 329.017 240.824,329.276 240.153,329.200 240.077 C 329.124 240.001,328.796 240.496,328.471 241.177 M157.608 240.743 C 157.608 240.804,158.122 241.318,158.751 241.887 L 159.894 242.920 158.861 241.777 C 157.898 240.711,157.608 240.472,157.608 240.743 M160.180 242.988 C 160.475 243.466,163.237 245.694,163.237 245.455 C 163.237 245.365,162.492 244.681,161.582 243.936 C 160.672 243.190,160.041 242.763,160.180 242.988 M259.807 246.324 C 258.452 247.497,256.869 248.754,256.288 249.117 C 255.708 249.480,255.425 249.778,255.659 249.779 C 256.074 249.780,262.445 244.655,262.445 244.319 C 262.445 244.046,262.376 244.098,259.807 246.324 M326.367 245.887 C 326.038 246.443,325.770 247.032,325.771 247.196 C 325.772 247.360,326.097 246.961,326.493 246.310 C 326.890 245.660,327.158 245.071,327.089 245.002 C 327.020 244.933,326.695 245.331,326.367 245.887 M96.746 248.979 C 96.746 249.183,97.072 249.724,97.470 250.181 L 98.195 251.011 97.577 249.956 C 96.763 248.567,96.746 248.546,96.746 248.979 M324.608 249.757 C 324.279 250.313,324.011 250.902,324.012 251.066 C 324.013 251.229,324.338 250.831,324.734 250.180 C 325.131 249.530,325.399 248.941,325.330 248.872 C 325.261 248.803,324.936 249.201,324.608 249.757 M169.569 249.926 C 169.569 250.148,174.236 252.882,175.088 253.158 C 175.681 253.351,174.812 252.803,171.064 250.621 C 170.242 250.142,169.569 249.829,169.569 249.926 M250.660 252.618 C 250.079 252.990,249.785 253.295,250.005 253.296 C 250.225 253.297,250.780 252.987,251.236 252.606 C 252.282 251.735,252.031 251.740,250.660 252.618 M99.714 253.826 C 100.938 255.631,101.189 255.845,100.508 254.504 C 100.206 253.909,99.691 253.201,99.365 252.930 C 99.038 252.659,99.195 253.062,99.714 253.826 M243.805 255.781 C 243.131 256.157,242.771 256.464,243.005 256.464 C 243.239 256.464,243.949 256.148,244.583 255.762 C 246.057 254.863,245.424 254.878,243.805 255.781 M190.677 259.279 C 191.548 259.644,192.498 259.945,192.788 259.946 C 193.078 259.948,192.524 259.640,191.557 259.263 C 189.309 258.385,188.579 258.398,190.677 259.279 M234.301 259.103 C 233.817 259.379,233.580 259.606,233.773 259.606 C 233.967 259.606,234.521 259.379,235.004 259.103 C 235.488 258.826,235.726 258.600,235.532 258.600 C 235.339 258.600,234.785 258.826,234.301 259.103 M229.464 260.225 C 229.802 260.313,230.356 260.313,230.695 260.225 C 231.033 260.136,230.756 260.064,230.079 260.064 C 229.402 260.064,229.125 260.136,229.464 260.225 M198.945 261.038 C 199.332 261.204,199.965 261.336,200.352 261.330 C 200.917 261.322,200.883 261.264,200.176 261.038 C 198.973 260.653,198.048 260.653,198.945 261.038 M225.506 261.038 C 224.781 261.270,224.750 261.325,225.330 261.349 C 225.717 261.365,226.271 261.225,226.561 261.038 C 227.178 260.639,226.750 260.639,225.506 261.038 M317.768 261.478 C 317.270 262.106,316.570 263.500,316.751 263.500 C 316.836 263.500,317.232 262.946,317.631 262.269 C 318.358 261.039,318.425 260.648,317.768 261.478 M202.023 261.632 C 202.361 261.721,202.916 261.721,203.254 261.632 C 203.593 261.544,203.316 261.471,202.639 261.471 C 201.961 261.471,201.684 261.544,202.023 261.632 M222.256 261.638 C 222.693 261.723,223.326 261.719,223.663 261.631 C 223.999 261.543,223.641 261.474,222.867 261.478 C 222.093 261.482,221.818 261.554,222.256 261.638 M209.077 262.004 C 210.974 262.067,213.982 262.067,215.761 262.003 C 217.541 261.940,215.989 261.888,212.313 261.888 C 208.637 261.888,207.181 261.941,209.077 262.004 M315.851 264.468 C 315.231 265.190,314.767 265.963,314.953 265.963 C 315.024 265.963,315.434 265.488,315.863 264.908 C 316.711 263.761,316.703 263.475,315.851 264.468 M108.707 265.963 C 109.517 266.931,110.259 267.722,110.356 267.722 C 110.453 267.722,109.869 266.931,109.059 265.963 C 108.249 264.996,107.507 264.204,107.410 264.204 C 107.314 264.204,107.897 264.996,108.707 265.963 M113.244 271.152 C 114.866 272.942,116.267 274.406,116.357 274.406 C 116.581 274.406,111.688 268.995,110.914 268.386 C 110.573 268.118,111.621 269.362,113.244 271.152 M310.277 271.960 C 309.657 272.743,309.209 273.438,309.280 273.504 C 309.352 273.571,309.930 272.930,310.565 272.081 C 312.016 270.141,311.793 270.047,310.277 271.960 M305.740 277.309 C 304.881 278.325,304.620 278.760,305.158 278.276 C 306.065 277.461,307.667 275.462,307.412 275.462 C 307.350 275.462,306.598 276.293,305.740 277.309 M117.854 276.293 C 117.854 276.390,118.329 276.807,118.909 277.221 C 119.490 277.634,119.965 277.893,119.965 277.796 C 119.965 277.700,119.490 277.282,118.909 276.869 C 118.329 276.456,117.854 276.197,117.854 276.293 M121.827 279.932 C 126.151 283.840,126.671 284.241,123.681 281.363 C 121.927 279.675,120.381 278.290,120.244 278.285 C 120.107 278.280,120.819 279.021,121.827 279.932 M301.143 282.070 C 298.826 284.412,299.453 284.089,302.309 281.470 C 303.130 280.717,304.235 279.241,303.882 279.368 C 303.827 279.388,302.595 280.604,301.143 282.070 M128.760 285.761 C 128.760 285.829,129.274 286.260,129.903 286.721 C 130.611 287.238,130.856 287.323,130.548 286.943 C 130.079 286.366,128.760 285.494,128.760 285.761 M295.050 287.397 C 292.156 289.791,291.763 290.319,294.371 288.310 C 296.321 286.807,297.605 285.627,297.229 285.684 C 297.157 285.694,296.176 286.466,295.050 287.397 M131.223 287.533 C 131.223 287.620,131.804 288.135,132.514 288.676 C 133.224 289.218,133.695 289.482,133.559 289.262 C 133.280 288.812,131.223 287.289,131.223 287.533 M134.360 290.014 C 134.828 290.590,136.148 291.463,136.148 291.196 C 136.148 291.128,135.633 290.697,135.004 290.236 C 134.297 289.718,134.051 289.633,134.360 290.014 M288.127 292.746 C 287.256 293.340,286.306 294.066,286.016 294.360 C 285.726 294.654,286.478 294.228,287.687 293.414 C 288.896 292.601,289.886 291.869,289.886 291.790 C 289.886 291.559,289.797 291.608,288.127 292.746 M140.721 294.207 C 140.818 294.311,141.768 294.973,142.832 295.678 C 144.072 296.500,144.388 296.631,143.712 296.043 C 142.807 295.257,140.220 293.669,140.721 294.207 M282.850 296.427 C 281.592 297.311,279.850 298.405,278.980 298.858 C 278.109 299.310,277.080 299.937,276.693 300.251 C 275.446 301.263,280.127 298.612,282.762 296.815 C 284.968 295.310,285.597 294.799,285.224 294.815 C 285.176 294.817,284.107 295.542,282.850 296.427 M144.943 297.080 C 144.943 297.176,145.418 297.501,145.998 297.801 C 146.579 298.101,147.054 298.268,147.054 298.171 C 147.054 298.074,146.579 297.750,145.998 297.449 C 145.418 297.149,144.943 296.983,144.943 297.080 M147.405 298.503 C 147.405 298.738,153.077 301.570,153.233 301.413 C 153.303 301.344,152.020 300.623,150.383 299.811 C 148.745 298.998,147.405 298.410,147.405 298.503 M156.552 303.081 C 158.504 304.130,165.365 306.872,165.557 306.680 C 165.634 306.603,164.312 306.017,162.620 305.378 C 160.927 304.739,158.637 303.762,157.530 303.207 C 155.094 301.987,154.332 301.888,156.552 303.081 M267.194 304.642 C 266.420 305.008,265.945 305.309,266.139 305.310 C 266.619 305.314,269.395 304.014,268.953 303.993 C 268.760 303.984,267.968 304.276,267.194 304.642 M261.989 306.641 C 261.868 306.763,260.931 307.158,259.908 307.520 C 258.579 307.990,258.399 308.115,259.279 307.960 C 260.523 307.740,263.296 306.465,262.592 306.436 C 262.382 306.427,262.111 306.520,261.989 306.641 M167.282 307.495 C 168.056 307.861,168.927 308.158,169.217 308.154 C 169.507 308.150,168.953 307.837,167.986 307.460 C 165.784 306.600,165.428 306.618,167.282 307.495 M256.113 308.707 C 254.964 309.364,255.366 309.371,256.864 308.721 C 257.515 308.438,257.810 308.206,257.520 308.206 C 257.230 308.205,256.596 308.431,256.113 308.707 M171.856 309.072 C 172.436 309.337,173.149 309.550,173.439 309.544 C 173.729 309.538,173.412 309.320,172.735 309.059 C 171.129 308.440,170.497 308.450,171.856 309.072 M175.726 310.123 C 177.944 310.738,178.567 310.734,176.957 310.114 C 176.280 309.854,175.330 309.639,174.846 309.637 C 174.337 309.635,174.707 309.840,175.726 310.123 M249.252 310.642 C 248.809 310.833,248.744 310.944,249.077 310.944 C 249.367 310.944,249.921 310.808,250.308 310.642 C 250.751 310.451,250.816 310.340,250.484 310.340 C 250.193 310.340,249.639 310.476,249.252 310.642 M245.734 311.346 C 244.793 311.585,244.774 311.614,245.558 311.614 C 246.042 311.614,246.913 311.493,247.493 311.346 C 248.435 311.106,248.454 311.077,247.669 311.077 C 247.186 311.077,246.315 311.198,245.734 311.346 M241.865 312.235 C 241.091 312.490,240.695 312.709,240.985 312.720 C 241.275 312.732,242.225 312.518,243.096 312.243 C 243.967 311.969,244.362 311.751,243.975 311.758 C 243.588 311.765,242.639 311.980,241.865 312.235 M186.456 312.736 C 187.335 313.034,189.518 313.221,189.241 312.974 C 189.160 312.902,188.303 312.752,187.335 312.640 C 186.149 312.503,185.862 312.534,186.456 312.736 M238.610 312.995 C 238.949 313.084,239.503 313.084,239.842 312.995 C 240.180 312.907,239.903 312.834,239.226 312.834 C 238.549 312.834,238.272 312.907,238.610 312.995 M190.062 313.347 C 190.400 313.436,190.954 313.436,191.293 313.347 C 191.631 313.259,191.354 313.186,190.677 313.186 C 190.000 313.186,189.723 313.259,190.062 313.347 M235.624 313.353 C 236.062 313.438,236.695 313.434,237.031 313.346 C 237.368 313.258,237.010 313.189,236.236 313.193 C 235.462 313.197,235.187 313.269,235.624 313.353 M192.524 313.699 C 192.863 313.787,193.417 313.787,193.755 313.699 C 194.094 313.610,193.817 313.538,193.140 313.538 C 192.463 313.538,192.186 313.610,192.524 313.699 M232.454 313.705 C 232.889 313.789,233.602 313.789,234.037 313.705 C 234.472 313.621,234.116 313.552,233.245 313.552 C 232.375 313.552,232.018 313.621,232.454 313.705 M197.098 314.403 C 197.436 314.491,197.990 314.491,198.329 314.403 C 198.668 314.314,198.391 314.242,197.713 314.242 C 197.036 314.242,196.759 314.314,197.098 314.403 M228.056 314.403 C 228.395 314.491,228.949 314.491,229.288 314.403 C 229.626 314.314,229.349 314.242,228.672 314.242 C 227.995 314.242,227.718 314.314,228.056 314.403 M201.319 314.768 C 202.045 314.844,203.232 314.844,203.958 314.768 C 204.683 314.692,204.090 314.630,202.639 314.630 C 201.187 314.630,200.594 314.692,201.319 314.768 M222.244 314.766 C 222.868 314.843,223.976 314.845,224.706 314.769 C 225.436 314.692,224.925 314.629,223.571 314.627 C 222.216 314.626,221.619 314.688,222.244 314.766 M209.781 315.126 C 211.677 315.190,214.685 315.189,216.465 315.126 C 218.245 315.062,216.693 315.010,213.017 315.010 C 209.340 315.011,207.884 315.063,209.781 315.126 " stroke="none" fill="#6d6c6c" fill-rule="evenodd"></path><path id="path3" d="M200.352 47.703 C 198.804 47.965,195.602 48.347,193.236 48.553 C 190.870 48.758,188.316 49.144,187.561 49.411 C 186.806 49.677,184.942 50.083,183.419 50.312 C 181.897 50.542,180.117 50.951,179.464 51.222 C 178.811 51.494,177.240 51.881,175.972 52.084 C 174.704 52.286,173.260 52.684,172.761 52.968 C 172.263 53.251,170.985 53.781,169.921 54.146 C 168.857 54.510,166.878 55.233,165.523 55.752 C 164.169 56.271,162.427 56.933,161.653 57.223 C 158.412 58.437,146.375 64.385,145.049 65.427 C 144.551 65.819,143.954 66.139,143.721 66.139 C 143.488 66.139,142.757 66.542,142.097 67.034 C 141.437 67.526,140.004 68.515,138.913 69.232 C 124.524 78.688,112.992 89.975,102.270 105.096 C 100.164 108.066,96.217 114.455,95.474 116.095 C 95.168 116.772,94.721 117.564,94.482 117.854 C 94.243 118.144,93.837 118.936,93.580 119.613 C 93.322 120.290,92.927 121.082,92.700 121.372 C 92.474 121.662,92.078 122.454,91.821 123.131 C 91.563 123.808,91.156 124.600,90.916 124.890 C 90.675 125.180,90.297 126.102,90.074 126.938 C 89.851 127.774,89.362 128.961,88.987 129.576 C 88.612 130.191,88.300 130.932,88.293 131.223 C 88.286 131.513,87.891 132.542,87.415 133.509 C 86.939 134.477,86.549 135.550,86.547 135.895 C 86.545 136.239,86.148 137.461,85.664 138.610 C 85.180 139.760,84.785 141.028,84.785 141.428 C 84.785 141.829,84.486 142.744,84.120 143.462 C 83.755 144.180,83.283 145.889,83.070 147.261 C 82.858 148.633,82.444 150.332,82.149 151.037 C 81.855 151.742,81.465 153.707,81.283 155.403 C 81.102 157.099,80.716 159.279,80.427 160.246 C 80.118 161.278,79.746 164.913,79.526 169.041 C 79.320 172.911,79.063 176.948,78.954 178.012 C 78.625 181.234,79.816 199.640,80.547 202.639 C 80.901 204.090,81.284 206.262,81.398 207.466 C 81.512 208.671,81.925 210.565,82.316 211.676 C 82.706 212.787,83.026 214.131,83.026 214.662 C 83.026 215.194,83.361 216.526,83.771 217.623 C 84.182 218.719,84.727 220.427,84.984 221.418 C 85.664 224.041,86.861 227.578,87.632 229.238 C 88.001 230.033,88.303 230.904,88.304 231.173 C 88.305 231.442,88.601 232.148,88.964 232.742 C 89.326 233.336,89.739 234.206,89.882 234.677 C 90.127 235.480,93.936 243.354,94.636 244.503 C 94.812 244.793,95.601 246.218,96.388 247.669 C 97.819 250.307,98.788 251.939,100.062 253.860 C 100.434 254.422,101.147 255.515,101.645 256.290 C 103.328 258.907,109.818 267.023,113.439 271.038 C 118.148 276.260,126.293 284.033,128.646 285.551 C 129.192 285.904,131.234 287.379,133.185 288.830 C 135.135 290.281,137.866 292.181,139.254 293.052 C 140.641 293.923,142.608 295.242,143.624 295.984 C 147.803 299.038,164.739 306.643,172.208 308.820 C 180.753 311.311,185.393 312.344,194.019 313.678 C 202.012 314.914,223.520 315.146,229.727 314.063 C 231.566 313.743,234.653 313.309,236.588 313.099 C 238.522 312.889,240.897 312.498,241.865 312.230 C 242.832 311.963,244.890 311.496,246.438 311.193 C 258.903 308.755,274.302 302.380,283.984 295.650 C 285.585 294.537,287.608 293.144,288.478 292.554 C 290.295 291.324,296.749 286.136,299.034 284.069 C 306.460 277.352,313.142 269.093,319.431 258.856 C 320.299 257.444,321.362 255.760,321.793 255.115 C 322.842 253.546,326.870 245.167,328.502 241.161 C 328.896 240.193,329.630 238.432,330.132 237.247 C 330.635 236.062,331.048 234.875,331.049 234.609 C 331.050 234.343,331.296 233.656,331.595 233.082 C 332.116 232.082,332.807 229.884,334.030 225.330 C 334.342 224.169,334.902 222.269,335.275 221.108 C 335.648 219.947,336.055 218.285,336.181 217.414 C 336.306 216.544,336.695 214.723,337.045 213.369 C 337.395 212.014,337.785 210.035,337.912 208.971 C 338.172 206.779,339.071 201.326,339.303 200.528 C 341.059 194.502,339.770 162.170,337.644 158.926 L 337.077 158.059 275.398 157.877 C 220.326 157.714,213.654 157.752,213.105 158.233 C 212.207 159.019,212.146 206.819,213.042 207.715 C 213.537 208.210,217.230 208.267,248.421 208.267 C 284.245 208.267,284.609 208.281,284.609 209.670 C 284.609 210.819,283.619 214.211,283.044 215.031 C 282.744 215.461,282.498 216.022,282.498 216.278 C 282.498 216.535,281.508 218.720,280.299 221.134 C 277.336 227.050,276.770 228.102,276.240 228.694 C 275.991 228.972,275.278 230.013,274.657 231.007 C 271.765 235.631,257.476 249.780,255.698 249.780 C 255.473 249.780,254.988 250.052,254.621 250.384 C 252.986 251.864,244.627 256.098,242.216 256.667 C 241.636 256.804,240.599 257.197,239.913 257.540 C 239.227 257.884,238.045 258.281,237.287 258.423 C 236.528 258.566,235.269 258.959,234.489 259.297 C 233.708 259.635,231.758 260.083,230.155 260.293 C 228.552 260.503,226.933 260.839,226.557 261.040 C 223.911 262.456,203.592 262.353,198.325 260.897 C 197.311 260.617,195.532 260.281,194.371 260.151 C 193.210 260.020,191.722 259.690,191.065 259.416 C 190.407 259.143,188.962 258.684,187.854 258.397 C 186.745 258.110,185.384 257.638,184.828 257.348 C 184.272 257.058,183.637 256.820,183.417 256.818 C 183.036 256.816,180.495 255.723,176.253 253.737 C 173.242 252.326,167.834 249.103,165.699 247.446 C 159.385 242.545,157.762 241.159,154.232 237.651 C 149.949 233.395,146.215 228.693,143.811 224.526 C 141.044 219.730,138.989 215.936,138.781 215.238 C 138.647 214.790,138.255 213.929,137.908 213.324 C 137.562 212.719,137.165 211.710,137.027 211.082 C 136.889 210.454,136.492 209.445,136.144 208.840 C 135.797 208.235,135.404 207.186,135.271 206.508 C 135.139 205.831,134.745 204.406,134.396 203.342 C 132.160 196.528,131.749 193.008,131.767 180.827 C 131.785 168.111,132.436 163.874,135.848 154.266 C 136.054 153.685,136.447 152.577,136.722 151.803 C 137.209 150.429,137.744 149.257,140.010 144.591 C 147.603 128.956,161.940 115.025,177.996 107.683 C 184.421 104.746,194.612 101.486,198.955 100.979 C 200.497 100.799,202.867 100.489,204.222 100.289 C 207.320 99.832,217.145 99.825,220.405 100.277 C 221.759 100.464,224.134 100.773,225.682 100.962 C 227.230 101.151,229.683 101.689,231.135 102.158 C 240.294 105.116,242.266 105.825,246.075 107.532 C 251.582 109.999,258.374 114.149,262.515 117.577 C 264.718 119.400,264.408 119.604,274.247 109.869 C 299.776 84.611,302.027 82.105,300.494 80.651 C 298.646 78.897,291.791 73.287,290.988 72.870 C 290.479 72.606,289.321 71.775,288.415 71.023 C 287.510 70.272,286.639 69.657,286.480 69.656 C 286.322 69.656,285.321 69.022,284.257 68.247 C 283.193 67.472,281.768 66.586,281.091 66.278 C 280.413 65.969,279.622 65.513,279.332 65.264 C 278.476 64.530,270.655 60.664,264.644 58.005 C 263.821 57.642,262.476 57.036,261.653 56.660 C 260.831 56.283,259.460 55.795,258.607 55.575 C 257.754 55.356,256.725 54.963,256.320 54.703 C 255.916 54.443,254.953 54.114,254.181 53.973 C 253.408 53.831,252.079 53.345,251.226 52.891 C 250.373 52.438,249.147 52.067,248.500 52.067 C 247.854 52.067,246.500 51.753,245.492 51.370 C 244.484 50.987,242.426 50.505,240.919 50.299 C 239.412 50.092,237.642 49.699,236.986 49.425 C 236.329 49.151,233.834 48.764,231.440 48.566 C 229.047 48.368,225.664 47.969,223.923 47.680 C 219.801 46.995,204.450 47.010,200.352 47.703 M221.328 48.044 C 222.256 48.376,225.173 48.736,228.672 48.951 C 232.747 49.200,234.948 49.495,236.060 49.940 C 236.931 50.288,238.845 50.676,240.314 50.802 C 241.783 50.928,243.556 51.322,244.253 51.677 C 244.951 52.033,246.638 52.434,248.003 52.569 C 249.367 52.703,250.484 52.958,250.484 53.135 C 250.484 53.591,252.406 54.527,253.369 54.540 C 253.814 54.547,254.969 54.941,255.937 55.417 C 256.904 55.893,257.943 56.283,258.246 56.285 C 258.548 56.287,259.616 56.684,260.618 57.168 C 261.621 57.652,262.740 58.047,263.104 58.047 C 263.468 58.047,263.962 58.284,264.202 58.573 C 264.442 58.862,265.287 59.273,266.080 59.486 C 266.873 59.700,267.905 60.176,268.373 60.544 C 268.841 60.912,269.385 61.214,269.581 61.214 C 269.926 61.214,273.329 62.742,274.406 63.381 C 274.697 63.553,275.635 64.026,276.491 64.432 C 277.347 64.839,278.366 65.468,278.756 65.831 C 279.146 66.194,279.723 66.491,280.040 66.491 C 280.357 66.491,281.523 67.195,282.632 68.057 C 283.741 68.918,284.996 69.732,285.420 69.866 C 285.845 70.000,286.983 70.779,287.951 71.598 C 288.918 72.417,290.106 73.208,290.589 73.356 C 291.073 73.504,291.796 73.959,292.196 74.367 C 292.597 74.776,294.097 76.139,295.530 77.397 C 296.964 78.654,298.751 80.245,299.503 80.931 L 300.869 82.180 283.411 99.675 C 263.918 119.212,264.853 118.469,262.309 116.440 C 257.257 112.413,246.982 106.486,243.096 105.358 C 242.612 105.218,242.058 104.980,241.865 104.830 C 241.671 104.680,240.009 104.076,238.171 103.488 C 236.332 102.899,233.799 102.080,232.542 101.666 C 231.284 101.252,229.226 100.764,227.968 100.581 C 226.711 100.398,224.653 100.081,223.395 99.875 C 217.612 98.931,215.810 98.805,210.378 98.961 C 207.147 99.053,204.105 99.312,203.518 99.545 C 202.938 99.774,200.653 100.110,198.441 100.291 C 196.227 100.471,194.092 100.831,193.691 101.092 C 193.291 101.352,192.093 101.761,191.029 102.000 C 186.494 103.022,176.657 107.100,171.152 110.240 C 167.887 112.102,163.941 114.833,162.412 116.290 C 161.995 116.687,160.665 117.764,159.458 118.682 C 156.453 120.969,152.516 124.890,150.046 128.056 C 148.914 129.507,147.738 130.956,147.433 131.275 C 145.857 132.921,143.284 136.847,141.793 139.883 C 141.401 140.680,140.857 141.518,140.584 141.745 C 140.310 141.972,139.980 142.586,139.849 143.110 C 139.718 143.634,139.406 144.301,139.155 144.591 C 138.904 144.881,138.498 145.752,138.252 146.526 C 138.006 147.300,137.511 148.311,137.152 148.772 C 136.793 149.234,136.495 149.946,136.489 150.355 C 136.483 150.765,136.088 151.891,135.612 152.858 C 135.136 153.826,134.746 155.016,134.744 155.502 C 134.742 155.989,134.435 156.956,134.062 157.652 C 133.690 158.348,133.216 160.130,133.009 161.613 C 132.803 163.096,132.393 164.677,132.099 165.127 C 130.645 167.346,130.653 194.215,132.108 197.125 C 132.415 197.739,132.816 199.416,132.999 200.852 C 133.182 202.288,133.574 203.832,133.870 204.284 C 134.166 204.736,134.560 205.908,134.746 206.890 C 134.932 207.871,135.403 209.079,135.792 209.574 C 136.181 210.068,136.502 210.887,136.505 211.393 C 136.508 211.899,136.739 212.709,137.019 213.193 C 137.298 213.676,137.634 214.310,137.763 214.600 C 138.182 215.535,140.780 220.722,141.387 221.835 C 141.711 222.429,142.327 223.361,142.756 223.906 C 143.185 224.451,143.536 225.103,143.536 225.354 C 143.536 225.605,144.288 226.765,145.207 227.931 C 146.126 229.097,147.511 230.946,148.285 232.040 C 150.608 235.323,158.303 242.813,162.468 245.845 C 162.915 246.171,163.944 247.042,164.754 247.781 C 165.564 248.519,166.811 249.428,167.526 249.800 C 168.240 250.172,169.376 250.852,170.051 251.310 C 171.865 252.540,181.395 257.168,182.116 257.168 C 182.336 257.168,183.363 257.562,184.398 258.044 C 185.433 258.526,186.606 258.922,187.005 258.924 C 187.404 258.925,188.394 259.248,189.205 259.639 C 190.016 260.031,191.863 260.502,193.309 260.685 C 194.756 260.869,196.774 261.300,197.794 261.644 C 200.887 262.687,225.101 262.579,228.320 261.508 C 229.578 261.090,231.520 260.666,232.636 260.566 C 233.791 260.462,235.173 260.070,235.844 259.655 C 236.492 259.255,237.495 258.927,238.072 258.927 C 238.649 258.927,239.866 258.531,240.775 258.047 C 241.685 257.564,242.696 257.168,243.021 257.168 C 243.347 257.168,244.407 256.779,245.378 256.304 C 246.348 255.828,247.696 255.189,248.373 254.884 C 250.365 253.985,251.599 253.288,253.597 251.935 C 254.632 251.233,255.977 250.398,256.587 250.079 C 257.197 249.760,258.487 248.776,259.455 247.892 C 260.422 247.008,261.653 245.923,262.189 245.482 C 263.101 244.731,268.382 239.573,269.868 237.982 C 270.236 237.589,270.536 237.146,270.536 237.000 C 270.536 236.853,271.368 235.895,272.383 234.872 C 274.775 232.461,275.460 231.527,275.703 230.343 C 275.812 229.811,276.036 229.376,276.201 229.376 C 276.625 229.376,279.315 225.095,279.324 224.405 C 279.328 224.091,279.561 223.642,279.841 223.410 C 280.122 223.177,280.539 222.406,280.770 221.696 C 281.000 220.986,281.463 220.009,281.799 219.525 C 282.135 219.041,282.527 218.091,282.669 217.414 C 282.811 216.737,283.167 215.912,283.460 215.580 C 283.752 215.248,284.130 214.231,284.301 213.320 C 284.471 212.409,284.847 211.401,285.137 211.081 C 285.836 210.309,285.807 208.824,285.082 208.222 C 284.601 207.823,278.370 207.709,248.935 207.564 L 213.369 207.388 213.369 182.938 L 213.369 158.487 275.104 158.599 C 322.126 158.684,336.902 158.810,337.104 159.127 C 337.250 159.355,337.452 160.097,337.554 160.774 C 337.656 161.451,338.004 162.797,338.326 163.764 C 339.599 167.583,339.560 198.493,338.278 201.905 C 337.957 202.759,337.603 205.055,337.491 207.006 C 337.363 209.235,337.055 211.077,336.664 211.961 C 336.321 212.735,335.870 214.778,335.661 216.500 C 335.444 218.284,335.056 219.880,334.758 220.209 C 334.471 220.526,334.130 221.729,333.999 222.882 C 333.869 224.035,333.482 225.537,333.140 226.220 C 332.798 226.904,332.349 228.376,332.143 229.491 C 331.937 230.606,331.541 231.746,331.264 232.023 C 330.986 232.301,330.647 233.190,330.510 234.000 C 330.374 234.810,329.884 236.182,329.423 237.050 C 328.961 237.917,328.584 238.980,328.584 239.411 C 328.584 239.842,328.354 240.386,328.073 240.620 C 327.791 240.853,327.318 241.881,327.021 242.903 C 326.724 243.926,326.260 244.945,325.991 245.169 C 325.723 245.392,325.406 246.059,325.287 246.651 C 325.169 247.244,324.754 248.175,324.365 248.721 C 323.977 249.266,323.659 249.935,323.659 250.206 C 323.659 250.477,323.263 251.235,322.779 251.891 C 322.296 252.547,321.900 253.278,321.900 253.515 C 321.900 253.753,321.526 254.395,321.068 254.942 C 320.611 255.489,320.116 256.332,319.968 256.816 C 319.821 257.300,319.478 257.933,319.206 258.223 C 318.522 258.956,316.637 261.858,316.629 262.191 C 316.626 262.342,315.831 263.485,314.864 264.732 C 313.896 265.978,313.105 267.091,313.105 267.205 C 313.105 267.415,311.251 269.843,310.290 270.891 C 310.000 271.207,309.288 272.063,308.707 272.792 C 305.301 277.072,299.104 283.290,295.002 286.544 C 292.315 288.676,291.610 289.285,290.828 290.150 C 290.433 290.585,289.913 290.941,289.671 290.941 C 289.430 290.941,289.023 291.145,288.767 291.394 C 288.512 291.643,287.709 292.210,286.983 292.654 C 286.258 293.098,285.664 293.596,285.664 293.760 C 285.664 293.925,285.310 294.172,284.878 294.309 C 284.445 294.447,283.261 295.173,282.245 295.923 C 281.230 296.673,279.723 297.650,278.898 298.093 C 278.072 298.537,277.080 299.077,276.693 299.295 C 276.306 299.513,275.515 299.909,274.934 300.177 C 274.354 300.444,273.562 300.825,273.175 301.023 C 270.658 302.315,264.392 305.013,263.910 305.013 C 263.717 305.013,262.770 305.409,261.807 305.893 C 260.844 306.376,259.681 306.772,259.223 306.772 C 258.764 306.772,257.819 307.078,257.123 307.451 C 256.426 307.824,255.241 308.234,254.489 308.361 C 253.737 308.488,252.208 308.896,251.091 309.268 C 249.973 309.639,247.962 310.099,246.621 310.289 C 245.280 310.479,243.582 310.871,242.848 311.159 C 242.114 311.448,239.834 311.839,237.783 312.028 C 235.732 312.218,232.803 312.653,231.275 312.996 C 226.700 314.021,199.363 313.920,194.195 312.859 C 192.164 312.442,189.479 311.999,188.230 311.874 C 186.980 311.748,185.080 311.355,184.008 311.000 C 182.936 310.645,181.346 310.257,180.475 310.137 C 179.604 310.017,177.942 309.614,176.781 309.241 C 175.620 308.869,173.799 308.331,172.735 308.046 C 170.050 307.329,167.536 306.478,165.875 305.724 C 165.101 305.373,164.072 304.971,163.588 304.831 C 160.561 303.954,148.920 298.341,145.044 295.888 C 143.649 295.006,141.846 293.887,141.039 293.404 C 140.231 292.920,139.046 292.128,138.405 291.645 C 137.763 291.161,136.582 290.369,135.779 289.886 C 134.976 289.402,133.872 288.610,133.326 288.127 C 131.730 286.713,130.550 285.856,127.742 284.074 C 126.268 283.138,116.808 273.839,113.632 270.204 C 112.375 268.765,110.913 267.103,110.384 266.511 C 109.855 265.919,109.143 265.121,108.801 264.736 C 108.459 264.352,108.000 263.696,107.780 263.279 C 107.142 262.066,103.733 257.928,103.207 257.726 C 102.943 257.625,102.726 257.321,102.726 257.052 C 102.726 256.782,102.252 255.964,101.671 255.233 C 101.091 254.503,100.616 253.724,100.616 253.504 C 100.616 253.283,100.299 252.832,99.912 252.500 C 99.525 252.169,99.208 251.698,99.208 251.455 C 99.208 251.211,98.808 250.546,98.319 249.978 C 97.830 249.409,97.334 248.538,97.217 248.043 C 97.101 247.547,96.728 246.825,96.388 246.438 C 96.049 246.051,95.652 245.339,95.507 244.855 C 95.361 244.371,94.958 243.612,94.611 243.167 C 94.264 242.723,93.880 241.903,93.757 241.345 C 93.635 240.787,93.315 240.148,93.047 239.926 C 92.779 239.703,92.371 238.941,92.139 238.230 C 91.908 237.520,91.425 236.562,91.066 236.100 C 90.707 235.639,90.413 234.918,90.413 234.498 C 90.413 234.078,90.018 233.197,89.534 232.542 C 89.050 231.886,88.654 230.927,88.654 230.410 C 88.654 229.893,88.352 229.086,87.982 228.616 C 87.612 228.145,87.138 226.831,86.928 225.695 C 86.717 224.558,86.303 223.360,86.006 223.032 C 85.709 222.704,85.374 221.583,85.260 220.541 C 85.147 219.498,84.760 218.129,84.401 217.498 C 84.042 216.867,83.603 215.187,83.427 213.765 C 83.250 212.343,82.864 210.801,82.567 210.339 C 82.241 209.830,81.892 207.954,81.683 205.582 C 81.439 202.821,81.145 201.372,80.686 200.672 C 79.601 199.016,79.692 163.864,80.788 161.302 C 81.289 160.129,81.623 158.370,81.789 156.025 C 81.955 153.686,82.216 152.307,82.569 151.910 C 82.873 151.568,83.237 150.081,83.423 148.419 C 83.609 146.758,84.024 145.064,84.396 144.442 C 84.753 143.847,85.146 142.580,85.269 141.626 C 85.391 140.673,85.729 139.631,86.019 139.311 C 86.308 138.991,86.716 137.808,86.924 136.683 C 87.132 135.559,87.591 134.226,87.945 133.722 C 88.299 133.218,88.690 132.212,88.813 131.486 C 88.937 130.761,89.170 130.167,89.331 130.167 C 89.654 130.167,90.231 128.801,90.582 127.205 C 90.707 126.639,91.116 125.787,91.491 125.310 C 91.866 124.833,92.172 124.169,92.172 123.835 C 92.172 123.500,92.466 122.848,92.825 122.387 C 93.184 121.925,93.670 120.956,93.906 120.234 C 94.142 119.511,94.477 118.831,94.651 118.724 C 94.825 118.616,95.296 117.862,95.698 117.048 C 96.713 114.993,97.493 113.645,98.418 112.347 C 98.853 111.736,99.208 111.088,99.208 110.906 C 99.208 110.724,99.525 110.289,99.912 109.938 C 100.299 109.588,100.616 109.120,100.616 108.899 C 100.616 108.677,101.368 107.493,102.287 106.266 C 103.206 105.040,104.116 103.777,104.310 103.461 C 104.869 102.547,108.071 98.404,108.864 97.568 C 109.262 97.150,109.853 96.437,110.179 95.985 C 114.135 90.499,132.612 73.175,134.509 73.175 C 134.616 73.175,135.734 72.423,136.993 71.504 C 140.635 68.847,150.321 62.973,151.062 62.973 C 151.137 62.973,153.500 61.868,156.312 60.517 C 159.124 59.167,162.110 57.809,162.947 57.500 C 168.969 55.274,170.281 54.802,171.726 54.342 C 172.622 54.057,173.544 53.595,173.776 53.316 C 174.025 53.016,175.202 52.709,176.651 52.566 C 178.000 52.433,179.675 52.033,180.373 51.677 C 181.070 51.322,182.843 50.928,184.312 50.802 C 185.781 50.676,187.696 50.286,188.566 49.934 C 189.704 49.476,191.859 49.194,196.218 48.934 C 200.330 48.688,202.599 48.402,203.255 48.046 C 204.699 47.263,219.139 47.261,221.328 48.044 " stroke="none" fill="#666464" fill-rule="evenodd"></path><path id="path4" d="M198.241 46.766 C 196.887 46.910,195.145 47.209,194.371 47.429 C 193.597 47.650,191.323 47.993,189.317 48.192 C 187.311 48.392,185.174 48.782,184.568 49.059 C 183.961 49.336,182.515 49.669,181.354 49.798 C 180.193 49.927,178.590 50.314,177.792 50.659 C 176.993 51.003,175.489 51.397,174.450 51.533 C 173.410 51.670,172.049 52.075,171.426 52.434 C 170.803 52.793,169.695 53.191,168.964 53.319 C 168.232 53.447,167.139 53.834,166.534 54.179 C 165.929 54.524,164.900 54.919,164.247 55.058 C 163.595 55.196,162.567 55.609,161.964 55.975 C 161.360 56.341,160.653 56.640,160.392 56.640 C 160.131 56.640,158.330 57.417,156.388 58.367 C 154.447 59.317,152.304 60.343,151.627 60.647 C 150.950 60.951,150.158 61.344,149.868 61.521 C 149.578 61.698,148.945 62.028,148.461 62.255 C 146.257 63.290,141.114 66.399,137.383 68.953 C 136.959 69.244,135.917 69.941,135.068 70.504 C 134.219 71.066,133.312 71.739,133.052 71.999 C 132.792 72.259,132.457 72.471,132.306 72.471 C 132.156 72.471,131.257 73.180,130.309 74.047 C 129.360 74.913,128.480 75.626,128.352 75.630 C 128.087 75.639,124.139 78.934,121.591 81.274 C 117.720 84.828,111.448 91.365,109.722 93.647 C 108.154 95.718,106.600 97.623,105.894 98.341 C 105.506 98.735,105.189 99.193,105.189 99.360 C 105.189 99.526,104.857 99.995,104.451 100.403 C 103.758 101.097,102.946 102.286,99.334 107.890 C 98.532 109.134,97.634 110.421,97.338 110.749 C 97.043 111.077,96.695 111.769,96.566 112.287 C 96.436 112.805,96.028 113.502,95.659 113.837 C 95.289 114.171,94.987 114.636,94.987 114.869 C 94.987 115.102,94.607 115.853,94.143 116.537 C 93.678 117.222,93.182 118.154,93.041 118.609 C 92.899 119.065,92.509 119.833,92.172 120.317 C 91.836 120.800,91.440 121.592,91.293 122.076 C 91.145 122.559,90.742 123.356,90.397 123.847 C 90.052 124.337,89.653 125.366,89.509 126.133 C 89.366 126.901,89.047 127.687,88.801 127.880 C 88.555 128.074,88.177 128.907,87.961 129.733 C 87.745 130.558,87.277 131.745,86.919 132.371 C 86.562 132.997,86.161 134.126,86.029 134.880 C 85.897 135.634,85.569 136.586,85.301 136.995 C 85.032 137.405,84.627 138.607,84.400 139.667 C 84.172 140.727,83.779 141.912,83.525 142.301 C 83.272 142.690,82.898 144.050,82.696 145.323 C 82.493 146.596,82.098 148.100,81.817 148.665 C 81.537 149.230,81.143 151.007,80.942 152.614 C 80.742 154.220,80.334 156.252,80.037 157.129 C 79.739 158.006,79.409 160.174,79.303 161.947 C 79.198 163.721,78.794 167.230,78.406 169.745 C 77.540 175.361,77.606 187.540,78.534 193.316 C 78.845 195.251,79.193 198.364,79.308 200.234 C 79.423 202.104,79.747 204.286,80.029 205.082 C 80.310 205.879,80.718 207.911,80.936 209.598 C 81.155 211.285,81.533 212.982,81.777 213.369 C 82.021 213.755,82.412 215.180,82.645 216.535 C 82.879 217.889,83.286 219.331,83.551 219.739 C 83.815 220.147,84.214 221.493,84.437 222.729 C 84.660 223.966,85.054 225.215,85.312 225.506 C 85.569 225.796,85.890 226.667,86.025 227.441 C 86.160 228.215,86.569 229.371,86.934 230.011 C 87.300 230.651,87.779 231.892,88.000 232.768 C 88.221 233.644,88.605 234.439,88.853 234.534 C 89.102 234.630,89.410 235.324,89.537 236.077 C 89.664 236.830,90.049 237.807,90.391 238.248 C 90.734 238.689,91.204 239.631,91.436 240.341 C 91.667 241.051,92.076 241.814,92.344 242.037 C 92.612 242.259,92.932 242.903,93.056 243.468 C 93.180 244.033,93.446 244.596,93.646 244.720 C 93.846 244.844,94.397 245.756,94.870 246.747 C 96.383 249.915,97.172 251.358,97.507 251.570 C 97.687 251.684,98.104 252.264,98.433 252.859 C 98.763 253.454,99.392 254.588,99.831 255.379 C 100.271 256.169,100.774 256.816,100.951 256.816 C 101.127 256.816,101.368 257.119,101.485 257.489 C 101.603 257.859,102.162 258.769,102.728 259.512 C 103.294 260.254,103.997 261.179,104.290 261.566 C 111.259 270.771,124.088 284.234,127.804 286.241 C 128.564 286.652,128.827 286.849,131.574 289.062 C 132.445 289.763,133.791 290.748,134.565 291.251 C 135.339 291.754,136.051 292.262,136.148 292.380 C 136.245 292.497,137.432 293.282,138.786 294.123 C 140.141 294.965,141.882 296.159,142.656 296.777 C 144.186 297.999,144.343 298.086,151.337 301.583 C 153.949 302.889,156.250 303.958,156.452 303.958 C 156.653 303.958,157.002 304.180,157.227 304.451 C 157.452 304.722,158.060 305.051,158.578 305.181 C 159.096 305.310,160.332 305.801,161.324 306.270 C 162.317 306.740,163.351 307.129,163.622 307.135 C 163.894 307.141,164.908 307.535,165.875 308.011 C 166.843 308.487,167.951 308.879,168.338 308.882 C 168.725 308.885,169.516 309.135,170.097 309.438 C 170.677 309.741,172.181 310.222,173.439 310.508 C 174.697 310.794,176.359 311.253,177.133 311.529 C 177.907 311.804,179.565 312.206,180.818 312.421 C 182.070 312.636,183.372 312.961,183.710 313.142 C 184.049 313.323,185.874 313.691,187.765 313.959 C 189.657 314.227,192.630 314.734,194.371 315.085 C 199.517 316.123,227.188 316.037,232.894 314.965 C 235.119 314.547,237.968 314.105,239.226 313.983 C 240.484 313.861,242.225 313.541,243.096 313.272 C 243.967 313.003,246.104 312.523,247.845 312.205 C 249.587 311.888,251.170 311.502,251.363 311.349 C 251.557 311.196,252.640 310.880,253.770 310.649 C 254.900 310.417,256.484 309.928,257.288 309.563 C 258.093 309.197,259.068 308.894,259.455 308.888 C 259.842 308.882,260.950 308.487,261.917 308.011 C 262.885 307.535,263.920 307.141,264.218 307.135 C 264.515 307.129,265.373 306.811,266.124 306.428 C 266.874 306.045,268.056 305.550,268.749 305.328 C 269.442 305.106,270.246 304.729,270.536 304.491 C 270.827 304.252,271.608 303.875,272.273 303.651 C 272.937 303.428,273.729 303.030,274.032 302.767 C 274.334 302.503,275.163 302.101,275.873 301.873 C 276.583 301.646,277.355 301.230,277.587 300.949 C 277.820 300.669,278.194 300.440,278.419 300.440 C 279.031 300.440,286.415 295.680,287.792 294.398 C 288.140 294.074,288.779 293.619,289.211 293.388 C 289.908 293.015,295.289 288.712,299.738 284.971 C 302.639 282.531,312.049 272.197,312.049 271.451 C 312.049 271.318,312.828 270.274,313.779 269.130 C 314.731 267.987,315.612 266.727,315.738 266.331 C 315.864 265.935,316.111 265.611,316.287 265.611 C 316.464 265.611,316.939 265.018,317.343 264.292 C 318.210 262.733,319.372 260.808,320.229 259.509 C 321.706 257.270,322.111 256.659,322.694 255.796 C 323.033 255.293,323.638 254.248,324.037 253.474 C 324.435 252.700,324.977 251.671,325.239 251.187 C 325.502 250.704,326.227 249.200,326.851 247.845 C 327.475 246.491,328.259 244.828,328.593 244.151 C 328.928 243.474,329.400 242.287,329.642 241.513 C 329.885 240.739,330.221 239.930,330.390 239.716 C 330.559 239.502,331.022 238.393,331.418 237.253 C 331.813 236.113,332.540 234.072,333.033 232.718 C 334.034 229.964,335.032 226.629,336.031 222.691 C 336.400 221.240,336.927 219.261,337.202 218.294 C 337.478 217.326,337.873 215.506,338.081 214.248 C 338.288 212.990,338.702 210.853,339.000 209.499 C 341.437 198.431,342.141 178.398,340.514 166.403 C 339.495 158.889,339.520 158.991,338.436 157.907 L 337.433 156.904 275.184 156.904 L 212.936 156.904 212.009 157.633 L 211.082 158.362 211.082 182.810 C 211.082 198.801,211.206 207.491,211.442 207.931 C 212.296 209.526,211.509 209.489,248.373 209.675 L 283.377 209.850 283.491 210.840 C 283.555 211.398,283.233 212.548,282.752 213.478 C 282.284 214.385,281.799 215.651,281.676 216.291 C 281.553 216.931,281.216 217.690,280.929 217.978 C 280.641 218.266,280.242 219.109,280.042 219.852 C 279.842 220.594,279.452 221.390,279.176 221.619 C 278.899 221.849,278.571 222.502,278.446 223.071 C 278.321 223.640,278.012 224.312,277.760 224.564 C 277.508 224.816,276.960 225.645,276.541 226.407 C 275.026 229.163,274.575 229.898,274.186 230.249 C 273.968 230.446,273.652 230.866,273.483 231.184 C 273.080 231.939,267.779 238.041,266.596 239.111 C 266.344 239.339,265.620 240.091,264.987 240.783 C 264.353 241.474,263.688 242.040,263.509 242.040 C 263.330 242.040,263.048 242.283,262.882 242.580 C 262.586 243.109,260.547 244.872,258.218 246.614 C 257.571 247.098,256.651 247.850,256.174 248.285 C 255.697 248.720,255.116 249.077,254.884 249.077 C 254.652 249.077,254.196 249.371,253.870 249.731 C 253.544 250.092,252.649 250.670,251.881 251.016 C 251.112 251.363,250.484 251.768,250.484 251.917 C 250.484 252.066,249.890 252.376,249.164 252.606 C 248.439 252.837,247.529 253.221,247.142 253.460 C 246.755 253.699,245.805 254.097,245.031 254.345 C 244.257 254.592,243.384 255.003,243.090 255.258 C 242.797 255.512,241.797 255.891,240.869 256.099 C 239.941 256.307,238.835 256.697,238.412 256.966 C 237.989 257.235,236.693 257.646,235.532 257.880 C 234.371 258.113,233.026 258.507,232.542 258.755 C 232.058 259.003,230.158 259.387,228.320 259.609 C 226.482 259.831,223.979 260.244,222.757 260.525 C 219.640 261.245,205.581 261.246,202.821 260.527 C 201.741 260.245,199.250 259.838,197.285 259.622 C 195.320 259.406,193.306 259.021,192.810 258.766 C 192.314 258.512,190.965 258.109,189.812 257.871 C 188.659 257.634,187.392 257.229,186.997 256.971 C 186.603 256.714,185.491 256.327,184.526 256.112 C 183.562 255.897,182.533 255.511,182.240 255.255 C 181.946 254.998,181.310 254.675,180.827 254.535 C 179.929 254.277,176.503 252.752,175.550 252.186 C 175.259 252.014,174.356 251.556,173.541 251.169 C 172.727 250.781,171.969 250.314,171.856 250.132 C 171.743 249.949,170.984 249.505,170.170 249.144 C 169.356 248.783,168.472 248.224,168.207 247.902 C 167.941 247.581,167.506 247.318,167.239 247.318 C 166.973 247.318,166.755 247.161,166.755 246.970 C 166.755 246.779,166.100 246.185,165.300 245.651 C 164.500 245.116,163.464 244.423,162.997 244.111 C 161.529 243.129,158.772 240.593,154.817 236.588 C 152.715 234.459,150.663 232.384,150.256 231.977 C 149.849 231.570,149.516 231.130,149.516 231.000 C 149.516 230.869,148.764 229.773,147.845 228.564 C 145.364 225.299,144.699 224.318,144.077 223.003 C 143.767 222.348,143.102 221.099,142.599 220.229 C 140.519 216.626,137.203 209.240,137.203 208.211 C 137.203 207.977,136.907 207.142,136.546 206.356 C 135.665 204.439,134.478 199.695,133.855 195.602 C 133.575 193.764,133.175 191.310,132.966 190.150 C 132.365 186.812,132.166 179.188,132.589 175.726 C 133.976 164.367,135.549 157.641,138.432 150.748 C 139.348 148.557,142.902 141.349,143.548 140.369 C 143.868 139.886,144.586 138.777,145.144 137.907 C 146.541 135.728,149.902 131.123,150.408 130.695 C 150.637 130.501,151.683 129.314,152.734 128.056 C 154.728 125.668,158.351 121.996,159.771 120.922 C 161.042 119.961,165.799 116.176,166.491 115.574 C 166.829 115.280,167.210 115.040,167.337 115.040 C 167.464 115.040,168.058 114.671,168.656 114.221 C 170.318 112.971,175.243 110.288,178.467 108.876 C 185.294 105.885,187.495 105.080,191.029 104.281 C 192.287 103.997,193.949 103.534,194.723 103.253 C 202.377 100.476,220.916 100.571,230.431 103.437 C 231.689 103.816,233.588 104.352,234.653 104.628 C 238.701 105.678,246.128 108.588,248.725 110.140 C 249.015 110.314,249.807 110.694,250.484 110.985 C 251.161 111.276,251.953 111.675,252.243 111.872 C 252.533 112.069,253.697 112.822,254.829 113.547 C 257.145 115.028,261.493 118.163,262.739 119.249 C 264.717 120.974,264.160 121.437,283.595 101.935 C 293.477 92.018,301.720 83.611,301.913 83.252 C 302.865 81.478,301.000 79.112,295.495 75.110 C 294.696 74.529,293.683 73.698,293.243 73.263 C 292.803 72.828,292.350 72.471,292.236 72.471 C 292.122 72.471,291.003 71.719,289.750 70.800 C 288.497 69.881,286.650 68.654,285.645 68.074 C 284.641 67.493,283.566 66.742,283.258 66.405 C 282.949 66.067,282.177 65.620,281.542 65.410 C 280.907 65.201,280.387 64.902,280.387 64.747 C 280.387 64.592,279.872 64.262,279.244 64.014 C 278.615 63.766,277.784 63.291,277.397 62.959 C 277.010 62.627,276.099 62.166,275.374 61.933 C 274.648 61.701,274.055 61.378,274.055 61.215 C 274.055 61.052,273.275 60.660,272.323 60.343 C 271.370 60.027,270.401 59.539,270.169 59.260 C 269.937 58.980,269.562 58.751,269.336 58.751 C 269.111 58.751,268.312 58.438,267.561 58.055 C 266.811 57.673,265.629 57.180,264.936 56.961 C 264.243 56.742,263.181 56.281,262.576 55.936 C 261.971 55.590,260.942 55.193,260.290 55.052 C 259.637 54.911,258.541 54.511,257.855 54.164 C 257.169 53.817,255.991 53.417,255.237 53.276 C 254.483 53.134,253.382 52.737,252.791 52.394 C 252.199 52.050,250.923 51.657,249.956 51.521 C 248.989 51.384,247.770 51.055,247.248 50.790 C 246.726 50.526,245.064 50.129,243.554 49.909 C 242.044 49.690,240.386 49.296,239.870 49.035 C 239.353 48.773,236.899 48.328,234.417 48.044 C 231.934 47.761,229.349 47.341,228.672 47.111 C 227.238 46.625,202.234 46.342,198.241 46.766 M223.219 47.341 C 225.347 47.637,229.068 48.095,231.486 48.359 C 233.905 48.623,237.136 49.169,238.667 49.573 C 240.197 49.977,241.819 50.308,242.271 50.308 C 242.723 50.308,244.004 50.616,245.117 50.992 C 246.231 51.369,248.012 51.835,249.077 52.029 C 250.141 52.223,251.639 52.706,252.405 53.104 C 253.172 53.501,254.121 53.831,254.516 53.837 C 254.910 53.843,256.025 54.237,256.992 54.713 C 257.960 55.189,259.035 55.580,259.383 55.582 C 259.730 55.583,260.758 55.981,261.667 56.464 C 262.575 56.948,263.526 57.344,263.780 57.344 C 264.033 57.344,264.826 57.653,265.542 58.031 C 267.490 59.060,272.094 61.214,272.346 61.214 C 272.620 61.214,280.469 65.564,282.146 66.645 C 282.823 67.082,284.327 68.044,285.488 68.784 C 286.649 69.523,288.178 70.578,288.886 71.128 C 289.594 71.678,290.584 72.341,291.086 72.601 C 291.587 72.861,292.749 73.739,293.668 74.552 C 294.587 75.364,296.605 77.058,298.153 78.316 C 300.836 80.496,301.415 81.187,301.470 82.278 C 301.516 83.176,266.807 117.957,265.102 118.721 C 264.110 119.166,263.978 119.116,262.112 117.595 C 255.613 112.302,245.609 106.985,237.291 104.405 C 235.743 103.925,233.124 103.114,231.470 102.603 C 216.445 97.961,195.596 100.049,178.173 107.940 C 163.873 114.416,149.086 127.908,142.279 140.689 C 141.806 141.578,141.272 142.542,141.094 142.832 C 140.915 143.122,140.267 144.468,139.654 145.822 C 139.041 147.177,138.251 148.918,137.900 149.692 C 136.512 152.747,134.209 159.910,133.685 162.804 C 133.500 163.824,133.111 165.578,132.820 166.701 C 131.315 172.508,131.413 189.971,132.986 196.213 C 133.365 197.715,133.677 199.305,133.680 199.746 C 133.686 200.631,135.119 205.348,136.215 208.091 C 136.602 209.059,137.040 210.344,137.189 210.947 C 137.338 211.550,137.708 212.500,138.011 213.058 C 138.315 213.616,139.149 215.331,139.866 216.870 C 144.475 226.772,152.967 237.358,161.611 243.975 C 163.127 245.136,165.065 246.651,165.917 247.342 C 167.725 248.807,174.787 252.857,177.836 254.179 C 178.997 254.682,180.580 255.386,181.354 255.743 C 183.648 256.800,187.486 258.223,188.043 258.223 C 188.327 258.223,189.709 258.606,191.114 259.074 C 192.518 259.542,194.538 260.025,195.602 260.148 C 196.667 260.271,198.487 260.640,199.648 260.968 C 202.821 261.866,222.993 261.853,225.904 260.952 C 226.994 260.615,229.124 260.166,230.639 259.956 C 232.153 259.745,233.795 259.368,234.286 259.117 C 234.778 258.866,236.007 258.486,237.018 258.272 C 238.028 258.058,239.451 257.564,240.179 257.174 C 240.907 256.784,241.725 256.464,241.997 256.464 C 243.029 256.464,252.546 251.781,254.224 250.447 C 254.929 249.887,255.638 249.428,255.799 249.428 C 256.426 249.428,264.532 242.337,267.299 239.368 C 273.495 232.718,274.088 231.966,277.101 226.947 C 278.171 225.164,280.737 220.035,280.747 219.661 C 280.751 219.490,281.064 218.953,281.442 218.470 C 281.821 217.986,282.134 217.274,282.139 216.887 C 282.145 216.500,282.469 215.658,282.859 215.017 C 283.734 213.582,284.398 210.637,284.108 209.479 L 283.892 208.619 248.718 208.619 C 213.897 208.619,213.537 208.612,212.834 207.908 C 211.915 206.990,211.879 159.294,212.796 158.189 C 213.566 157.262,336.636 157.296,337.476 158.224 C 340.294 161.338,341.402 187.613,339.304 201.583 C 337.791 211.654,337.451 213.376,335.382 221.460 C 333.976 226.951,330.876 236.419,329.852 238.347 C 329.544 238.927,329.291 239.578,329.290 239.793 C 329.287 240.335,326.268 247.068,324.259 251.011 C 322.748 253.977,321.896 255.500,321.405 256.113 C 321.172 256.403,320.131 258.065,319.092 259.807 C 316.392 264.333,311.306 271.394,308.324 274.758 C 302.727 281.072,302.306 281.502,298.290 285.027 C 290.915 291.499,281.765 297.875,274.875 301.343 C 265.192 306.217,256.553 309.295,246.340 311.511 C 244.158 311.985,242.239 312.454,242.077 312.554 C 241.818 312.715,237.734 313.276,227.265 314.591 C 223.247 315.095,202.562 315.084,198.769 314.575 C 170.642 310.803,153.125 303.859,131.417 287.879 C 119.240 278.914,107.420 265.892,97.954 251.011 C 97.194 249.816,96.484 248.481,92.905 241.513 C 90.472 236.776,89.620 234.912,88.321 231.486 C 87.991 230.616,87.479 229.349,87.182 228.672 C 86.408 226.905,85.542 224.294,84.788 221.460 C 84.428 220.106,83.884 218.409,83.580 217.689 C 83.275 216.970,83.026 216.001,83.026 215.536 C 83.026 215.072,82.709 213.700,82.322 212.489 C 81.935 211.277,81.390 208.842,81.110 207.078 C 80.831 205.313,80.362 202.603,80.068 201.055 C 79.156 196.245,78.411 181.033,78.819 175.550 C 79.013 172.938,79.315 168.742,79.490 166.227 C 79.664 163.712,80.134 160.308,80.534 158.663 C 80.934 157.018,81.263 155.074,81.264 154.342 C 81.265 153.611,81.575 152.096,81.952 150.977 C 82.329 149.858,82.794 147.972,82.985 146.786 C 83.176 145.600,83.524 144.270,83.760 143.830 C 83.995 143.391,84.464 141.997,84.803 140.733 C 85.499 138.131,86.388 135.498,87.182 133.685 C 87.777 132.326,88.694 129.958,89.770 127.001 C 90.158 125.937,90.698 124.816,90.972 124.511 C 91.245 124.205,91.469 123.827,91.469 123.671 C 91.469 123.323,93.956 118.331,95.330 115.919 C 95.882 114.952,96.584 113.685,96.892 113.105 C 97.200 112.524,97.920 111.337,98.493 110.466 C 99.066 109.595,99.797 108.408,100.116 107.828 C 100.436 107.247,100.973 106.456,101.310 106.069 C 101.646 105.682,102.846 104.019,103.976 102.375 C 115.492 85.619,134.828 69.415,153.914 60.525 C 156.042 59.534,158.252 58.480,158.824 58.184 C 159.796 57.680,163.674 56.140,168.162 54.475 C 169.226 54.080,170.888 53.438,171.856 53.049 C 172.823 52.659,174.485 52.194,175.550 52.014 C 176.614 51.835,178.276 51.398,179.244 51.043 C 180.211 50.688,181.932 50.285,183.068 50.146 C 184.204 50.008,185.774 49.669,186.557 49.393 C 187.340 49.116,190.210 48.650,192.935 48.357 C 195.660 48.064,199.314 47.611,201.055 47.351 C 205.589 46.675,218.380 46.669,223.219 47.341 " stroke="none" fill="#888888" fill-rule="evenodd"></path></g></svg>