<svg id="svg" version="1.1" xmlns="http://www.w3.org/2000/svg" xmlns:xlink="http://www.w3.org/1999/xlink" width="600" height="500" viewBox="0, 0, 400,300"><g id="svgg"><path id="path0" d="M158.866 60.969 C 157.012 61.612,155.782 62.857,155.108 64.775 C 154.835 65.552,154.800 70.175,154.800 105.818 L 154.800 145.985 155.229 147.131 C 155.799 148.655,157.145 150.001,158.669 150.571 L 159.815 151.000 200.000 151.000 C 239.749 151.000,240.197 150.996,241.258 150.598 C 242.714 150.054,243.863 149.019,244.538 147.645 L 245.100 146.500 245.100 105.800 L 245.100 65.100 244.542 63.964 C 243.910 62.676,242.941 61.737,241.610 61.121 L 240.700 60.700 200.300 60.656 C 161.925 60.613,159.848 60.629,158.866 60.969 M172.971 68.685 C 174.350 69.398,174.304 71.421,172.892 72.090 C 171.947 72.539,163.661 72.545,162.796 72.098 C 161.439 71.396,161.415 69.439,162.755 68.712 C 163.538 68.287,172.158 68.264,172.971 68.685 M189.800 68.655 C 190.707 69.105,191.105 70.252,190.666 71.148 C 190.068 72.370,189.859 72.411,184.533 72.352 L 179.767 72.300 179.183 71.647 C 178.374 70.741,178.404 69.956,179.280 69.080 L 179.960 68.400 184.630 68.403 C 187.946 68.405,189.445 68.478,189.800 68.655 M206.771 68.685 C 208.150 69.398,208.104 71.421,206.692 72.090 C 205.747 72.539,197.461 72.545,196.596 72.098 C 195.216 71.384,195.264 69.166,196.671 68.598 C 197.447 68.285,206.142 68.360,206.771 68.685 M223.600 68.655 C 224.443 69.074,224.881 70.219,224.525 71.071 C 223.993 72.345,223.591 72.428,218.273 72.360 L 213.566 72.300 212.983 71.647 C 212.174 70.741,212.204 69.956,213.080 69.080 L 213.760 68.400 218.430 68.403 C 221.746 68.405,223.245 68.478,223.600 68.655 M237.615 76.785 L 238.200 77.369 238.200 109.673 L 238.200 141.978 237.717 142.539 L 237.235 143.100 200.000 143.100 L 162.765 143.100 162.283 142.539 L 161.800 141.978 161.800 109.673 L 161.800 77.369 162.385 76.785 L 162.969 76.200 200.000 76.200 L 237.031 76.200 237.615 76.785 M165.600 109.700 L 165.600 139.200 200.000 139.200 L 234.400 139.200 234.400 109.700 L 234.400 80.200 200.000 80.200 L 165.600 80.200 165.600 109.700 M205.400 84.774 C 225.087 89.317,232.179 113.421,218.000 127.600 C 201.943 143.657,174.600 132.316,174.600 109.600 C 174.600 93.502,189.873 81.191,205.400 84.774 M196.000 88.497 C 179.274 91.835,172.717 112.092,184.366 124.440 C 196.997 137.830,219.340 130.209,221.423 111.800 C 223.006 97.811,209.834 85.736,196.000 88.497 M201.329 93.655 C 201.566 93.900,202.634 96.187,203.704 98.737 L 205.650 103.373 206.875 103.493 C 207.549 103.559,209.928 103.776,212.163 103.974 C 216.717 104.378,217.083 104.524,217.329 106.040 C 217.479 106.966,216.974 107.519,212.519 111.300 C 209.388 113.958,209.226 114.130,209.331 114.700 C 209.391 115.030,209.922 117.348,210.510 119.850 C 211.668 124.782,211.682 125.238,210.692 125.887 C 209.666 126.559,209.090 126.344,204.546 123.600 C 202.178 122.170,200.139 121.000,200.015 121.000 C 199.891 121.000,197.849 122.170,195.477 123.600 C 190.639 126.517,190.134 126.679,189.137 125.639 C 188.393 124.863,188.426 124.486,189.715 118.952 C 190.329 116.318,190.801 114.144,190.765 114.119 C 190.078 113.649,183.095 107.425,182.870 107.082 C 182.455 106.449,182.651 105.410,183.301 104.799 C 183.736 104.390,190.243 103.554,194.123 103.408 C 194.246 103.404,195.224 101.308,196.297 98.750 C 197.371 96.192,198.395 93.932,198.574 93.726 C 199.302 92.892,200.562 92.859,201.329 93.655 M198.578 103.429 C 196.953 107.277,197.186 107.107,193.032 107.478 C 191.234 107.639,189.723 107.811,189.673 107.860 C 189.624 107.910,190.706 108.918,192.078 110.101 C 195.310 112.887,195.219 112.626,194.314 116.544 C 193.913 118.280,193.543 119.821,193.491 119.970 C 193.394 120.250,193.709 120.080,197.388 117.870 C 199.986 116.309,200.014 116.309,202.612 117.870 C 203.774 118.568,205.132 119.378,205.631 119.670 L 206.537 120.201 205.747 116.793 C 204.772 112.587,204.668 112.906,207.943 110.083 C 210.885 107.547,211.009 107.777,206.500 107.414 C 202.884 107.124,203.030 107.238,201.422 103.429 C 200.718 101.763,200.078 100.400,200.000 100.400 C 199.922 100.400,199.282 101.763,198.578 103.429 M162.924 175.109 C 162.856 175.287,162.800 178.575,162.800 182.416 C 162.800 186.257,162.772 189.400,162.738 189.400 C 162.704 189.400,162.200 188.941,161.618 188.380 C 156.875 183.808,148.060 185.534,145.009 191.631 C 142.834 195.975,142.818 206.477,144.978 210.757 C 148.146 217.033,156.715 218.743,161.608 214.077 L 162.800 212.939 162.803 214.320 C 162.807 216.235,162.797 216.226,165.017 216.158 L 166.900 216.100 166.900 195.500 L 166.900 174.900 164.974 174.843 C 163.351 174.795,163.029 174.837,162.924 175.109 M322.000 195.500 L 322.000 216.200 324.000 216.200 L 326.000 216.200 326.000 195.500 L 326.000 174.800 324.000 174.800 L 322.000 174.800 322.000 195.500 M337.540 178.726 C 337.463 178.804,337.400 180.517,337.400 182.533 L 337.400 186.200 335.516 186.200 C 332.921 186.200,333.000 186.143,333.000 188.000 C 333.000 189.856,332.922 189.800,335.505 189.800 L 337.378 189.800 337.441 200.550 C 337.503 211.139,337.510 211.317,337.950 212.408 C 339.058 215.153,341.616 216.289,346.400 216.162 L 348.700 216.100 348.758 214.475 C 348.825 212.580,348.859 212.608,346.500 212.602 C 344.686 212.597,343.758 212.326,342.865 211.542 C 341.474 210.321,341.507 210.596,341.440 199.650 L 341.379 189.800 344.803 189.800 C 349.024 189.800,349.000 189.810,349.000 188.033 C 349.000 186.151,349.109 186.200,344.964 186.200 L 341.409 186.200 341.354 182.450 L 341.300 178.700 339.490 178.643 C 338.495 178.612,337.617 178.649,337.540 178.726 M89.669 186.005 C 86.176 186.635,83.098 188.888,81.615 191.899 C 79.573 196.047,79.695 206.137,81.840 210.597 C 85.094 217.359,95.426 218.946,101.285 213.584 C 103.928 211.165,104.099 210.309,102.164 209.179 L 100.727 208.340 100.314 208.886 C 97.740 212.284,95.294 213.413,91.441 212.981 C 86.956 212.478,84.531 209.641,84.362 204.700 L 84.300 202.900 94.200 202.800 L 104.100 202.700 104.095 199.500 C 104.079 189.631,98.500 184.412,89.669 186.005 M123.300 186.002 C 120.975 186.334,119.197 187.207,117.834 188.686 C 116.760 189.851,116.800 189.877,116.800 188.021 C 116.800 186.172,116.832 186.200,114.698 186.200 C 112.382 186.200,112.600 184.636,112.603 201.264 C 112.605 209.204,112.680 215.816,112.770 215.958 C 112.889 216.146,113.445 216.200,114.817 216.158 L 116.700 216.100 116.803 205.500 C 116.916 193.826,116.879 194.169,118.214 192.310 C 120.687 188.866,126.379 188.498,129.275 191.594 C 131.331 193.792,131.392 194.220,131.397 206.350 L 131.400 216.200 133.400 216.200 L 135.400 216.200 135.400 205.242 C 135.400 196.121,135.349 194.090,135.098 193.126 C 133.771 188.030,129.050 185.179,123.300 186.002 M185.100 186.101 C 179.601 187.240,176.474 191.235,175.787 198.000 C 174.589 209.780,179.052 216.585,188.002 216.626 C 197.140 216.668,201.467 209.843,200.191 197.402 C 199.342 189.130,193.088 184.447,185.100 186.101 M267.476 185.986 C 263.177 186.673,259.956 189.159,259.084 192.461 C 258.774 193.637,258.928 193.731,261.497 193.928 L 263.169 194.057 263.403 193.178 C 264.536 188.909,273.348 187.987,275.945 191.866 C 276.786 193.123,276.987 193.877,277.136 196.339 C 277.286 198.823,277.935 198.570,271.200 198.653 C 264.667 198.733,262.586 199.356,260.051 201.995 C 257.106 205.060,257.015 210.979,259.868 213.861 C 263.591 217.622,271.821 217.619,276.006 213.856 C 277.143 212.835,277.200 212.877,277.200 214.733 L 277.200 216.200 279.200 216.200 L 281.200 216.200 281.200 205.142 C 281.200 193.094,281.178 192.822,280.043 190.727 C 278.059 187.063,272.905 185.119,267.476 185.986 M218.924 186.210 C 217.035 186.684,215.408 187.879,213.759 190.003 L 213.219 190.700 213.209 188.657 C 213.201 186.847,213.156 186.590,212.813 186.407 C 212.360 186.165,209.616 186.133,209.249 186.366 C 209.050 186.492,209.008 189.615,209.049 201.313 L 209.100 216.100 211.044 216.157 C 213.456 216.228,213.190 217.501,213.251 205.600 L 213.300 195.900 213.875 194.656 C 215.371 191.417,219.743 189.492,223.092 190.598 C 223.496 190.731,223.876 190.791,223.936 190.730 C 224.135 190.532,224.816 187.330,224.716 187.068 C 224.424 186.309,220.718 185.759,218.924 186.210 M51.233 186.375 C 51.023 186.509,52.030 189.703,55.947 201.322 L 60.928 216.100 63.214 216.100 L 65.500 216.100 70.439 201.500 C 73.155 193.470,75.382 186.800,75.389 186.677 C 75.402 186.409,71.653 186.165,71.196 186.405 C 71.009 186.504,69.488 190.985,67.218 198.132 C 65.196 204.495,63.476 209.827,63.396 209.982 C 63.155 210.443,63.034 210.101,59.212 198.100 C 57.027 191.238,55.451 186.600,55.253 186.450 C 54.877 186.165,51.659 186.105,51.233 186.375 M229.629 186.378 C 229.414 186.514,230.383 189.595,234.329 201.325 L 239.300 216.100 241.590 216.100 L 243.879 216.100 248.829 201.500 C 251.551 193.470,253.783 186.800,253.789 186.677 C 253.802 186.408,250.049 186.164,249.600 186.406 C 249.419 186.503,247.824 191.187,245.573 198.234 C 243.275 205.428,241.751 209.900,241.597 209.900 C 241.443 209.900,239.935 205.460,237.657 198.300 C 235.519 191.580,233.831 186.595,233.645 186.450 C 233.276 186.163,230.059 186.105,229.629 186.378 M289.840 186.440 C 289.525 186.755,289.501 206.871,289.813 208.796 C 291.016 216.209,302.101 219.518,307.100 213.958 C 308.195 212.740,308.199 212.741,308.203 214.350 C 308.207 216.231,308.201 216.226,310.417 216.158 L 312.300 216.100 312.351 201.313 C 312.392 189.615,312.350 186.492,312.151 186.366 C 311.742 186.106,308.914 186.172,308.542 186.450 C 308.239 186.677,308.203 187.669,308.154 197.300 L 308.100 207.900 307.580 209.009 C 305.081 214.336,296.913 214.424,294.477 209.149 L 293.900 207.900 293.842 197.310 C 293.802 190.101,293.714 186.638,293.567 186.460 C 293.282 186.117,290.180 186.100,289.840 186.440 M95.695 190.168 C 98.332 191.402,99.649 193.484,100.008 196.984 C 100.128 198.150,100.145 199.135,100.048 199.232 C 99.953 199.327,96.371 199.381,92.088 199.352 L 84.300 199.300 84.362 197.900 C 84.663 191.106,89.966 187.488,95.695 190.168 M157.200 189.614 C 160.791 190.429,162.586 193.827,162.755 200.129 C 162.993 209.015,160.665 213.065,155.340 213.029 C 150.009 212.994,147.587 209.403,147.579 201.526 C 147.570 192.715,151.178 188.247,157.200 189.614 M189.958 189.608 C 195.169 190.810,197.453 197.161,195.893 206.109 C 194.292 215.289,181.985 215.569,180.159 206.467 C 179.832 204.837,179.847 197.429,180.181 195.900 C 181.206 191.205,185.342 188.543,189.958 189.608 M277.088 204.900 C 277.067 209.895,275.497 211.923,270.897 212.897 C 264.672 214.216,260.230 210.310,262.473 205.492 C 263.768 202.712,266.332 201.812,272.800 201.865 L 277.100 201.900 277.088 204.900 " stroke="none" fill="#fad091" fill-rule="evenodd"></path><path id="path1" d="M0.000 150.000 L 0.000 300.000 200.000 300.000 L 400.000 300.000 400.000 150.000 L 400.000 0.000 200.000 0.000 L 0.000 0.000 0.000 150.000 M241.617 61.024 C 243.037 61.690,244.110 62.763,244.776 64.183 L 245.300 65.300 245.300 105.800 L 245.300 146.300 244.776 147.417 C 244.110 148.837,243.037 149.910,241.617 150.576 L 240.500 151.100 200.000 151.100 L 159.500 151.100 158.383 150.576 C 156.963 149.910,155.890 148.837,155.224 147.417 L 154.700 146.300 154.700 105.800 L 154.700 65.300 155.224 64.183 C 156.104 62.306,157.736 60.993,159.669 60.607 C 160.126 60.516,178.500 60.454,200.500 60.470 L 240.500 60.500 241.617 61.024 M162.360 69.209 C 161.608 69.961,161.669 71.024,162.504 71.750 C 163.093 72.262,172.136 72.462,173.030 71.984 C 173.728 71.610,174.058 70.526,173.720 69.716 C 173.269 68.638,173.067 68.600,167.798 68.600 L 162.969 68.600 162.360 69.209 M179.291 69.091 C 178.930 69.452,178.800 69.798,178.800 70.400 C 178.800 71.002,178.930 71.348,179.291 71.709 L 179.782 72.200 184.706 72.200 L 189.631 72.200 190.215 71.615 C 190.961 70.870,190.984 70.049,190.282 69.215 L 189.764 68.600 184.773 68.600 L 179.782 68.600 179.291 69.091 M196.185 69.185 C 195.786 69.584,195.600 69.970,195.600 70.400 C 195.600 70.830,195.786 71.216,196.185 71.615 L 196.769 72.200 201.662 72.200 C 207.081 72.200,207.217 72.170,207.579 70.884 C 208.139 68.896,207.363 68.600,201.598 68.600 L 196.769 68.600 196.185 69.185 M213.091 69.091 C 212.730 69.452,212.600 69.798,212.600 70.400 C 212.600 71.002,212.730 71.348,213.091 71.709 L 213.582 72.200 218.506 72.200 L 223.431 72.200 224.015 71.615 C 224.761 70.870,224.784 70.049,224.082 69.215 L 223.564 68.600 218.573 68.600 L 213.582 68.600 213.091 69.091 M163.300 76.369 C 162.655 76.580,162.274 76.871,162.029 77.337 C 161.860 77.660,161.800 86.117,161.800 109.802 L 161.800 141.831 162.385 142.415 L 162.969 143.000 200.000 143.000 L 237.031 143.000 237.615 142.415 L 238.200 141.831 238.200 109.825 C 238.200 76.456,238.219 77.175,237.336 76.589 C 236.876 76.284,164.219 76.068,163.300 76.369 M234.400 109.700 L 234.400 139.400 200.000 139.400 L 165.600 139.400 165.600 109.700 L 165.600 80.000 200.000 80.000 L 234.400 80.000 234.400 109.700 M195.100 84.799 C 174.961 88.891,167.713 113.853,182.548 128.025 C 198.567 143.330,225.271 131.879,225.281 109.700 C 225.289 93.730,210.637 81.642,195.100 84.799 M205.255 88.677 C 220.496 92.594,226.663 110.816,216.918 123.133 C 206.668 136.088,186.049 133.051,179.900 117.681 C 173.401 101.436,188.353 84.333,205.255 88.677 M198.901 93.650 C 198.549 93.954,197.739 95.615,196.403 98.770 C 195.316 101.339,194.398 103.464,194.363 103.493 C 194.328 103.521,192.015 103.741,189.223 103.980 C 183.207 104.495,182.820 104.631,182.806 106.228 C 182.798 107.152,182.773 107.125,187.222 110.966 L 190.944 114.180 189.751 119.297 C 188.434 124.943,188.427 125.293,189.618 125.909 C 190.558 126.396,190.807 126.292,195.484 123.477 L 200.008 120.753 204.553 123.495 C 209.585 126.529,209.954 126.643,210.972 125.470 C 211.567 124.785,211.552 124.663,210.143 118.745 L 209.059 114.191 212.680 111.070 C 217.176 107.194,217.202 107.166,217.194 106.239 C 217.180 104.629,216.793 104.492,210.773 103.970 C 207.956 103.726,205.638 103.437,205.560 103.320 C 205.484 103.205,204.596 101.128,203.588 98.705 C 201.291 93.187,200.467 92.298,198.901 93.650 M201.392 103.106 C 203.079 107.158,202.884 106.998,206.545 107.322 C 208.170 107.466,209.748 107.587,210.050 107.592 C 210.919 107.605,210.752 107.818,208.099 110.089 C 204.711 112.989,204.865 112.512,205.898 116.922 C 206.281 118.560,206.596 120.009,206.598 120.143 C 206.599 120.277,205.259 119.579,203.621 118.593 C 201.517 117.327,200.453 116.800,200.000 116.800 C 199.547 116.800,198.483 117.327,196.379 118.593 C 194.741 119.579,193.401 120.277,193.402 120.143 C 193.404 120.009,193.719 118.560,194.102 116.922 C 195.138 112.502,195.303 113.001,191.819 110.008 C 190.488 108.865,189.400 107.870,189.400 107.796 C 189.400 107.723,190.976 107.528,192.903 107.364 C 197.191 106.997,196.878 107.231,198.600 103.112 C 199.315 101.402,199.945 100.002,200.000 100.002 C 200.055 100.002,200.681 101.399,201.392 103.106 M148.758 148.450 L 148.700 150.300 128.350 150.351 L 108.000 150.402 108.000 148.501 L 108.000 146.600 128.408 146.600 L 148.815 146.600 148.758 148.450 M292.000 148.501 L 292.000 150.402 271.650 150.351 L 251.300 150.300 251.242 148.450 L 251.185 146.600 271.592 146.600 L 292.000 146.600 292.000 148.501 M348.742 161.488 C 350.023 162.264,350.020 163.538,348.733 164.317 C 347.729 164.924,52.263 164.919,51.258 164.312 C 49.737 163.392,50.071 161.783,51.900 161.220 C 53.295 160.791,348.029 161.057,348.742 161.488 M166.886 174.914 C 167.366 175.394,167.366 215.606,166.886 216.086 C 166.493 216.478,163.418 216.538,163.040 216.160 C 162.900 216.020,162.800 215.351,162.800 214.560 C 162.800 213.812,162.772 213.200,162.738 213.200 C 162.704 213.200,162.213 213.646,161.647 214.192 C 156.789 218.875,147.867 217.048,144.903 210.764 C 142.637 205.959,142.640 196.088,144.909 191.583 C 148.044 185.356,157.119 183.691,161.837 188.477 L 162.800 189.454 162.800 182.267 C 162.800 176.944,162.862 175.018,163.040 174.840 C 163.418 174.462,166.493 174.522,166.886 174.914 M325.960 174.840 C 326.308 175.188,326.308 215.812,325.960 216.160 C 325.811 216.309,325.071 216.400,324.000 216.400 C 322.929 216.400,322.189 216.309,322.040 216.160 C 321.692 215.812,321.692 175.188,322.040 174.840 C 322.189 174.691,322.929 174.600,324.000 174.600 C 325.071 174.600,325.811 174.691,325.960 174.840 M341.360 178.640 C 341.529 178.809,341.600 179.959,341.600 182.535 L 341.600 186.191 345.250 186.245 L 348.900 186.300 348.900 188.000 L 348.900 189.700 345.250 189.755 L 341.600 189.809 341.601 199.355 C 341.603 212.185,341.636 212.271,346.668 212.576 L 348.700 212.700 348.758 214.444 C 348.828 216.558,348.918 216.506,345.430 216.347 C 341.373 216.162,339.260 215.169,338.102 212.906 L 337.500 211.729 337.400 200.815 L 337.300 189.900 335.311 189.842 C 332.872 189.772,332.800 189.718,332.800 188.000 C 332.800 186.282,332.872 186.228,335.311 186.158 L 337.300 186.100 337.355 182.409 C 337.394 179.763,337.479 178.674,337.655 178.562 C 338.056 178.307,341.091 178.371,341.360 178.640 M96.083 186.196 C 101.658 187.621,104.380 192.417,104.397 200.843 C 104.401 203.186,105.294 203.000,94.013 203.000 L 84.400 203.000 84.402 204.150 C 84.408 209.045,86.568 211.983,90.768 212.810 C 94.466 213.537,97.962 212.230,99.736 209.457 C 100.542 208.198,100.658 208.184,102.307 209.150 C 103.912 210.090,103.958 210.218,103.156 211.554 C 98.803 218.806,85.859 218.508,81.948 211.065 C 79.257 205.944,79.347 195.006,82.115 190.838 C 84.921 186.611,90.482 184.763,96.083 186.196 M129.070 186.377 C 132.003 187.418,133.958 189.392,135.034 192.400 C 135.581 193.929,135.902 215.496,135.386 216.116 C 135.082 216.483,131.799 216.519,131.440 216.160 C 131.260 215.980,131.200 213.404,131.200 205.796 C 131.200 194.526,131.188 194.409,129.866 192.455 C 127.024 188.257,119.904 188.789,117.656 193.368 L 117.100 194.500 117.000 205.257 C 116.885 217.591,117.136 216.392,114.674 216.397 C 112.384 216.401,112.590 217.958,112.649 201.078 L 112.700 186.300 114.597 186.242 C 116.876 186.172,117.000 186.270,117.000 188.152 L 117.000 189.427 117.968 188.433 C 120.349 185.988,125.361 185.060,129.070 186.377 M191.389 186.110 C 195.635 187.111,198.784 190.350,199.939 194.906 C 200.456 196.948,200.459 205.222,199.943 207.420 C 197.012 219.902,179.570 220.108,176.163 207.700 C 175.507 205.312,175.504 197.092,176.158 194.732 C 178.032 187.972,184.282 184.434,191.389 186.110 M223.664 186.336 C 224.878 186.721,224.948 186.923,224.545 188.873 C 224.126 190.902,224.120 190.907,222.506 190.586 C 219.046 189.899,215.598 191.444,214.130 194.341 C 213.281 196.016,213.200 197.113,213.200 206.915 C 213.200 215.158,213.166 216.170,212.884 216.279 C 212.382 216.471,209.531 216.414,209.200 216.204 C 208.820 215.964,208.633 187.286,209.007 186.587 C 209.203 186.221,209.393 186.191,211.161 186.243 L 213.100 186.300 213.200 188.500 L 213.300 190.700 213.656 190.048 C 215.448 186.768,219.859 185.132,223.664 186.336 M273.765 186.104 C 277.739 187.041,280.603 190.008,281.194 193.800 C 281.499 195.756,281.468 215.852,281.160 216.160 C 281.011 216.309,280.271 216.400,279.200 216.400 C 277.097 216.400,277.000 216.319,277.000 214.558 L 277.000 213.195 275.850 214.133 C 272.056 217.225,265.338 217.704,261.357 215.168 C 255.801 211.629,256.634 202.854,262.811 199.851 C 265.122 198.727,266.176 198.564,271.850 198.455 L 277.000 198.356 277.000 196.514 C 277.000 191.857,275.066 189.784,270.576 189.630 C 266.674 189.497,264.082 190.818,263.493 193.242 C 263.265 194.177,262.996 194.264,261.101 194.011 C 258.756 193.699,258.739 193.690,258.897 192.822 C 259.816 187.747,266.988 184.506,273.765 186.104 M55.685 186.850 C 55.831 187.208,57.558 192.562,59.525 198.750 C 61.491 204.937,63.151 209.999,63.212 210.000 C 63.274 210.000,64.976 204.803,66.995 198.450 C 69.013 192.097,70.745 186.740,70.843 186.543 C 71.128 185.973,75.274 186.117,75.356 186.700 C 75.431 187.236,65.683 216.024,65.356 216.231 C 64.817 216.574,61.286 216.428,60.962 216.050 C 60.531 215.547,50.930 186.870,51.070 186.505 C 51.165 186.258,51.592 186.200,53.304 186.200 L 55.420 186.200 55.685 186.850 M233.963 186.550 C 234.060 186.743,235.792 192.097,237.810 198.450 C 239.829 204.803,241.533 210.000,241.597 210.000 C 241.661 210.000,243.366 204.803,245.386 198.450 C 247.405 192.097,249.139 186.740,249.239 186.543 C 249.507 186.018,253.659 186.111,253.761 186.645 C 253.850 187.106,244.055 216.041,243.744 216.239 C 243.419 216.445,239.770 216.438,239.443 216.231 C 239.167 216.056,229.400 187.225,229.400 186.584 C 229.400 186.024,233.681 185.992,233.963 186.550 M293.803 196.900 C 293.918 208.624,293.889 208.363,295.307 210.409 C 298.112 214.458,305.362 213.563,307.540 208.900 L 308.100 207.700 308.200 197.000 L 308.300 186.300 310.197 186.242 C 312.863 186.160,312.600 184.508,312.600 201.324 C 312.600 218.047,312.849 216.400,310.326 216.400 C 308.280 216.400,308.200 216.325,308.200 214.419 L 308.200 212.918 307.250 213.931 C 302.218 219.295,291.741 216.735,289.907 209.693 C 289.582 208.447,289.427 186.640,289.740 186.327 C 289.817 186.250,290.740 186.212,291.790 186.243 L 293.700 186.300 293.803 196.900 M89.465 189.888 C 86.422 190.839,84.806 193.319,84.471 197.550 L 84.341 199.200 92.201 199.200 L 100.060 199.200 99.937 197.326 C 99.558 191.550,94.848 188.205,89.465 189.888 M153.079 189.884 C 149.246 191.084,147.379 195.503,147.666 202.700 C 147.951 209.858,150.703 213.290,155.889 212.957 C 160.600 212.655,162.634 209.148,162.650 201.300 C 162.668 192.165,159.160 187.980,153.079 189.884 M185.457 189.879 C 180.850 191.378,179.006 197.023,180.212 205.936 C 181.452 215.101,193.749 215.567,195.747 206.525 C 196.464 203.279,196.106 196.042,195.123 193.894 C 193.588 190.541,189.123 188.687,185.457 189.879 M269.000 201.927 C 264.269 202.618,262.096 204.502,262.112 207.900 C 262.130 211.769,265.759 213.805,270.856 212.806 C 275.310 211.933,276.860 209.965,276.965 205.050 L 277.034 201.800 273.267 201.827 C 271.195 201.842,269.275 201.887,269.000 201.927 M109.000 231.230 C 109.109 235.932,109.228 236.400,110.315 236.400 C 111.836 236.400,112.000 235.864,112.000 230.896 L 112.000 226.772 112.450 226.836 C 113.095 226.928,113.256 234.825,112.637 236.000 C 111.860 237.475,110.032 237.759,108.741 236.606 L 108.100 236.034 108.039 231.401 L 107.979 226.769 108.439 226.835 L 108.900 226.900 109.000 231.230 M122.392 227.090 C 122.703 227.465,122.594 227.998,122.150 228.278 C 121.509 228.681,120.777 227.870,121.077 227.088 C 121.220 226.715,122.081 226.716,122.392 227.090 M138.553 232.053 L 138.607 237.200 138.103 237.200 C 137.827 237.200,137.600 237.108,137.600 236.995 C 137.600 236.880,137.326 236.932,136.976 237.113 C 135.029 238.119,134.100 236.952,134.100 233.500 C 134.100 230.048,135.029 228.881,136.976 229.887 L 137.600 230.210 137.600 228.638 C 137.600 226.993,137.681 226.748,138.190 226.846 C 138.459 226.897,138.507 227.592,138.553 232.053 M144.913 231.100 L 145.730 235.300 145.962 234.200 C 146.090 233.595,146.422 231.885,146.701 230.400 C 147.425 226.546,147.340 226.800,147.904 226.800 C 148.548 226.800,148.567 226.616,147.338 232.300 L 146.300 237.100 145.717 237.100 L 145.133 237.100 144.075 232.200 C 142.957 227.029,142.934 226.734,143.647 226.836 C 144.066 226.896,144.153 227.188,144.913 231.100 M165.953 232.053 L 166.007 237.200 165.503 237.200 C 165.227 237.200,165.000 237.108,165.000 236.995 C 165.000 236.880,164.726 236.932,164.376 237.113 C 162.429 238.119,161.500 236.952,161.500 233.500 C 161.500 230.048,162.429 228.881,164.376 229.887 L 165.000 230.210 165.000 228.638 C 165.000 226.993,165.081 226.748,165.590 226.846 C 165.859 226.897,165.907 227.592,165.953 232.053 M192.793 227.061 C 194.188 227.542,194.400 228.199,194.400 232.040 C 194.400 236.721,194.095 237.200,191.110 237.200 L 189.600 237.200 189.600 232.000 L 189.600 226.800 190.850 226.811 C 191.538 226.817,192.412 226.930,192.793 227.061 M203.153 232.053 L 203.207 237.200 202.703 237.200 L 202.200 237.200 202.200 232.133 C 202.200 227.017,202.231 226.738,202.790 226.846 C 203.059 226.897,203.107 227.592,203.153 232.053 M206.192 227.090 C 206.503 227.465,206.394 227.998,205.950 228.278 C 205.309 228.681,204.577 227.870,204.877 227.088 C 205.020 226.715,205.881 226.716,206.192 227.090 M215.212 228.700 C 215.274 229.690,215.341 230.391,215.362 230.258 C 215.433 229.808,216.876 229.519,217.518 229.826 C 218.462 230.279,218.594 230.807,218.597 234.150 L 218.600 237.200 218.100 237.200 L 217.600 237.200 217.600 234.345 C 217.600 231.128,217.431 230.600,216.400 230.600 C 215.369 230.600,215.200 231.128,215.200 234.345 L 215.200 237.200 214.700 237.200 L 214.200 237.200 214.200 231.986 L 214.200 226.772 214.650 226.836 C 215.069 226.896,215.108 227.025,215.212 228.700 M234.753 232.050 L 234.807 237.200 234.320 237.200 C 234.052 237.200,233.802 237.106,233.764 236.992 C 233.720 236.861,233.453 236.904,233.046 237.107 C 231.189 238.033,230.200 236.813,230.200 233.594 C 230.200 230.157,231.416 228.611,233.112 229.894 C 233.750 230.376,233.800 230.274,233.800 228.486 C 233.800 226.823,233.813 226.774,234.250 226.836 L 234.700 226.900 234.753 232.050 M243.834 227.572 C 244.618 228.451,244.659 229.800,243.900 229.800 C 243.482 229.800,243.400 229.705,243.400 229.222 C 243.400 227.902,241.863 227.248,240.936 228.175 C 240.234 228.877,240.264 235.444,240.972 236.018 C 241.964 236.821,243.400 236.197,243.400 234.962 C 243.400 234.496,243.485 234.400,243.900 234.400 C 244.983 234.400,244.348 236.494,243.082 237.095 C 240.433 238.352,239.338 236.718,239.434 231.652 L 239.500 228.169 240.272 227.461 C 241.321 226.500,242.920 226.550,243.834 227.572 M125.561 228.850 C 125.619 229.754,125.650 229.800,126.211 229.800 C 126.667 229.800,126.800 229.891,126.800 230.200 C 126.800 230.511,126.667 230.600,126.200 230.600 L 125.600 230.600 125.600 233.310 L 125.600 236.021 126.200 236.230 C 127.081 236.537,127.027 237.200,126.122 237.200 C 124.692 237.200,124.509 236.802,124.432 233.536 C 124.369 230.883,124.331 230.629,123.982 230.537 C 123.481 230.406,123.492 229.991,124.000 229.858 C 124.320 229.774,124.400 229.585,124.400 228.910 C 124.400 227.343,125.461 227.289,125.561 228.850 M190.600 232.126 L 190.600 236.452 191.543 236.346 C 193.281 236.150,193.438 235.762,193.363 231.855 C 193.290 228.050,193.174 227.800,191.478 227.800 L 190.600 227.800 190.600 232.126 M221.600 228.800 L 221.600 229.800 222.300 229.800 C 222.867 229.800,223.000 229.876,223.000 230.200 C 223.000 230.524,222.867 230.600,222.300 230.600 L 221.600 230.600 221.600 233.013 C 221.600 235.631,221.725 236.088,222.495 236.281 C 223.332 236.491,223.175 237.200,222.291 237.200 C 220.848 237.200,220.600 236.646,220.600 233.432 C 220.600 230.815,220.576 230.640,220.200 230.542 C 219.980 230.485,219.800 230.294,219.800 230.119 C 219.800 229.933,219.967 229.800,220.200 229.800 C 220.538 229.800,220.600 229.667,220.600 228.933 C 220.600 227.972,220.696 227.800,221.233 227.800 C 221.540 227.800,221.600 227.964,221.600 228.800 M259.161 228.852 C 259.221 229.792,259.228 229.800,259.926 229.800 C 260.887 229.800,260.814 230.469,259.843 230.563 L 259.189 230.626 259.244 233.261 L 259.300 235.895 259.850 236.159 C 260.685 236.558,260.592 237.200,259.700 237.200 C 258.359 237.200,258.200 236.807,258.200 233.500 C 258.200 230.733,258.182 230.600,257.800 230.600 C 257.533 230.600,257.400 230.467,257.400 230.200 C 257.400 229.933,257.533 229.800,257.800 229.800 C 258.138 229.800,258.200 229.667,258.200 228.933 C 258.200 227.385,259.062 227.312,259.161 228.852 M118.306 229.839 C 119.241 230.265,119.400 230.897,119.400 234.190 L 119.400 237.200 118.900 237.200 L 118.400 237.200 118.400 234.345 C 118.400 231.176,118.224 230.600,117.254 230.600 C 116.128 230.600,116.000 230.970,116.000 234.231 L 116.000 237.200 115.400 237.200 L 114.800 237.200 114.800 233.500 L 114.800 229.800 115.400 229.800 C 115.730 229.800,116.000 229.886,116.000 229.990 C 116.000 230.095,116.293 230.054,116.650 229.898 C 117.458 229.547,117.650 229.540,118.306 229.839 M131.555 230.001 C 132.363 230.493,132.600 231.085,132.600 232.605 L 132.600 233.784 130.852 233.842 C 128.912 233.906,128.837 233.970,129.092 235.329 C 129.317 236.525,130.945 236.778,131.439 235.694 C 131.664 235.200,132.270 235.028,132.496 235.394 C 132.980 236.177,131.109 237.540,129.868 237.307 C 128.360 237.024,128.107 236.532,128.044 233.768 C 127.962 230.099,129.322 228.640,131.555 230.001 M152.514 229.893 C 153.384 230.256,153.800 231.163,153.800 232.694 L 153.800 233.800 152.000 233.800 L 150.200 233.800 150.200 234.655 C 150.200 236.369,151.517 237.038,152.438 235.792 C 152.958 235.088,153.745 235.027,153.634 235.700 C 153.355 237.395,151.094 237.925,149.774 236.605 C 148.987 235.817,148.882 231.459,149.628 230.510 C 150.352 229.590,151.302 229.387,152.514 229.893 M159.299 230.210 C 159.662 230.572,159.706 230.923,159.763 233.905 L 159.827 237.200 159.313 237.200 L 158.800 237.200 158.800 234.345 C 158.800 231.128,158.631 230.600,157.600 230.600 C 156.569 230.600,156.400 231.128,156.400 234.345 L 156.400 237.200 155.900 237.200 L 155.400 237.200 155.400 233.500 L 155.400 229.800 155.900 229.800 C 156.232 229.800,156.400 229.911,156.400 230.131 C 156.400 230.429,156.435 230.432,156.750 230.157 C 157.511 229.494,158.606 229.517,159.299 230.210 M171.091 229.909 C 172.107 230.391,172.300 230.965,172.300 233.500 C 172.300 236.035,172.107 236.609,171.091 237.091 C 168.914 238.124,167.600 236.772,167.600 233.500 C 167.600 230.226,168.913 228.875,171.091 229.909 M177.168 229.910 C 177.445 230.153,176.900 230.800,176.418 230.800 C 175.312 230.800,175.107 231.335,175.035 234.420 L 174.970 237.200 174.485 237.200 L 174.000 237.200 174.000 233.500 L 174.000 229.800 174.500 229.800 C 174.896 229.800,175.000 229.901,175.000 230.285 L 175.000 230.769 175.599 230.171 C 176.141 229.628,176.736 229.529,177.168 229.910 M181.559 230.134 C 182.064 230.450,182.474 231.318,182.314 231.734 C 182.168 232.117,181.609 232.061,181.463 231.650 C 181.068 230.535,179.856 230.223,179.288 231.090 C 178.812 231.816,179.091 232.339,180.265 232.926 C 182.439 234.012,183.077 235.469,181.895 236.651 C 180.689 237.857,178.000 237.113,178.000 235.573 C 178.000 234.971,178.926 235.077,179.081 235.697 C 179.316 236.632,180.965 236.664,181.288 235.739 C 181.559 234.968,181.292 234.606,179.987 233.974 C 178.515 233.261,178.100 232.761,178.100 231.700 C 178.100 229.966,179.949 229.129,181.559 230.134 M200.040 230.347 C 200.535 230.842,200.634 231.129,200.737 232.362 L 200.858 233.800 199.029 233.800 L 197.200 233.800 197.200 234.734 C 197.200 236.398,198.523 237.029,199.432 235.800 C 199.943 235.108,200.600 234.994,200.600 235.597 C 200.600 237.413,197.276 237.936,196.379 236.261 C 195.994 235.541,195.993 231.461,196.378 230.742 C 197.043 229.499,198.983 229.290,200.040 230.347 M210.873 230.015 C 211.310 230.358,211.400 230.375,211.400 230.115 C 211.400 229.912,211.579 229.800,211.900 229.800 L 212.400 229.800 212.400 233.993 C 212.400 237.496,212.345 238.302,212.066 238.886 C 211.479 240.119,209.200 240.765,209.200 239.700 C 209.200 239.305,209.301 239.200,209.684 239.200 C 210.744 239.200,211.400 238.435,211.400 237.199 C 211.400 236.597,211.386 236.587,210.955 236.889 C 209.791 237.704,208.166 236.988,207.894 235.538 C 207.141 231.524,208.824 228.403,210.873 230.015 M227.493 229.884 C 228.397 230.262,228.800 231.096,228.800 232.590 L 228.800 233.800 227.000 233.800 L 225.200 233.800 225.200 234.655 C 225.200 236.458,226.799 237.127,227.577 235.650 C 228.082 234.692,228.911 235.155,228.489 236.159 C 227.926 237.497,225.906 237.737,224.770 236.601 C 223.986 235.817,223.884 231.455,224.628 230.510 C 225.347 229.595,226.303 229.387,227.493 229.884 M255.044 229.809 C 255.902 230.047,256.400 230.648,256.400 231.445 C 256.400 232.246,255.754 232.186,255.386 231.350 C 254.983 230.434,253.624 230.376,253.312 231.261 C 253.052 232.002,253.301 232.386,254.413 232.952 C 256.354 233.940,256.901 234.782,256.422 236.042 C 255.673 238.012,252.000 237.402,252.000 235.306 C 252.000 234.910,253.013 235.272,253.241 235.750 C 253.607 236.519,254.832 236.643,255.281 235.957 C 255.791 235.179,255.481 234.646,254.124 233.970 C 251.729 232.777,251.446 230.171,253.665 229.739 C 253.904 229.693,254.145 229.643,254.200 229.628 C 254.255 229.614,254.635 229.695,255.044 229.809 M265.104 229.915 C 266.946 230.789,266.976 236.196,265.144 237.066 C 262.867 238.146,261.700 236.932,261.700 233.484 C 261.700 230.141,262.909 228.874,265.104 229.915 M271.856 230.230 L 272.212 230.659 272.656 230.252 C 274.649 228.429,275.800 229.871,275.800 234.190 L 275.800 237.200 275.300 237.200 L 274.800 237.200 274.800 234.345 C 274.800 231.243,274.616 230.600,273.727 230.600 C 272.620 230.600,272.505 230.917,272.436 234.183 L 272.371 237.200 271.886 237.200 L 271.400 237.200 271.397 234.450 C 271.394 231.423,271.214 230.738,270.395 230.642 C 269.250 230.506,269.106 230.881,269.036 234.183 L 268.971 237.200 268.486 237.200 L 268.000 237.200 268.000 233.500 L 268.000 229.800 268.500 229.800 C 268.832 229.800,269.000 229.911,269.000 230.131 C 269.000 230.429,269.035 230.432,269.350 230.157 C 270.125 229.482,271.262 229.515,271.856 230.230 M280.955 230.001 C 281.763 230.493,282.000 231.085,282.000 232.605 L 282.000 233.784 280.252 233.842 C 278.312 233.906,278.237 233.970,278.492 235.329 C 278.718 236.530,280.346 236.777,280.843 235.685 C 281.157 234.995,281.922 235.083,281.849 235.801 C 281.672 237.536,278.471 237.841,277.655 236.200 C 277.320 235.528,277.321 231.469,277.656 230.800 C 278.196 229.719,279.839 229.321,280.955 230.001 M286.630 229.800 C 287.185 229.800,286.658 230.694,286.028 230.822 C 284.799 231.072,284.707 231.309,284.635 234.407 L 284.570 237.200 284.085 237.200 L 283.600 237.200 283.600 233.500 L 283.600 229.800 284.100 229.800 C 284.496 229.800,284.600 229.901,284.600 230.285 L 284.600 230.769 285.204 230.165 C 285.577 229.792,285.928 229.606,286.121 229.680 C 286.292 229.746,286.522 229.800,286.630 229.800 M291.159 230.134 C 291.711 230.479,292.098 231.256,291.933 231.687 C 291.743 232.182,291.210 232.052,290.983 231.454 C 290.601 230.451,289.439 230.249,288.888 231.090 C 288.397 231.839,288.689 232.338,290.005 233.003 C 292.094 234.057,292.700 235.571,291.483 236.698 C 290.272 237.820,287.600 237.057,287.600 235.589 C 287.600 234.972,288.523 235.065,288.681 235.697 C 288.916 236.632,290.565 236.664,290.888 235.739 C 291.157 234.971,290.895 234.606,289.627 233.982 C 288.097 233.228,287.700 232.762,287.700 231.715 C 287.700 229.966,289.542 229.124,291.159 230.134 M122.400 233.500 L 122.400 237.200 121.800 237.200 L 121.200 237.200 121.200 233.500 L 121.200 229.800 121.800 229.800 L 122.400 229.800 122.400 233.500 M206.000 233.500 L 206.000 237.200 205.500 237.200 L 205.000 237.200 205.000 233.500 L 205.000 229.800 205.500 229.800 L 206.000 229.800 206.000 233.500 M247.001 232.250 C 247.002 235.234,247.212 236.145,247.940 236.328 C 249.219 236.649,249.593 235.774,249.597 232.450 L 249.600 229.800 250.100 229.800 L 250.600 229.800 250.600 233.500 L 250.600 237.200 250.100 237.200 C 249.768 237.200,249.600 237.089,249.600 236.869 C 249.600 236.570,249.566 236.568,249.250 236.845 C 248.694 237.334,248.049 237.447,247.278 237.193 C 246.191 236.834,246.000 236.164,246.000 232.706 L 246.000 229.800 246.500 229.800 L 247.000 229.800 247.001 232.250 M129.518 230.862 C 129.298 231.023,129.119 231.486,129.054 232.062 L 128.948 233.000 130.274 233.000 L 131.600 233.000 131.600 232.245 C 131.600 230.849,130.518 230.131,129.518 230.862 M135.488 230.884 C 134.901 231.313,134.901 235.687,135.488 236.116 C 136.836 237.101,137.600 236.170,137.600 233.545 C 137.600 230.798,136.867 229.875,135.488 230.884 M150.511 231.045 C 150.340 231.289,150.200 231.829,150.200 232.245 L 150.200 233.000 151.500 233.000 L 152.800 233.000 152.800 232.387 C 152.800 230.820,151.289 229.934,150.511 231.045 M162.888 230.884 C 162.184 231.399,162.204 235.375,162.915 236.086 C 164.081 237.253,165.000 236.133,165.000 233.545 C 165.000 230.798,164.268 229.876,162.888 230.884 M169.131 230.966 C 168.621 231.530,168.648 235.601,169.166 236.069 C 170.437 237.219,171.200 236.242,171.200 233.465 C 171.200 230.757,170.302 229.672,169.131 230.966 M197.531 230.966 C 197.334 231.183,197.200 231.670,197.200 232.166 L 197.200 233.000 198.400 233.000 L 199.600 233.000 199.600 232.131 C 199.600 230.761,198.352 230.058,197.531 230.966 M209.322 230.906 C 208.564 231.664,208.604 235.396,209.377 236.022 C 210.680 237.076,211.400 236.181,211.400 233.507 C 211.400 230.846,210.504 229.725,209.322 230.906 M225.511 231.045 C 225.340 231.289,225.200 231.829,225.200 232.245 L 225.200 233.000 226.500 233.000 L 227.800 233.000 227.800 232.387 C 227.800 230.820,226.289 229.934,225.511 231.045 M231.511 231.045 C 231.003 231.770,231.069 235.469,231.600 236.000 C 232.308 236.708,233.223 236.493,233.587 235.533 C 234.063 234.282,233.769 231.159,233.137 230.757 C 232.656 230.451,231.824 230.598,231.511 231.045 M263.131 230.966 C 262.621 231.530,262.648 235.601,263.166 236.069 C 264.437 237.219,265.200 236.242,265.200 233.465 C 265.200 230.757,264.302 229.672,263.131 230.966 M278.918 230.862 C 278.698 231.023,278.519 231.486,278.454 232.062 L 278.348 233.000 279.674 233.000 L 281.000 233.000 281.000 232.245 C 281.000 230.849,279.918 230.131,278.918 230.862 M184.800 235.311 C 184.800 236.436,184.146 238.400,183.770 238.400 C 183.487 238.400,183.402 238.300,183.475 238.050 C 183.531 237.857,183.638 237.160,183.713 236.500 C 183.788 235.840,183.889 235.232,183.937 235.150 C 184.100 234.868,184.800 234.998,184.800 235.311 " stroke="none" fill="#040404" fill-rule="evenodd"></path><path id="path2" d="M108.000 148.500 L 108.000 150.400 128.300 150.400 L 148.600 150.400 148.600 148.500 L 148.600 146.600 128.300 146.600 L 108.000 146.600 108.000 148.500 M251.400 148.500 L 251.400 150.400 271.700 150.400 L 292.000 150.400 292.000 148.500 L 292.000 146.600 271.700 146.600 L 251.400 146.600 251.400 148.500 M51.994 161.188 C 50.031 161.785,49.722 163.285,51.344 164.347 C 52.183 164.897,347.817 164.897,348.656 164.347 C 350.021 163.453,350.048 162.494,348.735 161.519 L 348.171 161.100 200.335 161.067 C 119.026 161.049,52.272 161.103,51.994 161.188 M121.077 227.088 C 120.777 227.870,121.509 228.681,122.150 228.278 C 122.905 227.802,122.579 226.800,121.669 226.800 C 121.404 226.800,121.138 226.930,121.077 227.088 M204.877 227.088 C 204.577 227.870,205.309 228.681,205.950 228.278 C 206.705 227.802,206.379 226.800,205.469 226.800 C 205.204 226.800,204.938 226.930,204.877 227.088 M240.819 227.053 C 238.932 228.023,238.702 235.740,240.524 236.934 C 241.198 237.376,242.532 237.411,243.287 237.007 C 244.398 236.412,244.872 234.400,243.900 234.400 C 243.478 234.400,243.400 234.493,243.400 235.000 C 243.400 236.256,241.722 236.908,240.881 235.979 C 240.258 235.290,240.306 228.805,240.939 228.172 C 241.879 227.232,243.400 227.880,243.400 229.222 C 243.400 229.705,243.482 229.800,243.900 229.800 C 244.345 229.800,244.400 229.717,244.400 229.045 C 244.400 227.346,242.406 226.237,240.819 227.053 M108.039 231.517 L 108.100 236.034 108.741 236.606 C 109.611 237.383,110.577 237.544,111.525 237.071 C 112.871 236.399,113.000 235.883,113.000 231.153 L 113.000 227.000 112.500 227.000 L 112.000 227.000 112.000 231.010 C 112.000 235.864,111.831 236.400,110.298 236.400 C 109.161 236.400,109.000 235.753,109.000 231.173 L 109.000 227.000 108.489 227.000 L 107.979 227.000 108.039 231.517 M137.600 228.605 L 137.600 230.210 136.976 229.887 C 135.029 228.881,134.100 230.048,134.100 233.500 C 134.100 236.964,134.866 237.963,136.879 237.122 C 137.276 236.956,137.600 236.906,137.600 237.010 C 137.600 237.115,137.825 237.200,138.100 237.200 L 138.600 237.200 138.600 232.100 L 138.600 227.000 138.100 227.000 C 137.608 227.000,137.600 227.026,137.600 228.605 M143.002 227.050 C 143.003 227.078,143.485 229.350,144.072 232.100 L 145.140 237.100 145.718 237.100 L 146.296 237.100 147.227 232.740 C 148.576 226.429,148.508 227.000,147.913 227.000 C 147.323 227.000,147.427 226.671,146.503 231.476 C 146.125 233.442,145.783 235.084,145.743 235.123 C 145.703 235.163,145.323 233.352,144.897 231.098 L 144.124 227.000 143.562 227.000 C 143.253 227.000,143.001 227.023,143.002 227.050 M165.000 228.605 L 165.000 230.210 164.376 229.887 C 162.429 228.881,161.500 230.048,161.500 233.500 C 161.500 236.964,162.266 237.963,164.279 237.122 C 164.676 236.956,165.000 236.906,165.000 237.010 C 165.000 237.115,165.225 237.200,165.500 237.200 L 166.000 237.200 166.000 232.100 L 166.000 227.000 165.500 227.000 C 165.008 227.000,165.000 227.026,165.000 228.605 M189.600 232.100 L 189.600 237.200 191.110 237.200 C 194.086 237.200,194.400 236.713,194.400 232.100 C 194.400 227.441,194.128 227.000,191.255 227.000 L 189.600 227.000 189.600 232.100 M202.200 232.100 L 202.200 237.200 202.700 237.200 L 203.200 237.200 203.200 232.100 L 203.200 227.000 202.700 227.000 L 202.200 227.000 202.200 232.100 M214.200 232.100 L 214.200 237.200 214.700 237.200 L 215.200 237.200 215.200 234.345 C 215.200 231.128,215.369 230.600,216.400 230.600 C 217.431 230.600,217.600 231.128,217.600 234.345 L 217.600 237.200 218.100 237.200 L 218.600 237.200 218.600 234.190 C 218.600 229.943,217.457 228.428,215.550 230.147 C 215.219 230.445,215.200 230.366,215.200 228.731 C 215.200 227.018,215.195 227.000,214.700 227.000 L 214.200 227.000 214.200 232.100 M233.800 228.600 C 233.800 230.040,233.629 230.533,233.310 230.015 C 232.864 229.295,230.853 229.786,230.428 230.719 C 229.942 231.786,230.137 235.894,230.705 236.570 C 231.353 237.339,232.193 237.532,233.046 237.107 C 233.453 236.904,233.720 236.861,233.764 236.992 C 233.802 237.106,234.051 237.200,234.317 237.200 L 234.800 237.200 234.800 232.100 L 234.800 227.000 234.300 227.000 C 233.808 227.000,233.800 227.027,233.800 228.600 M192.828 228.182 C 193.284 228.551,193.302 228.674,193.363 231.855 C 193.438 235.762,193.281 236.150,191.543 236.346 L 190.600 236.452 190.600 232.126 L 190.600 227.800 191.478 227.800 C 192.044 227.800,192.524 227.936,192.828 228.182 M124.400 228.900 C 124.400 229.567,124.322 229.800,124.100 229.800 C 123.933 229.800,123.800 229.978,123.800 230.200 C 123.800 230.420,123.925 230.600,124.078 230.600 C 124.299 230.600,124.371 231.198,124.431 233.520 C 124.516 236.808,124.696 237.200,126.122 237.200 C 127.027 237.200,127.081 236.537,126.200 236.230 L 125.600 236.021 125.600 233.310 L 125.600 230.600 126.200 230.600 C 126.667 230.600,126.800 230.511,126.800 230.200 C 126.800 229.889,126.667 229.800,126.200 229.800 C 125.622 229.800,125.600 229.767,125.600 228.900 C 125.600 228.033,125.578 228.000,125.000 228.000 C 124.422 228.000,124.400 228.033,124.400 228.900 M220.600 228.900 C 220.600 229.667,220.541 229.800,220.200 229.800 C 219.684 229.800,219.672 230.404,220.186 230.538 C 220.540 230.631,220.576 230.873,220.636 233.538 C 220.697 236.305,220.721 236.454,221.172 236.818 C 221.830 237.350,223.000 237.339,223.000 236.800 C 223.000 236.578,222.867 236.400,222.700 236.400 C 221.828 236.400,221.600 235.718,221.600 233.113 L 221.600 230.625 222.248 230.563 C 223.223 230.468,223.281 229.800,222.315 229.800 C 221.601 229.800,221.600 229.799,221.600 228.900 C 221.600 228.073,221.559 228.000,221.100 228.000 C 220.641 228.000,220.600 228.073,220.600 228.900 M258.200 228.900 C 258.200 229.667,258.141 229.800,257.800 229.800 C 257.533 229.800,257.400 229.933,257.400 230.200 C 257.400 230.467,257.533 230.600,257.800 230.600 C 258.182 230.600,258.200 230.733,258.200 233.485 C 258.200 236.696,258.421 237.200,259.827 237.200 C 260.547 237.200,260.641 236.502,259.950 236.287 C 259.253 236.069,259.206 235.872,259.203 233.163 L 259.200 230.625 259.848 230.563 C 260.823 230.468,260.881 229.800,259.915 229.800 C 259.201 229.800,259.200 229.799,259.200 228.900 C 259.200 228.073,259.159 228.000,258.700 228.000 C 258.241 228.000,258.200 228.073,258.200 228.900 M116.650 229.898 C 116.293 230.054,116.000 230.095,116.000 229.990 C 116.000 229.886,115.730 229.800,115.400 229.800 L 114.800 229.800 114.800 233.500 L 114.800 237.200 115.400 237.200 L 116.000 237.200 116.000 234.231 C 116.000 230.970,116.128 230.600,117.254 230.600 C 118.224 230.600,118.400 231.176,118.400 234.345 L 118.400 237.200 118.900 237.200 L 119.400 237.200 119.400 234.190 C 119.400 230.897,119.241 230.265,118.306 229.839 C 117.650 229.540,117.458 229.547,116.650 229.898 M129.263 229.883 C 127.220 230.803,127.473 236.586,129.584 237.219 C 130.982 237.638,133.416 236.039,132.380 235.383 C 131.920 235.092,131.677 235.173,131.439 235.694 C 130.945 236.778,129.317 236.525,129.092 235.329 C 128.837 233.970,128.912 233.906,130.852 233.842 L 132.600 233.784 132.600 232.605 C 132.600 230.218,131.149 229.035,129.263 229.883 M150.263 229.990 C 149.312 230.570,149.200 230.949,149.200 233.602 C 149.200 236.005,149.206 236.037,149.770 236.601 C 150.907 237.737,152.922 237.497,153.493 236.157 C 153.848 235.324,153.182 234.790,152.684 235.509 C 152.152 236.278,151.976 236.400,151.403 236.400 C 150.643 236.400,150.200 235.758,150.200 234.655 L 150.200 233.800 152.000 233.800 L 153.800 233.800 153.800 232.694 C 153.800 230.164,152.104 228.868,150.263 229.990 M157.400 229.734 C 157.235 229.799,156.942 229.989,156.750 230.157 C 156.435 230.432,156.400 230.429,156.400 230.131 C 156.400 229.911,156.232 229.800,155.900 229.800 L 155.400 229.800 155.400 233.500 L 155.400 237.200 155.900 237.200 L 156.400 237.200 156.400 234.345 C 156.400 231.128,156.569 230.600,157.600 230.600 C 158.631 230.600,158.800 231.128,158.800 234.345 L 158.800 237.200 159.313 237.200 L 159.827 237.200 159.763 233.905 C 159.690 230.065,159.120 229.060,157.400 229.734 M168.878 229.905 C 167.889 230.410,167.700 230.987,167.700 233.500 C 167.700 236.610,168.424 237.634,170.388 237.302 C 171.957 237.037,172.300 236.353,172.300 233.491 L 172.300 231.008 171.681 230.389 C 170.924 229.632,169.795 229.437,168.878 229.905 M176.064 229.815 C 175.832 229.901,175.498 230.178,175.321 230.430 L 175.000 230.889 175.000 230.345 C 175.000 229.897,174.911 229.800,174.500 229.800 L 174.000 229.800 174.000 233.500 L 174.000 237.200 174.485 237.200 L 174.970 237.200 175.035 234.420 C 175.107 231.341,175.313 230.800,176.410 230.800 C 176.899 230.800,177.200 230.498,177.200 230.007 C 177.200 229.756,176.529 229.643,176.064 229.815 M179.484 229.820 C 177.288 230.440,177.594 232.784,180.027 233.982 C 181.295 234.606,181.557 234.971,181.289 235.739 C 180.977 236.632,179.472 236.683,179.143 235.812 C 178.863 235.069,178.000 234.920,178.000 235.615 C 178.000 237.201,181.084 237.798,182.144 236.417 C 182.992 235.312,182.235 233.910,180.253 232.920 C 179.046 232.316,178.716 231.645,179.307 230.992 C 179.956 230.275,181.025 230.512,181.383 231.454 C 181.600 232.026,182.140 232.189,182.314 231.734 C 182.742 230.620,180.948 229.407,179.484 229.820 M197.278 229.905 C 196.121 230.496,195.530 234.674,196.379 236.261 C 197.247 237.882,200.600 237.420,200.600 235.678 C 200.600 235.077,199.966 235.129,199.464 235.770 C 198.491 237.013,197.200 236.422,197.200 234.734 L 197.200 233.800 198.900 233.800 L 200.600 233.800 200.600 232.403 C 200.600 230.153,199.060 228.995,197.278 229.905 M209.100 229.782 C 207.985 230.259,207.413 232.973,207.890 235.518 C 208.166 236.987,209.783 237.710,210.955 236.889 C 211.386 236.587,211.400 236.597,211.400 237.199 C 211.400 238.435,210.744 239.200,209.684 239.200 C 209.295 239.200,209.200 239.303,209.200 239.726 C 209.200 240.232,209.235 240.248,210.108 240.150 C 212.120 239.923,212.400 239.159,212.400 233.906 L 212.400 229.800 211.900 229.800 C 211.568 229.800,211.400 229.911,211.400 230.131 C 211.400 230.438,211.374 230.438,211.037 230.133 C 210.588 229.727,209.633 229.553,209.100 229.782 M225.476 229.887 C 224.004 230.528,223.499 235.330,224.770 236.601 C 225.907 237.737,227.922 237.497,228.493 236.157 C 228.848 235.324,228.182 234.790,227.684 235.509 C 227.152 236.278,226.976 236.400,226.403 236.400 C 225.643 236.400,225.200 235.758,225.200 234.655 L 225.200 233.800 227.000 233.800 L 228.800 233.800 228.800 232.694 C 228.800 230.248,227.387 229.055,225.476 229.887 M253.765 229.758 C 251.409 230.046,251.680 232.728,254.195 233.997 C 255.511 234.662,255.803 235.161,255.312 235.910 C 254.821 236.659,253.695 236.600,253.241 235.801 C 252.812 235.047,252.200 234.993,252.200 235.709 C 252.200 237.740,256.131 237.740,256.512 235.708 C 256.704 234.682,256.262 233.987,254.976 233.300 C 253.455 232.486,253.200 232.243,253.200 231.600 C 253.200 230.388,254.865 230.195,255.400 231.346 C 255.789 232.183,256.400 232.229,256.400 231.422 C 256.400 230.305,255.248 229.577,253.765 229.758 M263.078 229.796 C 261.678 230.362,261.128 235.171,262.303 236.568 C 264.134 238.743,266.400 237.046,266.400 233.500 C 266.400 230.354,265.149 228.959,263.078 229.796 M270.000 229.742 C 269.835 229.803,269.543 229.989,269.350 230.157 C 269.035 230.432,269.000 230.429,269.000 230.131 C 269.000 229.911,268.832 229.800,268.500 229.800 L 268.000 229.800 268.000 233.500 L 268.000 237.200 268.500 237.200 L 269.000 237.200 269.003 234.450 C 269.006 231.286,269.171 230.733,270.135 230.639 C 271.225 230.532,271.400 231.045,271.400 234.345 L 271.400 237.200 271.900 237.200 L 272.400 237.200 272.403 234.450 C 272.406 231.286,272.571 230.733,273.535 230.639 C 274.625 230.532,274.800 231.045,274.800 234.345 L 274.800 237.200 275.300 237.200 L 275.800 237.200 275.800 234.190 C 275.800 229.842,274.667 228.445,272.623 230.273 C 272.281 230.579,272.119 230.628,272.054 230.446 C 271.860 229.901,270.674 229.494,270.000 229.742 M278.663 229.883 C 276.620 230.803,276.873 236.586,278.984 237.219 C 280.382 237.638,282.816 236.039,281.780 235.383 C 281.320 235.092,281.077 235.173,280.839 235.694 C 280.345 236.778,278.717 236.525,278.492 235.329 C 278.237 233.970,278.312 233.906,280.252 233.842 L 282.000 233.784 282.000 232.605 C 282.000 230.218,280.549 229.035,278.663 229.883 M285.664 229.815 C 285.432 229.901,285.098 230.178,284.921 230.430 L 284.600 230.889 284.600 230.345 C 284.600 229.897,284.511 229.800,284.100 229.800 L 283.600 229.800 283.600 233.500 L 283.600 237.200 284.085 237.200 L 284.570 237.200 284.635 234.420 C 284.707 231.341,284.913 230.800,286.010 230.800 C 286.499 230.800,286.800 230.498,286.800 230.007 C 286.800 229.756,286.129 229.643,285.664 229.815 M289.084 229.820 C 287.005 230.407,287.201 232.891,289.400 233.840 C 290.908 234.491,291.470 235.450,290.760 236.160 C 290.177 236.743,288.600 236.250,288.600 235.486 C 288.600 235.314,288.400 235.200,288.100 235.200 C 287.400 235.200,287.440 235.871,288.185 236.615 C 289.549 237.980,292.000 237.141,292.000 235.310 C 292.000 234.319,291.472 233.729,289.865 232.926 C 288.691 232.339,288.412 231.816,288.888 231.090 C 289.439 230.249,290.601 230.451,290.983 231.454 C 291.200 232.026,291.740 232.189,291.914 231.734 C 292.342 230.620,290.548 229.407,289.084 229.820 M121.200 233.500 L 121.200 237.227 121.750 237.163 L 122.300 237.100 122.300 233.500 L 122.300 229.900 121.750 229.837 L 121.200 229.773 121.200 233.500 M205.000 233.500 L 205.000 237.200 205.500 237.200 L 206.000 237.200 206.000 233.500 L 206.000 229.800 205.500 229.800 L 205.000 229.800 205.000 233.500 M246.036 232.996 C 246.100 236.181,246.102 236.194,246.651 236.743 C 247.309 237.400,248.565 237.475,249.206 236.894 C 249.562 236.572,249.600 236.570,249.600 236.869 C 249.600 237.089,249.768 237.200,250.100 237.200 L 250.600 237.200 250.600 233.500 L 250.600 229.800 250.100 229.800 L 249.600 229.800 249.600 232.370 C 249.600 235.871,249.262 236.660,247.906 236.319 C 247.206 236.144,247.000 235.245,247.000 232.370 L 247.000 229.800 246.486 229.800 L 245.972 229.800 246.036 232.996 M131.289 231.045 C 131.460 231.289,131.600 231.829,131.600 232.245 L 131.600 233.000 130.300 233.000 L 129.000 233.000 129.000 232.245 C 129.000 231.182,129.460 230.600,130.300 230.600 C 130.773 230.600,131.071 230.734,131.289 231.045 M137.289 231.045 C 137.520 231.375,137.600 232.004,137.600 233.500 C 137.600 236.199,136.858 237.118,135.488 236.116 C 134.901 235.687,134.901 231.313,135.488 230.884 C 136.076 230.454,136.928 230.530,137.289 231.045 M152.120 230.753 C 152.491 231.001,152.800 231.742,152.800 232.387 L 152.800 233.000 151.500 233.000 L 150.200 233.000 150.200 232.245 C 150.200 230.952,151.225 230.156,152.120 230.753 M164.689 231.045 C 164.920 231.375,165.000 232.004,165.000 233.500 C 165.000 236.199,164.258 237.118,162.888 236.116 C 162.301 235.687,162.301 231.313,162.888 230.884 C 163.476 230.454,164.328 230.530,164.689 231.045 M170.834 230.931 C 171.352 231.399,171.379 235.470,170.869 236.034 C 169.698 237.328,168.800 236.243,168.800 233.535 C 168.800 230.758,169.563 229.781,170.834 230.931 M199.234 230.931 C 199.482 231.155,199.600 231.543,199.600 232.131 L 199.600 233.000 198.400 233.000 L 197.200 233.000 197.200 232.166 C 197.200 230.784,198.321 230.104,199.234 230.931 M211.089 231.045 C 211.597 231.770,211.531 235.469,211.000 236.000 C 209.595 237.405,208.173 234.526,208.880 231.710 C 209.161 230.589,210.489 230.189,211.089 231.045 M227.282 230.862 C 227.502 231.023,227.681 231.486,227.746 232.062 L 227.852 233.000 226.526 233.000 L 225.200 233.000 225.200 232.245 C 225.200 230.849,226.282 230.131,227.282 230.862 M233.120 230.753 C 233.607 231.078,233.800 231.857,233.800 233.500 C 233.800 235.749,233.482 236.391,232.361 236.397 C 231.449 236.402,231.200 235.782,231.200 233.500 C 231.200 230.933,231.897 229.936,233.120 230.753 M264.919 231.021 C 265.980 232.195,265.288 236.400,264.035 236.400 C 262.994 236.400,262.800 235.951,262.800 233.535 C 262.800 230.722,263.692 229.664,264.919 231.021 M280.689 231.045 C 280.860 231.289,281.000 231.829,281.000 232.245 L 281.000 233.000 279.674 233.000 L 278.348 233.000 278.449 232.100 C 278.619 230.592,279.937 229.971,280.689 231.045 M183.936 235.280 C 183.616 236.113,183.555 238.400,183.852 238.400 C 184.128 238.400,184.800 236.183,184.800 235.275 C 184.800 234.915,184.074 234.918,183.936 235.280 " stroke="none" fill="#049b7b" fill-rule="evenodd"></path><path id="path3" d="M182.750 80.150 C 192.238 80.179,207.763 80.179,217.250 80.150 C 226.738 80.121,218.975 80.098,200.000 80.098 C 181.025 80.098,173.263 80.121,182.750 80.150 M184.691 94.450 L 183.900 95.300 184.750 94.509 C 185.540 93.774,185.692 93.600,185.541 93.600 C 185.508 93.600,185.125 93.983,184.691 94.450 M321.896 195.500 C 321.896 206.720,321.920 211.281,321.950 205.635 C 321.979 199.989,321.979 190.809,321.950 185.235 C 321.920 179.661,321.896 184.280,321.896 195.500 M326.096 195.500 C 326.096 206.720,326.120 211.281,326.150 205.635 C 326.179 199.989,326.179 190.809,326.150 185.235 C 326.120 179.661,326.096 184.280,326.096 195.500 M72.946 186.344 C 73.301 186.389,73.931 186.389,74.346 186.346 C 74.760 186.303,74.470 186.267,73.700 186.266 C 72.930 186.265,72.590 186.300,72.946 186.344 M251.346 186.344 C 251.701 186.389,252.331 186.389,252.746 186.346 C 253.160 186.303,252.870 186.267,252.100 186.266 C 251.330 186.265,250.990 186.300,251.346 186.344 M146.789 188.950 L 146.100 189.700 146.850 189.011 C 147.548 188.369,147.692 188.200,147.539 188.200 C 147.506 188.200,147.168 188.538,146.789 188.950 M196.600 189.100 C 196.973 189.485,197.323 189.800,197.378 189.800 C 197.433 189.800,197.173 189.485,196.800 189.100 C 196.427 188.715,196.077 188.400,196.022 188.400 C 195.967 188.400,196.227 188.715,196.600 189.100 M123.750 189.541 C 123.998 189.589,124.403 189.589,124.650 189.541 C 124.897 189.493,124.695 189.454,124.200 189.454 C 123.705 189.454,123.503 189.493,123.750 189.541 M277.069 196.900 C 277.069 197.780,277.104 198.115,277.147 197.645 C 277.189 197.174,277.188 196.454,277.145 196.045 C 277.102 195.635,277.068 196.020,277.069 196.900 M281.293 205.600 C 281.293 211.265,281.319 213.582,281.350 210.750 C 281.381 207.918,281.381 203.283,281.350 200.450 C 281.319 197.618,281.293 199.935,281.293 205.600 M135.493 205.700 C 135.493 211.310,135.518 213.634,135.550 210.864 C 135.581 208.094,135.581 203.504,135.550 200.664 C 135.519 197.824,135.493 200.090,135.493 205.700 M131.293 206.000 C 131.293 211.445,131.318 213.673,131.350 210.950 C 131.381 208.228,131.381 203.773,131.350 201.050 C 131.318 198.328,131.293 200.555,131.293 206.000 M84.250 198.650 L 84.300 199.300 92.200 199.300 L 100.100 199.300 100.126 198.600 L 100.152 197.900 100.063 198.550 L 99.975 199.200 92.200 199.200 L 84.425 199.200 84.313 198.600 C 84.202 198.008,84.201 198.009,84.250 198.650 M270.450 198.549 C 271.632 198.585,273.568 198.585,274.750 198.549 C 275.933 198.514,274.965 198.485,272.600 198.485 C 270.235 198.485,269.268 198.514,270.450 198.549 M179.877 201.200 C 179.877 202.575,179.909 203.138,179.948 202.450 C 179.987 201.763,179.987 200.638,179.948 199.950 C 179.909 199.263,179.877 199.825,179.877 201.200 M104.262 201.100 C 104.263 201.760,104.300 202.006,104.345 201.646 C 104.389 201.287,104.389 200.747,104.343 200.446 C 104.297 200.146,104.261 200.440,104.262 201.100 M277.078 204.500 C 277.078 205.930,277.110 206.489,277.148 205.742 C 277.187 204.995,277.187 203.825,277.148 203.142 C 277.109 202.459,277.077 203.070,277.078 204.500 M84.250 203.700 C 84.253 204.140,84.294 204.296,84.341 204.048 C 84.389 203.799,84.387 203.439,84.337 203.248 C 84.287 203.056,84.248 203.260,84.250 203.700 M267.450 213.138 C 267.643 213.188,267.957 213.188,268.150 213.138 C 268.343 213.088,268.185 213.046,267.800 213.046 C 267.415 213.046,267.257 213.088,267.450 213.138 M268.850 213.138 C 269.043 213.188,269.358 213.188,269.550 213.138 C 269.743 213.088,269.585 213.046,269.200 213.046 C 268.815 213.046,268.657 213.088,268.850 213.138 M277.067 214.600 C 277.067 215.425,277.103 215.763,277.146 215.350 C 277.189 214.938,277.189 214.263,277.146 213.850 C 277.103 213.438,277.067 213.775,277.067 214.600 M62.350 216.346 C 62.817 216.389,63.583 216.389,64.050 216.346 C 64.517 216.304,64.135 216.270,63.200 216.270 C 62.265 216.270,61.883 216.304,62.350 216.346 M114.050 216.346 C 114.463 216.389,115.138 216.389,115.550 216.346 C 115.963 216.303,115.625 216.267,114.800 216.267 C 113.975 216.267,113.638 216.303,114.050 216.346 M132.650 216.346 C 133.063 216.389,133.738 216.389,134.150 216.346 C 134.563 216.303,134.225 216.267,133.400 216.267 C 132.575 216.267,132.238 216.303,132.650 216.346 M164.250 216.346 C 164.663 216.389,165.338 216.389,165.750 216.346 C 166.163 216.303,165.825 216.267,165.000 216.267 C 164.175 216.267,163.838 216.303,164.250 216.346 M210.250 216.346 C 210.663 216.389,211.338 216.389,211.750 216.346 C 212.163 216.303,211.825 216.267,211.000 216.267 C 210.175 216.267,209.838 216.303,210.250 216.346 M240.750 216.346 C 241.218 216.389,241.982 216.389,242.450 216.346 C 242.918 216.304,242.535 216.270,241.600 216.270 C 240.665 216.270,240.282 216.304,240.750 216.346 M278.450 216.346 C 278.863 216.389,279.538 216.389,279.950 216.346 C 280.363 216.303,280.025 216.267,279.200 216.267 C 278.375 216.267,278.038 216.303,278.450 216.346 M309.650 216.346 C 310.063 216.389,310.738 216.389,311.150 216.346 C 311.563 216.303,311.225 216.267,310.400 216.267 C 309.575 216.267,309.238 216.303,309.650 216.346 M323.250 216.346 C 323.663 216.389,324.338 216.389,324.750 216.346 C 325.163 216.303,324.825 216.267,324.000 216.267 C 323.175 216.267,322.838 216.303,323.250 216.346 M345.450 216.347 C 345.973 216.388,346.828 216.388,347.350 216.347 C 347.873 216.306,347.445 216.272,346.400 216.272 C 345.355 216.272,344.928 216.306,345.450 216.347 M153.850 216.738 C 154.043 216.788,154.358 216.788,154.550 216.738 C 154.743 216.688,154.585 216.646,154.200 216.646 C 153.815 216.646,153.658 216.688,153.850 216.738 M186.850 216.738 C 187.043 216.788,187.358 216.788,187.550 216.738 C 187.743 216.688,187.585 216.646,187.200 216.646 C 186.815 216.646,186.658 216.688,186.850 216.738 M266.450 216.738 C 266.643 216.788,266.957 216.788,267.150 216.738 C 267.343 216.688,267.185 216.646,266.800 216.646 C 266.415 216.646,266.257 216.688,266.450 216.738 M268.152 216.741 C 268.401 216.789,268.761 216.787,268.952 216.737 C 269.144 216.687,268.940 216.648,268.500 216.650 C 268.060 216.653,267.904 216.694,268.152 216.741 " stroke="none" fill="#7c7c7c" fill-rule="evenodd"></path><path id="path4" d="M180.150 60.550 C 191.067 60.579,208.932 60.579,219.850 60.550 C 230.767 60.521,221.835 60.498,200.000 60.498 C 178.165 60.498,169.232 60.521,180.150 60.550 M154.698 105.800 C 154.698 127.635,154.721 136.567,154.750 125.650 C 154.779 114.732,154.779 96.867,154.750 85.950 C 154.721 75.032,154.698 83.965,154.698 105.800 M245.298 105.800 C 245.298 127.635,245.321 136.567,245.350 125.650 C 245.379 114.732,245.379 96.867,245.350 85.950 C 245.321 75.032,245.298 83.965,245.298 105.800 M165.661 68.549 C 166.960 68.584,169.030 68.584,170.261 68.549 C 171.493 68.514,170.430 68.486,167.900 68.486 C 165.370 68.486,164.363 68.515,165.661 68.549 M182.450 68.549 C 183.743 68.584,185.858 68.584,187.150 68.549 C 188.442 68.515,187.385 68.486,184.800 68.486 C 182.215 68.486,181.158 68.515,182.450 68.549 M199.461 68.549 C 200.760 68.584,202.830 68.584,204.061 68.549 C 205.293 68.514,204.230 68.486,201.700 68.486 C 199.170 68.486,198.163 68.515,199.461 68.549 M216.250 68.549 C 217.543 68.584,219.657 68.584,220.950 68.549 C 222.243 68.515,221.185 68.486,218.600 68.486 C 216.015 68.486,214.957 68.515,216.250 68.549 M165.550 72.349 C 166.788 72.384,168.813 72.384,170.050 72.349 C 171.288 72.314,170.275 72.286,167.800 72.286 C 165.325 72.286,164.313 72.314,165.550 72.349 M182.550 72.349 C 183.788 72.384,185.813 72.384,187.050 72.349 C 188.288 72.314,187.275 72.286,184.800 72.286 C 182.325 72.286,181.313 72.314,182.550 72.349 M199.350 72.349 C 200.588 72.384,202.613 72.384,203.850 72.349 C 205.088 72.314,204.075 72.286,201.600 72.286 C 199.125 72.286,198.113 72.314,199.350 72.349 M216.350 72.349 C 217.588 72.384,219.613 72.384,220.850 72.349 C 222.088 72.314,221.075 72.286,218.600 72.286 C 216.125 72.286,215.113 72.314,216.350 72.349 M199.050 84.347 C 199.572 84.388,200.428 84.388,200.950 84.347 C 201.472 84.306,201.045 84.272,200.000 84.272 C 198.955 84.272,198.528 84.306,199.050 84.347 M198.350 88.141 C 198.597 88.189,199.003 88.189,199.250 88.141 C 199.498 88.093,199.295 88.054,198.800 88.054 C 198.305 88.054,198.103 88.093,198.350 88.141 M200.750 88.141 C 200.998 88.189,201.403 88.189,201.650 88.141 C 201.898 88.093,201.695 88.054,201.200 88.054 C 200.705 88.054,200.503 88.093,200.750 88.141 M217.800 91.700 C 218.509 92.415,219.133 93.000,219.188 93.000 C 219.243 93.000,218.709 92.415,218.000 91.700 C 217.291 90.985,216.667 90.400,216.612 90.400 C 216.557 90.400,217.091 90.985,217.800 91.700 M181.894 91.850 L 180.700 93.100 181.950 91.906 C 182.638 91.250,183.200 90.687,183.200 90.656 C 183.200 90.508,183.003 90.689,181.894 91.850 M184.600 124.900 C 185.197 125.505,185.731 126.000,185.786 126.000 C 185.841 126.000,185.397 125.505,184.800 124.900 C 184.203 124.295,183.669 123.800,183.614 123.800 C 183.559 123.800,184.003 124.295,184.600 124.900 M215.193 124.950 L 214.100 126.100 215.250 125.007 C 216.318 123.991,216.492 123.800,216.343 123.800 C 216.312 123.800,215.794 124.317,215.193 124.950 M181.900 127.600 C 182.330 128.040,182.726 128.400,182.781 128.400 C 182.836 128.400,182.530 128.040,182.100 127.600 C 181.670 127.160,181.274 126.800,181.219 126.800 C 181.164 126.800,181.470 127.160,181.900 127.600 M217.891 127.650 L 217.100 128.500 217.950 127.709 C 218.740 126.974,218.892 126.800,218.741 126.800 C 218.708 126.800,218.325 127.183,217.891 127.650 M199.350 131.345 C 199.708 131.389,200.293 131.389,200.650 131.345 C 201.008 131.300,200.715 131.264,200.000 131.264 C 199.285 131.264,198.993 131.300,199.350 131.345 M199.450 135.143 C 199.753 135.189,200.248 135.189,200.550 135.143 C 200.853 135.097,200.605 135.060,200.000 135.060 C 199.395 135.060,199.148 135.097,199.450 135.143 M182.750 139.350 C 192.238 139.379,207.763 139.379,217.250 139.350 C 226.738 139.321,218.975 139.298,200.000 139.298 C 181.025 139.298,173.263 139.321,182.750 139.350 M181.650 143.150 C 191.743 143.179,208.257 143.179,218.350 143.150 C 228.443 143.121,220.185 143.098,200.000 143.098 C 179.815 143.098,171.558 143.121,181.650 143.150 M148.672 148.400 C 148.672 149.445,148.706 149.873,148.747 149.350 C 148.788 148.828,148.788 147.972,148.747 147.450 C 148.706 146.928,148.672 147.355,148.672 148.400 M251.272 148.400 C 251.272 149.445,251.306 149.873,251.347 149.350 C 251.388 148.828,251.388 147.972,251.347 147.450 C 251.306 146.928,251.272 147.355,251.272 148.400 M180.150 151.150 C 191.067 151.179,208.932 151.179,219.850 151.150 C 230.767 151.121,221.835 151.098,200.000 151.098 C 178.165 151.098,169.232 151.121,180.150 151.150 M164.056 174.747 C 164.582 174.789,165.392 174.788,165.856 174.746 C 166.320 174.704,165.890 174.670,164.900 174.671 C 163.910 174.672,163.530 174.706,164.056 174.747 M323.050 174.747 C 323.572 174.788,324.428 174.788,324.950 174.747 C 325.473 174.706,325.045 174.672,324.000 174.672 C 322.955 174.672,322.528 174.706,323.050 174.747 M167.096 195.500 C 167.096 206.720,167.120 211.281,167.150 205.635 C 167.179 199.989,167.179 190.809,167.150 185.235 C 167.120 179.661,167.096 184.280,167.096 195.500 M338.656 178.547 C 339.182 178.589,339.992 178.588,340.456 178.546 C 340.920 178.504,340.490 178.470,339.500 178.471 C 338.510 178.472,338.130 178.506,338.656 178.547 M341.483 182.400 C 341.483 184.435,341.513 185.268,341.549 184.250 C 341.585 183.233,341.585 181.567,341.549 180.550 C 341.513 179.533,341.483 180.365,341.483 182.400 M332.867 188.000 C 332.867 188.825,332.903 189.163,332.946 188.750 C 332.989 188.338,332.989 187.663,332.946 187.250 C 332.903 186.838,332.867 187.175,332.867 188.000 M116.866 188.100 C 116.867 188.870,116.903 189.160,116.946 188.746 C 116.989 188.331,116.989 187.701,116.944 187.346 C 116.900 186.990,116.865 187.330,116.866 188.100 M208.895 201.200 C 208.895 209.175,208.920 212.438,208.950 208.450 C 208.980 204.463,208.980 197.938,208.950 193.950 C 208.920 189.963,208.895 193.225,208.895 201.200 M312.495 201.300 C 312.495 209.330,312.520 212.586,312.550 208.535 C 312.580 204.485,312.580 197.915,312.550 193.935 C 312.520 189.956,312.495 193.270,312.495 201.300 M91.750 189.541 C 91.998 189.589,92.403 189.589,92.650 189.541 C 92.898 189.493,92.695 189.454,92.200 189.454 C 91.705 189.454,91.502 189.493,91.750 189.541 M155.152 189.541 C 155.401 189.589,155.761 189.587,155.952 189.537 C 156.144 189.487,155.940 189.448,155.500 189.450 C 155.060 189.453,154.904 189.494,155.152 189.541 M187.550 189.541 C 187.798 189.589,188.203 189.589,188.450 189.541 C 188.697 189.493,188.495 189.454,188.000 189.454 C 187.505 189.454,187.303 189.493,187.550 189.541 M269.653 189.544 C 269.957 189.589,270.407 189.588,270.653 189.541 C 270.899 189.493,270.650 189.456,270.100 189.457 C 269.550 189.459,269.349 189.498,269.653 189.544 M341.492 198.800 C 341.492 203.695,341.518 205.697,341.550 203.250 C 341.582 200.803,341.582 196.798,341.550 194.350 C 341.518 191.903,341.492 193.905,341.492 198.800 M116.893 206.000 C 116.893 211.445,116.918 213.673,116.950 210.950 C 116.981 208.228,116.981 203.773,116.950 201.050 C 116.918 198.328,116.893 200.555,116.893 206.000 M80.076 200.700 C 80.077 202.020,80.109 202.534,80.148 201.842 C 80.187 201.150,80.187 200.070,80.148 199.442 C 80.108 198.814,80.076 199.380,80.076 200.700 M104.254 199.200 C 104.254 199.695,104.293 199.898,104.341 199.650 C 104.389 199.403,104.389 198.998,104.341 198.750 C 104.293 198.503,104.254 198.705,104.254 199.200 M143.275 201.100 C 143.275 202.310,143.308 202.779,143.348 202.143 C 143.388 201.506,143.387 200.516,143.347 199.943 C 143.307 199.369,143.274 199.890,143.275 201.100 M89.136 202.950 C 91.796 202.981,96.206 202.981,98.936 202.950 C 101.666 202.918,99.490 202.893,94.100 202.893 C 88.710 202.893,86.476 202.918,89.136 202.950 M162.646 203.400 C 162.646 203.785,162.688 203.942,162.738 203.750 C 162.788 203.558,162.788 203.243,162.738 203.050 C 162.688 202.858,162.646 203.015,162.646 203.400 M257.650 208.100 C 257.653 208.540,257.694 208.696,257.741 208.448 C 257.789 208.199,257.787 207.839,257.737 207.648 C 257.687 207.456,257.648 207.660,257.650 208.100 M276.287 213.650 L 275.700 214.300 276.350 213.713 C 276.956 213.165,277.092 213.000,276.937 213.000 C 276.903 213.000,276.610 213.293,276.287 213.650 M190.146 226.944 C 190.501 226.989,191.131 226.989,191.546 226.946 C 191.960 226.903,191.670 226.867,190.900 226.866 C 190.130 226.865,189.790 226.900,190.146 226.944 M200.660 232.800 C 200.660 233.405,200.697 233.653,200.743 233.350 C 200.789 233.048,200.789 232.553,200.743 232.250 C 200.697 231.947,200.660 232.195,200.660 232.800 M261.671 233.500 C 261.670 234.490,261.704 234.920,261.746 234.456 C 261.788 233.992,261.789 233.182,261.747 232.656 C 261.706 232.130,261.672 232.510,261.671 233.500 M265.270 233.400 C 265.270 234.335,265.304 234.718,265.346 234.250 C 265.389 233.782,265.389 233.018,265.346 232.550 C 265.304 232.082,265.270 232.465,265.270 233.400 " stroke="none" fill="#5b503b" fill-rule="evenodd"></path></g></svg>